{"glyphs":{"0":{"ha":725,"x_min":39,"x_max":683,"o":"m 286 -14 q 101 65 163 -14 q 39 290 39 144 q 73 565 39 422 q 196 813 107 707 q 438 918 285 918 q 622 841 560 918 q 683 618 683 764 q 653 359 683 503 q 534 101 622 215 q 286 -14 446 -14 m 304 56 q 433 100 386 56 q 506 228 481 144 q 549 454 531 313 q 561 622 561 550 q 549 750 561 703 q 506 822 538 797 q 415 846 475 846 q 290 803 336 846 q 218 678 243 760 q 174 454 193 596 q 161 281 161 354 q 192 110 161 164 q 304 56 222 56 z "},"1":{"ha":528,"x_min":7,"x_max":465,"o":"m 182 76 l 283 799 l 76 799 l 76 858 l 349 906 l 407 906 l 290 76 l 465 57 l 458 0 l 7 0 l 14 57 l 182 76 z "},"2":{"ha":653,"x_min":-18,"x_max":599,"o":"m -18 75 l 267 350 q 404 497 358 438 q 465 597 450 556 q 481 683 481 638 q 321 815 481 815 q 216 792 263 815 q 118 722 169 768 l 89 746 q 199 860 125 804 q 379 917 274 917 q 541 863 483 917 q 599 721 599 808 q 567 590 599 653 q 476 460 535 526 q 308 288 417 393 l 119 104 l 122 96 l 475 96 l 522 226 l 583 217 l 542 0 l 17 0 l -18 75 z "},"3":{"ha":611,"x_min":-11,"x_max":560,"o":"m 225 -14 q 50 20 111 -14 q -11 118 -11 54 q 13 183 -11 143 q 51 224 36 224 l 86 224 l 96 96 q 150 67 111 78 q 232 56 189 56 q 378 104 326 56 q 429 243 429 153 q 232 436 429 436 l 194 436 l 179 471 l 179 510 l 228 510 q 386 563 324 510 q 449 699 449 617 q 410 788 449 756 q 304 821 372 821 q 203 801 247 821 q 113 732 160 781 l 82 751 q 194 870 121 824 q 340 917 267 917 q 500 864 440 917 q 560 722 560 811 q 510 581 560 646 q 381 489 460 517 l 381 486 q 502 411 458 464 q 546 288 546 358 q 505 131 546 200 q 391 24 464 63 q 225 -14 318 -14 z "},"4":{"ha":667,"x_min":-25,"x_max":614,"o":"m 335 0 l 368 253 l -1 253 l -25 326 l 492 946 l 564 917 l 488 336 l 614 336 l 604 253 l 478 253 l 444 0 l 335 0 m 88 336 l 378 336 l 433 758 l 436 775 l 433 776 l 419 760 l 83 347 l 88 336 z "},"5":{"ha":639,"x_min":-8,"x_max":614,"o":"m 226 -14 q 53 19 115 -14 q -8 118 -8 51 q 6 171 -8 147 q 35 209 19 194 q 54 224 51 224 l 89 224 l 99 96 q 115 84 99 94 q 165 65 132 74 q 249 56 199 56 q 438 271 438 56 q 409 395 438 346 q 309 476 381 444 q 108 522 238 507 l 181 900 l 531 900 l 553 953 l 614 953 l 592 794 l 235 794 l 201 583 q 469 496 379 561 q 558 318 558 431 q 517 142 558 217 q 401 26 476 67 q 226 -14 326 -14 z "},"6":{"ha":688,"x_min":50,"x_max":656,"o":"m 331 -14 q 129 63 208 -14 q 50 308 50 139 q 132 597 50 463 q 351 814 214 731 q 650 906 489 897 l 656 857 q 448 788 543 842 q 289 652 353 733 q 203 472 225 571 q 228 494 203 475 q 297 528 254 513 q 397 544 340 544 q 560 489 497 544 q 622 314 622 433 q 581 144 622 219 q 472 28 539 69 q 331 -14 404 -14 m 333 56 q 458 107 417 56 q 500 268 500 158 q 486 381 500 340 q 439 441 472 422 q 344 460 406 460 q 188 411 253 460 q 176 281 176 363 q 215 115 176 174 q 333 56 253 56 z "},"7":{"ha":611,"x_min":71,"x_max":635,"o":"m 553 794 l 157 794 l 132 685 l 75 685 l 75 900 l 635 900 l 635 794 l 161 0 l 71 0 l 71 51 l 553 779 l 553 794 z "},"8":{"ha":653,"x_min":31,"x_max":599,"o":"m 265 -15 q 137 13 190 -15 q 57 84 83 40 q 31 174 31 128 q 97 336 31 260 q 263 463 163 413 q 153 580 189 522 q 117 703 117 638 q 153 810 117 761 q 250 888 190 860 q 375 917 310 917 q 540 869 481 917 q 599 750 599 822 q 406 488 599 597 q 533 363 497 413 q 568 239 568 313 q 535 124 568 183 q 433 25 501 65 q 265 -15 365 -15 m 368 517 q 461 606 425 550 q 497 728 497 663 q 467 817 497 786 q 365 847 438 847 q 258 820 294 847 q 221 731 221 793 q 253 635 221 679 q 368 517 285 590 m 297 56 q 422 97 379 56 q 464 217 464 138 q 435 305 464 268 q 338 401 407 342 l 301 433 q 146 192 146 344 q 297 56 146 56 z "},"9":{"ha":688,"x_min":50,"x_max":638,"o":"m 163 -12 q 50 -3 94 -12 l 57 44 q 117 40 89 40 q 365 134 269 40 q 492 407 461 228 l 489 410 q 478 396 485 400 q 397 347 444 365 q 303 329 349 329 q 135 397 199 329 q 72 579 72 465 q 113 746 72 668 q 221 870 153 824 q 367 917 289 917 q 566 830 494 917 q 638 586 638 743 q 576 280 638 417 q 406 65 514 143 q 163 -12 297 -12 m 353 406 q 430 424 389 406 q 500 469 471 442 q 510 633 510 524 q 474 797 510 747 q 354 846 438 846 q 236 781 278 846 q 194 596 194 715 q 236 456 194 506 q 353 406 278 406 z "},"\u0000":{"ha":0,"x_min":0,"x_max":0,"o":""},"\r":{"ha":250,"x_min":0,"x_max":0,"o":""}," ":{"ha":250,"x_min":0,"x_max":0,"o":""},"A":{"ha":708,"x_min":-71,"x_max":690,"o":"m -64 51 l 13 72 l 394 907 l 453 907 l 610 68 l 690 51 l 686 0 l 393 0 l 397 51 l 494 72 l 494 104 l 467 258 l 174 258 l 100 96 l 100 72 l 194 51 l 189 0 l -71 0 l -64 51 m 451 338 l 389 686 l 382 724 l 381 719 l 364 682 l 210 338 l 451 338 z "},"Á":{"ha":708,"x_min":-71,"x_max":690,"o":"m 0 0 m -64 51 l 13 72 l 394 907 l 453 907 l 610 68 l 690 51 l 686 0 l 393 0 l 397 51 l 494 72 l 494 104 l 467 258 l 174 258 l 100 96 l 100 72 l 194 51 l 189 0 l -71 0 l -64 51 m 451 338 l 389 686 l 382 724 l 381 719 l 364 682 l 210 338 l 451 338 m 288 993 l 521 1160 q 555 1131 542 1150 q 568 1090 568 1111 q 551 1049 568 1065 q 499 1019 535 1033 l 318 944 l 288 993 z "},"Ă":{"ha":708,"x_min":-71,"x_max":690,"o":"m 636 1125 q 602 1078 636 1119 q 513 1001 568 1036 q 388 965 457 965 q 299 985 336 965 q 243 1035 263 1006 q 224 1090 224 1064 q 243 1121 224 1106 q 289 1147 263 1136 q 302 1119 289 1143 q 341 1074 315 1094 q 406 1053 367 1053 q 503 1075 458 1053 q 577 1123 547 1097 q 607 1151 607 1149 l 636 1125 m -64 51 l 13 72 l 394 907 l 453 907 l 610 68 l 690 51 l 686 0 l 393 0 l 397 51 l 494 72 l 494 104 l 467 258 l 174 258 l 100 96 l 100 72 l 194 51 l 189 0 l -71 0 l -64 51 m 451 338 l 389 686 l 382 724 l 381 719 l 364 682 l 210 338 l 451 338 z "},"Ắ":{"ha":708,"x_min":-71,"x_max":690,"o":"m 0 0 m -64 51 l 13 72 l 394 907 l 453 907 l 610 68 l 690 51 l 686 0 l 393 0 l 397 51 l 494 72 l 494 104 l 467 258 l 174 258 l 100 96 l 100 72 l 194 51 l 189 0 l -71 0 l -64 51 m 451 338 l 389 686 l 382 724 l 381 719 l 364 682 l 210 338 l 451 338 m 667 1125 q 633 1078 667 1119 q 543 1001 599 1036 q 418 965 488 965 q 330 985 367 965 q 274 1035 293 1006 q 254 1090 254 1064 q 274 1121 254 1106 q 319 1147 293 1136 q 333 1119 319 1143 q 372 1074 346 1094 q 436 1053 397 1053 q 533 1075 489 1053 q 608 1123 578 1097 q 638 1151 638 1149 l 667 1125 m 401 1190 l 635 1357 q 669 1328 656 1347 q 682 1288 682 1308 q 665 1247 682 1263 q 613 1217 649 1231 l 432 1142 l 401 1190 z "},"Ặ":{"ha":708,"x_min":-71,"x_max":690,"o":"m 0 0 m -64 51 l 13 72 l 394 907 l 453 907 l 610 68 l 690 51 l 686 0 l 393 0 l 397 51 l 494 72 l 494 104 l 467 258 l 174 258 l 100 96 l 100 72 l 194 51 l 189 0 l -71 0 l -64 51 m 451 338 l 389 686 l 382 724 l 381 719 l 364 682 l 210 338 l 451 338 m 278 -231 q 226 -210 246 -231 q 207 -158 207 -189 q 228 -94 207 -122 q 290 -67 250 -67 q 342 -87 322 -67 q 363 -142 363 -108 q 340 -204 363 -178 q 278 -231 318 -231 m 661 1125 q 627 1078 661 1119 q 538 1001 593 1036 q 413 965 482 965 q 324 985 361 965 q 268 1035 288 1006 q 249 1090 249 1064 q 268 1121 249 1106 q 314 1147 288 1136 q 327 1119 314 1143 q 366 1074 340 1094 q 431 1053 392 1053 q 528 1075 483 1053 q 602 1123 572 1097 q 632 1151 632 1149 l 661 1125 z "},"Ằ":{"ha":708,"x_min":-71,"x_max":690,"o":"m 0 0 m -64 51 l 13 72 l 394 907 l 453 907 l 610 68 l 690 51 l 686 0 l 393 0 l 397 51 l 494 72 l 494 104 l 467 258 l 174 258 l 100 96 l 100 72 l 194 51 l 189 0 l -71 0 l -64 51 m 451 338 l 389 686 l 382 724 l 381 719 l 364 682 l 210 338 l 451 338 m 675 1125 q 641 1078 675 1119 q 551 1001 607 1036 q 426 965 496 965 q 338 985 375 965 q 282 1035 301 1006 q 263 1090 263 1064 q 282 1121 263 1106 q 328 1147 301 1136 q 341 1119 328 1143 q 380 1074 354 1094 q 444 1053 406 1053 q 542 1075 497 1053 q 616 1123 586 1097 q 646 1151 646 1149 l 675 1125 m 368 1217 q 315 1247 332 1231 q 299 1288 299 1263 q 312 1328 299 1308 q 346 1357 325 1347 l 579 1190 l 549 1142 l 368 1217 z "},"Ẳ":{"ha":708,"x_min":-71,"x_max":690,"o":"m 0 0 m -64 51 l 13 72 l 394 907 l 453 907 l 610 68 l 690 51 l 686 0 l 393 0 l 397 51 l 494 72 l 494 104 l 467 258 l 174 258 l 100 96 l 100 72 l 194 51 l 189 0 l -71 0 l -64 51 m 451 338 l 389 686 l 382 724 l 381 719 l 364 682 l 210 338 l 451 338 m 674 1125 q 640 1078 674 1119 q 550 1001 606 1036 q 425 965 494 965 q 337 985 374 965 q 281 1035 300 1006 q 261 1090 261 1064 q 281 1121 261 1106 q 326 1147 300 1136 q 340 1119 326 1143 q 378 1074 353 1094 q 443 1053 404 1053 q 540 1075 496 1053 q 615 1123 585 1097 q 644 1151 644 1149 l 674 1125 m 443 1122 q 439 1143 439 1133 q 453 1173 439 1160 q 499 1197 467 1186 q 554 1247 554 1218 q 538 1265 554 1258 q 490 1272 522 1272 q 401 1261 449 1272 q 393 1300 393 1279 q 413 1333 393 1319 q 483 1347 433 1347 q 607 1325 563 1347 q 651 1261 651 1303 q 626 1199 651 1225 q 556 1158 601 1172 q 523 1143 531 1151 q 514 1122 515 1135 l 443 1122 z "},"Ẵ":{"ha":708,"x_min":-71,"x_max":701,"o":"m 0 0 m -64 51 l 13 72 l 394 907 l 453 907 l 610 68 l 690 51 l 686 0 l 393 0 l 397 51 l 494 72 l 494 104 l 467 258 l 174 258 l 100 96 l 100 72 l 194 51 l 189 0 l -71 0 l -64 51 m 451 338 l 389 686 l 382 724 l 381 719 l 364 682 l 210 338 l 451 338 m 649 1125 q 615 1078 649 1119 q 525 1001 581 1036 q 400 965 469 965 q 312 985 349 965 q 256 1035 275 1006 q 236 1090 236 1064 q 256 1121 236 1106 q 301 1147 275 1136 q 315 1119 301 1143 q 353 1074 328 1094 q 418 1053 379 1053 q 515 1075 471 1053 q 590 1123 560 1097 q 619 1151 619 1149 l 649 1125 m 285 1299 q 361 1346 322 1346 q 467 1318 389 1346 l 558 1286 l 669 1338 l 701 1301 l 650 1235 q 574 1188 613 1188 q 468 1215 542 1188 l 376 1247 l 265 1196 l 233 1232 l 285 1299 z "},"Ǎ":{"ha":708,"x_min":-71,"x_max":690,"o":"m 0 0 m -64 51 l 13 72 l 394 907 l 453 907 l 610 68 l 690 51 l 686 0 l 393 0 l 397 51 l 494 72 l 494 104 l 467 258 l 174 258 l 100 96 l 100 72 l 194 51 l 189 0 l -71 0 l -64 51 m 451 338 l 389 686 l 382 724 l 381 719 l 364 682 l 210 338 l 451 338 m 439 957 q 354 1025 422 957 l 274 1107 l 322 1160 l 458 1064 l 600 1164 l 635 1118 l 544 1033 q 439 957 464 957 z "},"Â":{"ha":708,"x_min":-71,"x_max":690,"o":"m 333 1085 q 383 1124 369 1111 q 406 1140 390 1129 q 428 1155 422 1151 q 439 1158 435 1158 q 487 1126 450 1157 q 529 1090 524 1094 l 613 1014 l 567 957 l 419 1050 l 269 965 l 235 1011 l 333 1085 m -64 51 l 13 72 l 394 907 l 453 907 l 610 68 l 690 51 l 686 0 l 393 0 l 397 51 l 494 72 l 494 104 l 467 258 l 174 258 l 100 96 l 100 72 l 194 51 l 189 0 l -71 0 l -64 51 m 451 338 l 389 686 l 382 724 l 381 719 l 364 682 l 210 338 l 451 338 z "},"Ấ":{"ha":708,"x_min":-71,"x_max":792,"o":"m 0 0 m -64 51 l 13 72 l 394 907 l 453 907 l 610 68 l 690 51 l 686 0 l 393 0 l 397 51 l 494 72 l 494 104 l 467 258 l 174 258 l 100 96 l 100 72 l 194 51 l 189 0 l -71 0 l -64 51 m 451 338 l 389 686 l 382 724 l 381 719 l 364 682 l 210 338 l 451 338 m 357 1085 q 407 1124 393 1111 q 430 1140 414 1129 q 452 1155 446 1151 q 463 1158 458 1158 q 510 1126 474 1157 q 553 1090 547 1094 l 636 1014 l 590 957 l 443 1050 l 293 965 l 258 1011 l 357 1085 m 511 1172 l 744 1339 q 778 1310 765 1329 q 792 1269 792 1290 q 775 1228 792 1244 q 722 1199 758 1213 l 542 1124 l 511 1172 z "},"Ậ":{"ha":708,"x_min":-71,"x_max":690,"o":"m 0 0 m -64 51 l 13 72 l 394 907 l 453 907 l 610 68 l 690 51 l 686 0 l 393 0 l 397 51 l 494 72 l 494 104 l 467 258 l 174 258 l 100 96 l 100 72 l 194 51 l 189 0 l -71 0 l -64 51 m 451 338 l 389 686 l 382 724 l 381 719 l 364 682 l 210 338 l 451 338 m 278 -231 q 226 -210 246 -231 q 207 -158 207 -189 q 228 -94 207 -122 q 290 -67 250 -67 q 342 -87 322 -67 q 363 -142 363 -108 q 340 -204 363 -178 q 278 -231 318 -231 m 364 1085 q 414 1124 400 1111 q 437 1140 421 1129 q 459 1155 453 1151 q 469 1158 465 1158 q 517 1126 481 1157 q 560 1090 554 1094 l 643 1014 l 597 957 l 450 1050 l 300 965 l 265 1011 l 364 1085 z "},"Ầ":{"ha":708,"x_min":-71,"x_max":690,"o":"m 0 0 m -64 51 l 13 72 l 394 907 l 453 907 l 610 68 l 690 51 l 686 0 l 393 0 l 397 51 l 494 72 l 494 104 l 467 258 l 174 258 l 100 96 l 100 72 l 194 51 l 189 0 l -71 0 l -64 51 m 451 338 l 389 686 l 382 724 l 381 719 l 364 682 l 210 338 l 451 338 m 349 1085 q 399 1124 385 1111 q 422 1140 406 1129 q 444 1155 438 1151 q 454 1158 450 1158 q 502 1126 465 1157 q 544 1090 539 1094 l 628 1014 l 582 957 l 435 1050 l 285 965 l 250 1011 l 349 1085 m 474 1199 q 421 1228 438 1213 q 404 1269 404 1244 q 417 1310 404 1290 q 451 1339 431 1329 l 685 1172 l 654 1124 l 474 1199 z "},"Ẩ":{"ha":708,"x_min":-71,"x_max":761,"o":"m 0 0 m -64 51 l 13 72 l 394 907 l 453 907 l 610 68 l 690 51 l 686 0 l 393 0 l 397 51 l 494 72 l 494 104 l 467 258 l 174 258 l 100 96 l 100 72 l 194 51 l 189 0 l -71 0 l -64 51 m 451 338 l 389 686 l 382 724 l 381 719 l 364 682 l 210 338 l 451 338 m 326 1085 q 376 1124 363 1111 q 399 1140 383 1129 q 422 1155 415 1151 q 432 1158 428 1158 q 480 1126 443 1157 q 522 1090 517 1094 l 606 1014 l 560 957 l 413 1050 l 263 965 l 228 1011 l 326 1085 m 553 1103 q 549 1124 549 1114 q 563 1153 549 1140 q 608 1178 576 1167 q 664 1228 664 1199 q 648 1246 664 1239 q 600 1253 632 1253 q 511 1242 558 1253 q 503 1281 503 1260 q 523 1314 503 1300 q 593 1328 543 1328 q 717 1306 672 1328 q 761 1242 761 1283 q 736 1179 761 1206 q 665 1139 711 1153 q 633 1124 640 1132 q 624 1103 625 1115 l 553 1103 z "},"Ẫ":{"ha":708,"x_min":-71,"x_max":701,"o":"m 0 0 m -64 51 l 13 72 l 394 907 l 453 907 l 610 68 l 690 51 l 686 0 l 393 0 l 397 51 l 494 72 l 494 104 l 467 258 l 174 258 l 100 96 l 100 72 l 194 51 l 189 0 l -71 0 l -64 51 m 451 338 l 389 686 l 382 724 l 381 719 l 364 682 l 210 338 l 451 338 m 353 1085 q 403 1124 389 1111 q 426 1140 410 1129 q 448 1155 442 1151 q 458 1158 454 1158 q 506 1126 469 1157 q 549 1090 543 1094 l 632 1014 l 586 957 l 439 1050 l 289 965 l 254 1011 l 353 1085 m 285 1306 q 361 1353 322 1353 q 467 1325 389 1353 l 558 1293 l 669 1344 l 701 1308 l 650 1242 q 574 1194 613 1194 q 468 1222 542 1194 l 376 1254 l 265 1203 l 233 1239 l 285 1306 z "},"Ȁ":{"ha":708,"x_min":-71,"x_max":690,"o":"m 0 0 m -64 51 l 13 72 l 394 907 l 453 907 l 610 68 l 690 51 l 686 0 l 393 0 l 397 51 l 494 72 l 494 104 l 467 258 l 174 258 l 100 96 l 100 72 l 194 51 l 189 0 l -71 0 l -64 51 m 451 338 l 389 686 l 382 724 l 381 719 l 364 682 l 210 338 l 451 338 m 253 1013 q 222 1053 236 1031 q 208 1093 208 1075 q 234 1136 208 1117 q 294 1161 260 1156 l 372 974 l 324 940 l 253 1013 m 465 1013 q 435 1053 449 1031 q 421 1093 421 1075 q 447 1136 421 1117 q 507 1161 472 1156 l 585 974 l 536 940 l 465 1013 z "},"Ä":{"ha":708,"x_min":-71,"x_max":690,"o":"m 278 976 q 226 998 246 976 q 207 1054 207 1019 q 228 1113 207 1089 q 283 1138 250 1138 q 335 1117 315 1138 q 354 1063 354 1097 q 333 1001 354 1026 q 278 976 313 976 m 571 976 q 519 998 539 976 q 500 1054 500 1019 q 522 1113 500 1089 q 576 1138 543 1138 q 628 1117 608 1138 q 647 1063 647 1097 q 626 1001 647 1026 q 571 976 606 976 m -64 51 l 13 72 l 394 907 l 453 907 l 610 68 l 690 51 l 686 0 l 393 0 l 397 51 l 494 72 l 494 104 l 467 258 l 174 258 l 100 96 l 100 72 l 194 51 l 189 0 l -71 0 l -64 51 m 451 338 l 389 686 l 382 724 l 381 719 l 364 682 l 210 338 l 451 338 z "},"Ạ":{"ha":708,"x_min":-71,"x_max":690,"o":"m 0 0 m -64 51 l 13 72 l 394 907 l 453 907 l 610 68 l 690 51 l 686 0 l 393 0 l 397 51 l 494 72 l 494 104 l 467 258 l 174 258 l 100 96 l 100 72 l 194 51 l 189 0 l -71 0 l -64 51 m 451 338 l 389 686 l 382 724 l 381 719 l 364 682 l 210 338 l 451 338 m 278 -231 q 226 -210 246 -231 q 207 -158 207 -189 q 228 -94 207 -122 q 290 -67 250 -67 q 342 -87 322 -67 q 363 -142 363 -108 q 340 -204 363 -178 q 278 -231 318 -231 z "},"À":{"ha":708,"x_min":-71,"x_max":690,"o":"m 336 1021 q 283 1051 300 1035 q 267 1092 267 1067 q 280 1132 267 1113 q 314 1161 293 1151 l 547 994 l 517 946 l 336 1021 m -64 51 l 13 72 l 394 907 l 453 907 l 610 68 l 690 51 l 686 0 l 393 0 l 397 51 l 494 72 l 494 104 l 467 258 l 174 258 l 100 96 l 100 72 l 194 51 l 189 0 l -71 0 l -64 51 m 451 338 l 389 686 l 382 724 l 381 719 l 364 682 l 210 338 l 451 338 z "},"Ả":{"ha":708,"x_min":-71,"x_max":690,"o":"m 0 0 m -64 51 l 13 72 l 394 907 l 453 907 l 610 68 l 690 51 l 686 0 l 393 0 l 397 51 l 494 72 l 494 104 l 467 258 l 174 258 l 100 96 l 100 72 l 194 51 l 189 0 l -71 0 l -64 51 m 451 338 l 389 686 l 382 724 l 381 719 l 364 682 l 210 338 l 451 338 m 404 940 q 400 961 400 951 q 414 991 400 978 q 460 1015 428 1004 q 515 1065 515 1036 q 499 1083 515 1076 q 451 1090 483 1090 q 363 1079 410 1090 q 354 1118 354 1097 q 374 1151 354 1138 q 444 1165 394 1165 q 568 1143 524 1165 q 613 1079 613 1121 q 588 1017 613 1043 q 517 976 563 990 q 484 961 492 969 q 475 940 476 953 l 404 940 z "},"Ȃ":{"ha":708,"x_min":-71,"x_max":690,"o":"m 0 0 m -64 51 l 13 72 l 394 907 l 453 907 l 610 68 l 690 51 l 686 0 l 393 0 l 397 51 l 494 72 l 494 104 l 467 258 l 174 258 l 100 96 l 100 72 l 194 51 l 189 0 l -71 0 l -64 51 m 451 338 l 389 686 l 382 724 l 381 719 l 364 682 l 210 338 l 451 338 m 249 992 q 283 1039 249 997 q 372 1116 317 1081 q 497 1151 428 1151 q 585 1131 549 1151 q 642 1082 622 1111 q 661 1026 661 1053 q 642 996 661 1011 q 596 969 622 981 q 583 998 596 974 q 544 1043 569 1022 q 479 1064 518 1064 q 382 1042 426 1064 q 308 994 338 1019 q 278 965 278 968 l 249 992 z "},"Ā":{"ha":708,"x_min":-71,"x_max":690,"o":"m 229 1086 l 621 1086 l 610 999 l 218 999 l 229 1086 m -64 51 l 13 72 l 394 907 l 453 907 l 610 68 l 690 51 l 686 0 l 393 0 l 397 51 l 494 72 l 494 104 l 467 258 l 174 258 l 100 96 l 100 72 l 194 51 l 189 0 l -71 0 l -64 51 m 451 338 l 389 686 l 382 724 l 381 719 l 364 682 l 210 338 l 451 338 z "},"Ą":{"ha":708,"x_min":-71,"x_max":690,"o":"m 554 0 q 503 -51 525 -21 q 482 -119 482 -82 q 497 -160 482 -146 q 539 -175 511 -175 q 573 -169 556 -175 q 603 -156 590 -162 q 618 -147 615 -150 l 640 -181 q 619 -199 640 -182 q 565 -231 597 -217 q 494 -246 532 -246 q 390 -158 390 -246 q 418 -72 390 -112 q 494 0 446 -31 l 393 0 l 397 51 l 494 72 l 494 104 l 467 258 l 174 258 l 100 96 l 100 72 l 194 51 l 189 0 l -71 0 l -64 51 l 13 72 l 394 907 l 453 907 l 610 68 l 690 51 l 686 0 l 554 0 m 210 338 l 451 338 l 389 686 l 382 724 l 381 719 l 364 682 l 210 338 z "},"Å":{"ha":708,"x_min":-71,"x_max":690,"o":"m 424 919 q 340 944 369 919 q 310 1013 310 969 q 346 1113 310 1071 q 444 1154 382 1154 q 529 1130 500 1154 q 558 1063 558 1106 q 522 962 558 1004 q 424 919 485 919 m 436 981 q 474 999 463 981 q 486 1051 486 1017 q 474 1084 486 1075 q 432 1093 461 1093 q 392 1076 404 1093 q 381 1025 381 1060 q 393 991 381 1001 q 436 981 406 981 m -64 51 l 13 72 l 394 907 l 453 907 l 610 68 l 690 51 l 686 0 l 393 0 l 397 51 l 494 72 l 494 104 l 467 258 l 174 258 l 100 96 l 100 72 l 194 51 l 189 0 l -71 0 l -64 51 m 451 338 l 389 686 l 382 724 l 381 719 l 364 682 l 210 338 l 451 338 z "},"Ǻ":{"ha":708,"x_min":-71,"x_max":690,"o":"m 0 0 m -64 51 l 13 72 l 394 907 l 453 907 l 610 68 l 690 51 l 686 0 l 393 0 l 397 51 l 494 72 l 494 104 l 467 258 l 174 258 l 100 96 l 100 72 l 194 51 l 189 0 l -71 0 l -64 51 m 451 338 l 389 686 l 382 724 l 381 719 l 364 682 l 210 338 l 451 338 m 440 919 q 356 944 386 919 q 326 1013 326 969 q 363 1113 326 1071 q 461 1154 399 1154 q 546 1130 517 1154 q 575 1063 575 1106 q 538 962 575 1004 q 440 919 501 919 m 453 981 q 491 999 479 981 q 503 1051 503 1017 q 490 1084 503 1075 q 449 1093 478 1093 q 409 1076 421 1093 q 397 1025 397 1060 q 410 991 397 1001 q 453 981 422 981 m 392 1249 l 625 1415 q 659 1386 646 1406 q 672 1346 672 1367 q 656 1305 672 1321 q 603 1275 639 1289 l 422 1200 l 392 1249 z "},"Ã":{"ha":708,"x_min":-71,"x_max":690,"o":"m 231 1089 q 307 1136 268 1136 q 413 1108 335 1136 l 504 1076 l 615 1128 l 647 1092 l 596 1025 q 519 978 558 978 q 414 1006 488 978 l 322 1038 l 211 986 l 179 1022 l 231 1089 m -64 51 l 13 72 l 394 907 l 453 907 l 610 68 l 690 51 l 686 0 l 393 0 l 397 51 l 494 72 l 494 104 l 467 258 l 174 258 l 100 96 l 100 72 l 194 51 l 189 0 l -71 0 l -64 51 m 451 338 l 389 686 l 382 724 l 381 719 l 364 682 l 210 338 l 451 338 z "},"Æ":{"ha":960,"x_min":-140,"x_max":988,"o":"m -57 72 l 497 900 l 988 900 l 958 683 l 890 683 l 890 836 l 750 836 l 639 829 l 585 450 l 767 450 l 796 532 l 846 532 l 817 307 l 767 307 l 760 389 l 576 389 l 531 71 q 660 63 581 63 l 801 63 l 854 211 l 913 211 l 886 0 l 318 0 l 324 51 l 422 71 l 467 389 l 240 389 l 42 96 l 42 72 l 136 51 l 131 0 l -140 0 l -133 51 l -57 72 m 475 450 l 531 828 l 525 828 l 278 450 l 475 450 z "},"Ǽ":{"ha":960,"x_min":-140,"x_max":988,"o":"m 0 0 m -57 72 l 497 900 l 988 900 l 958 683 l 890 683 l 890 836 l 750 836 l 639 829 l 585 450 l 767 450 l 796 532 l 846 532 l 817 307 l 767 307 l 760 389 l 576 389 l 531 71 q 660 63 581 63 l 801 63 l 854 211 l 913 211 l 886 0 l 318 0 l 324 51 l 422 71 l 467 389 l 240 389 l 42 96 l 42 72 l 136 51 l 131 0 l -140 0 l -133 51 l -57 72 m 475 450 l 531 828 l 525 828 l 278 450 l 475 450 m 549 994 l 782 1161 q 816 1132 803 1151 q 829 1092 829 1113 q 813 1051 829 1067 q 760 1021 796 1035 l 579 946 l 549 994 z "},"B":{"ha":754,"x_min":22,"x_max":671,"o":"m 126 71 l 233 829 l 139 849 l 144 900 l 401 900 q 603 852 535 900 q 671 717 671 804 q 621 572 671 639 q 468 468 571 506 q 646 286 646 425 q 609 149 646 214 q 494 42 572 83 q 301 0 417 0 l 22 0 l 28 51 l 126 71 m 294 488 q 489 551 421 499 q 557 697 557 604 q 518 805 557 775 q 401 835 479 835 q 363 832 379 835 q 342 828 346 829 l 294 488 m 236 71 q 258 66 236 69 q 321 63 281 63 q 469 114 418 63 q 521 264 521 165 q 467 389 521 347 q 286 433 413 431 l 236 71 z "},"C":{"ha":739,"x_min":61,"x_max":729,"o":"m 658 232 l 639 43 q 378 -15 519 -15 q 135 77 208 -15 q 61 339 61 169 q 120 635 61 503 q 282 842 179 767 q 510 917 385 917 q 729 889 625 917 l 699 685 l 640 685 l 631 818 q 570 838 610 829 q 492 846 531 846 q 267 720 347 846 q 188 371 188 594 q 238 131 188 207 q 403 56 288 56 q 481 65 447 56 q 534 84 515 74 q 557 97 553 94 l 600 232 l 658 232 z "},"Ć":{"ha":739,"x_min":61,"x_max":729,"o":"m 386 994 l 619 1161 q 653 1131 640 1150 q 667 1092 667 1113 q 651 1053 667 1069 q 597 1021 635 1036 l 417 946 l 386 994 m 658 232 l 639 43 q 514 0 582 15 q 378 -15 446 -15 q 140 72 218 -15 q 61 339 61 160 q 119 633 61 501 q 281 841 178 765 q 510 917 383 917 q 729 889 626 917 l 699 685 l 640 685 l 631 818 q 567 838 607 829 q 492 846 526 846 q 267 722 347 846 q 188 371 188 597 q 238 130 188 204 q 403 56 289 56 q 490 67 447 56 q 557 97 533 79 l 600 232 l 658 232 z "},"Č":{"ha":739,"x_min":61,"x_max":729,"o":"m 393 1160 l 529 1064 l 671 1164 l 706 1118 l 615 1033 q 510 957 535 957 q 425 1025 493 957 l 344 1107 l 393 1160 m 658 232 l 639 43 q 378 -15 519 -15 q 135 77 208 -15 q 61 339 61 169 q 120 635 61 503 q 282 842 179 767 q 510 917 385 917 q 729 889 625 917 l 699 685 l 640 685 l 631 818 q 570 838 610 829 q 492 846 531 846 q 267 720 347 846 q 188 371 188 594 q 238 131 188 207 q 403 56 288 56 q 481 65 447 56 q 534 84 515 74 q 557 97 553 94 l 600 232 l 658 232 z "},"Ç":{"ha":739,"x_min":61,"x_max":729,"o":"m 254 -179 q 290 -196 272 -190 q 338 -201 307 -201 q 399 -169 399 -201 q 367 -133 399 -151 l 294 -96 l 294 -68 l 335 -14 q 125 89 189 -1 q 61 339 61 179 q 120 635 61 503 q 282 842 179 767 q 510 917 385 917 q 729 889 625 917 l 699 685 l 640 685 l 631 818 q 570 838 610 829 q 492 846 531 846 q 267 720 347 846 q 188 371 188 594 q 238 131 188 207 q 403 56 288 56 q 481 65 447 56 q 534 84 515 74 q 557 97 553 94 l 600 232 l 658 232 l 639 43 q 401 -15 529 -11 l 401 -40 l 449 -69 q 493 -136 493 -97 q 449 -233 493 -206 q 343 -260 406 -260 q 226 -219 279 -260 l 254 -179 z "},"Ĉ":{"ha":739,"x_min":61,"x_max":729,"o":"m 61 0 m 658 232 l 639 43 q 378 -15 519 -15 q 135 77 208 -15 q 61 339 61 169 q 120 635 61 503 q 282 842 179 767 q 510 917 385 917 q 729 889 625 917 l 699 685 l 640 685 l 631 818 q 570 838 610 829 q 492 846 531 846 q 267 720 347 846 q 188 371 188 594 q 238 131 188 207 q 403 56 288 56 q 481 65 447 56 q 534 84 515 74 q 557 97 553 94 l 600 232 l 658 232 m 449 1085 q 499 1124 485 1111 q 522 1140 506 1129 q 544 1155 538 1151 q 554 1158 550 1158 q 602 1126 565 1157 q 644 1090 639 1094 l 728 1014 l 682 957 l 535 1050 l 385 965 l 350 1011 l 449 1085 z "},"Ċ":{"ha":739,"x_min":61,"x_max":729,"o":"m 61 0 m 658 232 l 639 43 q 378 -15 519 -15 q 135 77 208 -15 q 61 339 61 169 q 120 635 61 503 q 282 842 179 767 q 510 917 385 917 q 729 889 625 917 l 699 685 l 640 685 l 631 818 q 570 838 610 829 q 492 846 531 846 q 267 720 347 846 q 188 371 188 594 q 238 131 188 207 q 403 56 288 56 q 481 65 447 56 q 534 84 515 74 q 557 97 553 94 l 600 232 l 658 232 m 531 971 q 479 992 499 971 q 460 1043 460 1013 q 481 1107 460 1079 q 543 1135 503 1135 q 595 1114 575 1135 q 615 1060 615 1093 q 593 997 615 1024 q 531 971 571 971 z "},"D":{"ha":882,"x_min":21,"x_max":824,"o":"m 125 71 l 232 829 l 138 849 l 143 900 l 464 900 q 730 813 636 900 q 824 564 824 725 q 760 272 824 400 q 582 72 696 143 q 322 0 468 0 l 21 0 l 26 51 l 125 71 m 235 71 q 340 63 290 63 q 603 185 507 63 q 701 524 699 307 q 635 760 701 686 q 425 835 569 835 q 342 829 361 835 l 235 71 z "},"Ǳ":{"ha":1563,"x_min":21,"x_max":1574,"o":"m 21 0 m 125 71 l 232 829 l 138 849 l 143 900 l 464 900 q 730 813 636 900 q 824 564 824 725 q 760 272 824 400 q 582 72 696 143 q 322 0 468 0 l 21 0 l 26 51 l 125 71 m 235 71 q 340 63 290 63 q 603 185 507 63 q 701 524 699 307 q 635 760 701 686 q 425 835 569 835 q 342 829 361 835 l 235 71 m 869 61 l 1419 803 l 1403 833 l 1086 833 l 1029 689 l 968 689 l 999 900 l 1538 900 l 1574 839 l 1014 79 l 1021 63 l 1379 63 l 1436 207 l 1497 207 l 1469 0 l 893 0 l 869 61 z "},"Ǆ":{"ha":1563,"x_min":21,"x_max":1574,"o":"m 21 0 m 125 71 l 232 829 l 138 849 l 143 900 l 464 900 q 730 813 636 900 q 824 564 824 725 q 760 272 824 400 q 582 72 696 143 q 322 0 468 0 l 21 0 l 26 51 l 125 71 m 235 71 q 340 63 290 63 q 603 185 507 63 q 701 524 699 307 q 635 760 701 686 q 425 835 569 835 q 342 829 361 835 l 235 71 m 869 61 l 1419 803 l 1403 833 l 1086 833 l 1029 689 l 968 689 l 999 900 l 1538 900 l 1574 839 l 1014 79 l 1021 63 l 1379 63 l 1436 207 l 1497 207 l 1469 0 l 893 0 l 869 61 m 1274 957 q 1189 1025 1257 957 l 1108 1107 l 1157 1160 l 1293 1064 l 1435 1164 l 1469 1118 l 1379 1033 q 1274 957 1299 957 z "},"Ð":{"ha":886,"x_min":21,"x_max":824,"o":"m 125 71 l 175 432 l 56 432 l 67 504 l 186 504 l 232 829 l 138 849 l 143 900 l 464 900 q 730 813 636 900 q 824 564 824 725 q 760 272 824 400 q 582 72 696 143 q 322 0 468 0 l 21 0 l 26 51 l 125 71 m 235 71 q 340 63 290 63 q 603 185 507 63 q 701 524 699 307 q 635 760 701 686 q 425 835 569 835 q 342 829 361 835 l 296 504 l 497 504 l 486 432 l 285 432 l 235 71 z "},"Ď":{"ha":872,"x_min":14,"x_max":817,"o":"m 494 1064 l 636 1164 l 671 1118 l 581 1033 q 475 957 500 957 q 444 976 468 957 q 390 1025 419 996 l 310 1107 l 358 1160 l 494 1064 m 118 71 l 225 829 l 131 849 l 136 900 l 457 900 q 723 813 629 900 q 817 564 817 725 q 753 272 817 400 q 575 72 689 143 q 315 0 461 0 l 14 0 l 19 51 l 118 71 m 228 71 q 333 63 283 63 q 596 185 500 63 q 694 524 692 307 q 628 760 694 686 q 418 835 563 835 q 335 829 354 835 l 228 71 z "},"Đ":{"ha":872,"x_min":14,"x_max":817,"o":"m 118 71 l 168 432 l 49 432 l 60 504 l 179 504 l 225 829 l 131 849 l 136 900 l 457 900 q 723 813 629 900 q 817 564 817 725 q 753 272 817 400 q 575 72 689 143 q 315 0 461 0 l 14 0 l 19 51 l 118 71 m 228 71 q 333 63 283 63 q 596 185 500 63 q 694 524 692 307 q 628 760 694 686 q 418 835 563 835 q 335 829 354 835 l 289 504 l 490 504 l 479 432 l 278 432 l 228 71 z "},"Ḍ":{"ha":882,"x_min":21,"x_max":824,"o":"m 21 0 m 125 71 l 232 829 l 138 849 l 143 900 l 464 900 q 730 813 636 900 q 824 564 824 725 q 760 272 824 400 q 582 72 696 143 q 322 0 468 0 l 21 0 l 26 51 l 125 71 m 235 71 q 340 63 290 63 q 603 185 507 63 q 701 524 699 307 q 635 760 701 686 q 425 835 569 835 q 342 829 361 835 l 235 71 m 365 -231 q 314 -210 333 -231 q 294 -158 294 -189 q 316 -94 294 -122 q 378 -67 338 -67 q 430 -87 410 -67 q 450 -142 450 -108 q 428 -204 450 -178 q 365 -231 406 -231 z "},"ǲ":{"ha":1431,"x_min":21,"x_max":1463,"o":"m 21 0 m 125 71 l 232 829 l 138 849 l 143 900 l 464 900 q 730 813 636 900 q 824 564 824 725 q 760 272 824 400 q 582 72 696 143 q 322 0 468 0 l 21 0 l 26 51 l 125 71 m 235 71 q 340 63 290 63 q 603 185 507 63 q 701 524 699 307 q 635 760 701 686 q 425 835 569 835 q 342 829 361 835 l 235 71 m 1268 565 l 1058 642 l 1021 510 l 975 510 q 965 526 972 513 q 951 564 958 540 q 944 617 944 588 q 974 690 944 667 q 1054 713 1004 713 q 1119 707 1086 713 q 1201 689 1151 701 l 1349 654 l 1426 710 l 1463 682 l 1047 140 l 1047 125 l 1274 58 l 1311 190 l 1357 190 q 1367 174 1360 188 q 1381 136 1374 160 q 1388 83 1388 113 q 1355 10 1388 33 q 1271 -12 1322 -12 q 1216 -8 1244 -12 q 1158 3 1188 -3 l 1129 8 l 965 39 l 896 -10 l 857 25 l 1268 553 l 1268 565 z "},"ǅ":{"ha":1431,"x_min":21,"x_max":1463,"o":"m 21 0 m 125 71 l 232 829 l 138 849 l 143 900 l 464 900 q 730 813 636 900 q 824 564 824 725 q 760 272 824 400 q 582 72 696 143 q 322 0 468 0 l 21 0 l 26 51 l 125 71 m 235 71 q 340 63 290 63 q 603 185 507 63 q 701 524 699 307 q 635 760 701 686 q 425 835 569 835 q 342 829 361 835 l 235 71 m 1268 565 l 1058 642 l 1021 510 l 975 510 q 965 526 972 513 q 951 564 958 540 q 944 617 944 588 q 974 690 944 667 q 1054 713 1004 713 q 1119 707 1086 713 q 1201 689 1151 701 l 1349 654 l 1426 710 l 1463 682 l 1047 140 l 1047 125 l 1274 58 l 1311 190 l 1357 190 q 1367 174 1360 188 q 1381 136 1374 160 q 1388 83 1388 113 q 1355 10 1388 33 q 1271 -12 1322 -12 q 1216 -8 1244 -12 q 1158 3 1188 -3 l 1129 8 l 965 39 l 896 -10 l 857 25 l 1268 553 l 1268 565 m 1092 1015 l 1225 901 l 1381 1013 l 1417 971 l 1275 838 q 1251 815 1267 831 q 1224 790 1236 799 q 1206 781 1213 781 q 1190 789 1199 781 q 1172 808 1181 797 q 1156 826 1163 818 l 1046 967 l 1092 1015 z "},"E":{"ha":713,"x_min":22,"x_max":692,"o":"m 126 71 l 233 829 l 139 849 l 144 900 l 692 900 l 663 683 l 594 683 l 594 836 l 454 836 l 343 829 l 296 497 l 478 497 l 507 579 l 557 579 l 528 354 l 478 354 l 471 436 l 288 436 l 236 71 q 364 63 274 63 l 506 63 l 558 211 l 617 211 l 590 0 l 22 0 l 28 51 l 126 71 z "},"É":{"ha":704,"x_min":22,"x_max":692,"o":"m 315 994 l 549 1161 q 583 1132 569 1151 q 596 1092 596 1113 q 579 1051 596 1067 q 526 1021 563 1035 l 346 946 l 315 994 m 126 71 l 233 829 l 139 849 l 144 900 l 692 900 l 663 683 l 594 683 l 594 836 l 454 836 l 343 829 l 296 497 l 478 497 l 507 579 l 557 579 l 528 354 l 478 354 l 471 436 l 288 436 l 236 71 q 364 63 274 63 l 506 63 l 558 211 l 617 211 l 590 0 l 22 0 l 28 51 l 126 71 z "},"Ĕ":{"ha":713,"x_min":22,"x_max":692,"o":"m 22 0 m 126 71 l 233 829 l 139 849 l 144 900 l 692 900 l 663 683 l 594 683 l 594 836 l 454 836 l 343 829 l 296 497 l 478 497 l 507 579 l 557 579 l 528 354 l 478 354 l 471 436 l 288 436 l 236 71 q 364 63 274 63 l 506 63 l 558 211 l 617 211 l 590 0 l 22 0 l 28 51 l 126 71 m 664 1125 q 630 1078 664 1119 q 540 1001 596 1036 q 415 965 485 965 q 327 985 364 965 q 271 1035 290 1006 q 251 1090 251 1064 q 271 1121 251 1106 q 317 1147 290 1136 q 330 1119 317 1143 q 369 1074 343 1094 q 433 1053 394 1053 q 531 1075 486 1053 q 605 1123 575 1097 q 635 1151 635 1149 l 664 1125 z "},"Ě":{"ha":704,"x_min":22,"x_max":692,"o":"m 331 1163 l 467 1067 l 608 1167 l 643 1121 l 553 1036 q 447 960 472 960 q 363 1028 431 960 l 282 1110 l 331 1163 m 126 71 l 233 829 l 139 849 l 144 900 l 692 900 l 663 683 l 594 683 l 594 836 l 454 836 l 343 829 l 296 497 l 478 497 l 507 579 l 557 579 l 528 354 l 478 354 l 471 436 l 288 436 l 236 71 q 364 63 274 63 l 506 63 l 558 211 l 617 211 l 590 0 l 22 0 l 28 51 l 126 71 z "},"Ê":{"ha":704,"x_min":22,"x_max":692,"o":"m 365 1085 q 415 1124 401 1111 q 438 1140 422 1129 q 460 1155 454 1151 q 471 1158 467 1158 q 519 1126 482 1157 q 561 1090 556 1094 l 644 1014 l 599 957 l 451 1050 l 301 965 l 267 1011 l 365 1085 m 126 71 l 233 829 l 139 849 l 144 900 l 692 900 l 663 683 l 594 683 l 594 836 l 454 836 l 343 829 l 296 497 l 478 497 l 507 579 l 557 579 l 528 354 l 478 354 l 471 436 l 288 436 l 236 71 q 364 63 274 63 l 506 63 l 558 211 l 617 211 l 590 0 l 22 0 l 28 51 l 126 71 z "},"Ế":{"ha":713,"x_min":22,"x_max":794,"o":"m 22 0 m 126 71 l 233 829 l 139 849 l 144 900 l 692 900 l 663 683 l 594 683 l 594 836 l 454 836 l 343 829 l 296 497 l 478 497 l 507 579 l 557 579 l 528 354 l 478 354 l 471 436 l 288 436 l 236 71 q 364 63 274 63 l 506 63 l 558 211 l 617 211 l 590 0 l 22 0 l 28 51 l 126 71 m 360 1085 q 410 1124 396 1111 q 433 1140 417 1129 q 455 1155 449 1151 q 465 1158 461 1158 q 513 1126 476 1157 q 556 1090 550 1094 l 639 1014 l 593 957 l 446 1050 l 296 965 l 261 1011 l 360 1085 m 514 1172 l 747 1339 q 781 1310 768 1329 q 794 1269 794 1290 q 778 1228 794 1244 q 725 1199 761 1213 l 544 1124 l 514 1172 z "},"Ệ":{"ha":713,"x_min":22,"x_max":692,"o":"m 22 0 m 126 71 l 233 829 l 139 849 l 144 900 l 692 900 l 663 683 l 594 683 l 594 836 l 454 836 l 343 829 l 296 497 l 478 497 l 507 579 l 557 579 l 528 354 l 478 354 l 471 436 l 288 436 l 236 71 q 364 63 274 63 l 506 63 l 558 211 l 617 211 l 590 0 l 22 0 l 28 51 l 126 71 m 281 -231 q 229 -210 249 -231 q 210 -158 210 -189 q 231 -94 210 -122 q 293 -67 253 -67 q 345 -87 325 -67 q 365 -142 365 -108 q 343 -204 365 -178 q 281 -231 321 -231 m 367 1085 q 417 1124 403 1111 q 440 1140 424 1129 q 462 1155 456 1151 q 472 1158 468 1158 q 520 1126 483 1157 q 563 1090 557 1094 l 646 1014 l 600 957 l 453 1050 l 303 965 l 268 1011 l 367 1085 z "},"Ề":{"ha":713,"x_min":22,"x_max":692,"o":"m 22 0 m 126 71 l 233 829 l 139 849 l 144 900 l 692 900 l 663 683 l 594 683 l 594 836 l 454 836 l 343 829 l 296 497 l 478 497 l 507 579 l 557 579 l 528 354 l 478 354 l 471 436 l 288 436 l 236 71 q 364 63 274 63 l 506 63 l 558 211 l 617 211 l 590 0 l 22 0 l 28 51 l 126 71 m 351 1085 q 401 1124 388 1111 q 424 1140 408 1129 q 447 1155 440 1151 q 457 1158 453 1158 q 505 1126 468 1157 q 547 1090 542 1094 l 631 1014 l 585 957 l 438 1050 l 288 965 l 253 1011 l 351 1085 m 476 1199 q 424 1228 440 1213 q 407 1269 407 1244 q 420 1310 407 1290 q 454 1339 433 1329 l 688 1172 l 657 1124 l 476 1199 z "},"Ể":{"ha":713,"x_min":22,"x_max":764,"o":"m 22 0 m 126 71 l 233 829 l 139 849 l 144 900 l 692 900 l 663 683 l 594 683 l 594 836 l 454 836 l 343 829 l 296 497 l 478 497 l 507 579 l 557 579 l 528 354 l 478 354 l 471 436 l 288 436 l 236 71 q 364 63 274 63 l 506 63 l 558 211 l 617 211 l 590 0 l 22 0 l 28 51 l 126 71 m 329 1085 q 379 1124 365 1111 q 402 1140 386 1129 q 424 1155 418 1151 q 435 1158 431 1158 q 483 1126 446 1157 q 525 1090 519 1094 l 608 1014 l 563 957 l 415 1050 l 265 965 l 231 1011 l 329 1085 m 556 1103 q 551 1124 551 1114 q 565 1153 551 1140 q 611 1178 579 1167 q 667 1228 667 1199 q 651 1246 667 1239 q 603 1253 635 1253 q 514 1242 561 1253 q 506 1281 506 1260 q 526 1314 506 1300 q 596 1328 546 1328 q 719 1306 675 1328 q 764 1242 764 1283 q 739 1179 764 1206 q 668 1139 714 1153 q 635 1124 643 1132 q 626 1103 628 1115 l 556 1103 z "},"Ễ":{"ha":713,"x_min":22,"x_max":704,"o":"m 22 0 m 126 71 l 233 829 l 139 849 l 144 900 l 692 900 l 663 683 l 594 683 l 594 836 l 454 836 l 343 829 l 296 497 l 478 497 l 507 579 l 557 579 l 528 354 l 478 354 l 471 436 l 288 436 l 236 71 q 364 63 274 63 l 506 63 l 558 211 l 617 211 l 590 0 l 22 0 l 28 51 l 126 71 m 356 1085 q 406 1124 392 1111 q 428 1140 413 1129 q 451 1155 444 1151 q 461 1158 457 1158 q 509 1126 472 1157 q 551 1090 546 1094 l 635 1014 l 589 957 l 442 1050 l 292 965 l 257 1011 l 356 1085 m 288 1306 q 364 1353 325 1353 q 469 1325 392 1353 l 561 1293 l 672 1344 l 704 1308 l 653 1242 q 576 1194 615 1194 q 471 1222 544 1194 l 379 1254 l 268 1203 l 236 1239 l 288 1306 z "},"Ȅ":{"ha":713,"x_min":22,"x_max":692,"o":"m 22 0 m 126 71 l 233 829 l 139 849 l 144 900 l 692 900 l 663 683 l 594 683 l 594 836 l 454 836 l 343 829 l 296 497 l 478 497 l 507 579 l 557 579 l 528 354 l 478 354 l 471 436 l 288 436 l 236 71 q 364 63 274 63 l 506 63 l 558 211 l 617 211 l 590 0 l 22 0 l 28 51 l 126 71 m 256 1013 q 225 1053 239 1031 q 211 1093 211 1075 q 237 1136 211 1117 q 297 1161 263 1156 l 375 974 l 326 940 l 256 1013 m 468 1013 q 438 1053 451 1031 q 424 1093 424 1075 q 449 1136 424 1117 q 510 1161 475 1156 l 588 974 l 539 940 l 468 1013 z "},"Ë":{"ha":704,"x_min":22,"x_max":692,"o":"m 306 963 q 254 984 274 963 q 235 1040 235 1006 q 256 1099 235 1075 q 311 1124 278 1124 q 363 1103 343 1124 q 382 1049 382 1083 q 361 988 382 1013 q 306 963 340 963 m 599 963 q 547 984 567 963 q 528 1040 528 1006 q 549 1099 528 1075 q 604 1124 571 1124 q 656 1103 636 1124 q 675 1049 675 1083 q 654 988 675 1013 q 599 963 633 963 m 126 71 l 233 829 l 139 849 l 144 900 l 692 900 l 663 683 l 594 683 l 594 836 l 454 836 l 343 829 l 296 497 l 478 497 l 507 579 l 557 579 l 528 354 l 478 354 l 471 436 l 288 436 l 236 71 q 364 63 274 63 l 506 63 l 558 211 l 617 211 l 590 0 l 22 0 l 28 51 l 126 71 z "},"Ė":{"ha":704,"x_min":22,"x_max":692,"o":"m 451 971 q 400 992 419 971 q 381 1043 381 1013 q 402 1107 381 1079 q 464 1135 424 1135 q 516 1114 496 1135 q 536 1060 536 1093 q 514 997 536 1024 q 451 971 492 971 m 126 71 l 233 829 l 139 849 l 144 900 l 692 900 l 663 683 l 594 683 l 594 836 l 454 836 l 343 829 l 296 497 l 478 497 l 507 579 l 557 579 l 528 354 l 478 354 l 471 436 l 288 436 l 236 71 q 364 63 274 63 l 506 63 l 558 211 l 617 211 l 590 0 l 22 0 l 28 51 l 126 71 z "},"Ẹ":{"ha":713,"x_min":22,"x_max":692,"o":"m 22 0 m 126 71 l 233 829 l 139 849 l 144 900 l 692 900 l 663 683 l 594 683 l 594 836 l 454 836 l 343 829 l 296 497 l 478 497 l 507 579 l 557 579 l 528 354 l 478 354 l 471 436 l 288 436 l 236 71 q 364 63 274 63 l 506 63 l 558 211 l 617 211 l 590 0 l 22 0 l 28 51 l 126 71 m 281 -231 q 229 -210 249 -231 q 210 -158 210 -189 q 231 -94 210 -122 q 293 -67 253 -67 q 345 -87 325 -67 q 365 -142 365 -108 q 343 -204 365 -178 q 281 -231 321 -231 z "},"È":{"ha":704,"x_min":22,"x_max":692,"o":"m 342 1021 q 289 1051 306 1035 q 272 1092 272 1067 q 285 1132 272 1113 q 319 1161 299 1151 l 553 994 l 522 946 l 342 1021 m 126 71 l 233 829 l 139 849 l 144 900 l 692 900 l 663 683 l 594 683 l 594 836 l 454 836 l 343 829 l 296 497 l 478 497 l 507 579 l 557 579 l 528 354 l 478 354 l 471 436 l 288 436 l 236 71 q 364 63 274 63 l 506 63 l 558 211 l 617 211 l 590 0 l 22 0 l 28 51 l 126 71 z "},"Ẻ":{"ha":713,"x_min":22,"x_max":692,"o":"m 22 0 m 126 71 l 233 829 l 139 849 l 144 900 l 692 900 l 663 683 l 594 683 l 594 836 l 454 836 l 343 829 l 296 497 l 478 497 l 507 579 l 557 579 l 528 354 l 478 354 l 471 436 l 288 436 l 236 71 q 364 63 274 63 l 506 63 l 558 211 l 617 211 l 590 0 l 22 0 l 28 51 l 126 71 m 407 940 q 403 961 403 951 q 417 991 403 978 q 463 1015 431 1004 q 518 1065 518 1036 q 502 1083 518 1076 q 454 1090 486 1090 q 365 1079 413 1090 q 357 1118 357 1097 q 377 1151 357 1138 q 447 1165 397 1165 q 571 1143 526 1165 q 615 1079 615 1121 q 590 1017 615 1043 q 519 976 565 990 q 487 961 494 969 q 478 940 479 953 l 407 940 z "},"Ȇ":{"ha":713,"x_min":22,"x_max":692,"o":"m 22 0 m 126 71 l 233 829 l 139 849 l 144 900 l 692 900 l 663 683 l 594 683 l 594 836 l 454 836 l 343 829 l 296 497 l 478 497 l 507 579 l 557 579 l 528 354 l 478 354 l 471 436 l 288 436 l 236 71 q 364 63 274 63 l 506 63 l 558 211 l 617 211 l 590 0 l 22 0 l 28 51 l 126 71 m 251 992 q 285 1039 251 997 q 375 1116 319 1081 q 500 1151 431 1151 q 588 1131 551 1151 q 644 1082 625 1111 q 664 1026 664 1053 q 644 996 664 1011 q 599 969 625 981 q 585 998 599 974 q 547 1043 572 1022 q 482 1064 521 1064 q 385 1042 429 1064 q 310 994 340 1019 q 281 965 281 968 l 251 992 z "},"Ē":{"ha":704,"x_min":22,"x_max":692,"o":"m 269 1086 l 661 1086 l 650 999 l 258 999 l 269 1086 m 126 71 l 233 829 l 139 849 l 144 900 l 692 900 l 663 683 l 594 683 l 594 836 l 454 836 l 343 829 l 296 497 l 478 497 l 507 579 l 557 579 l 528 354 l 478 354 l 471 436 l 288 436 l 236 71 q 364 63 274 63 l 506 63 l 558 211 l 617 211 l 590 0 l 22 0 l 28 51 l 126 71 z "},"Ę":{"ha":704,"x_min":22,"x_max":692,"o":"m 594 683 l 594 836 l 454 836 l 343 829 l 296 497 l 478 497 l 507 579 l 557 579 l 528 354 l 478 354 l 471 436 l 288 436 l 236 71 q 364 63 274 63 l 506 63 l 558 211 l 617 211 l 590 0 l 550 0 q 499 -51 521 -21 q 478 -119 478 -82 q 492 -160 478 -146 q 535 -175 507 -175 q 569 -169 551 -175 q 599 -156 586 -162 q 614 -147 611 -150 l 636 -181 q 615 -199 636 -182 q 560 -231 593 -217 q 490 -246 528 -246 q 386 -158 386 -246 q 414 -72 386 -112 q 490 0 442 -31 l 22 0 l 28 51 l 126 71 l 233 829 l 139 849 l 144 900 l 692 900 l 663 683 l 594 683 z "},"Ẽ":{"ha":713,"x_min":22,"x_max":692,"o":"m 22 0 m 126 71 l 233 829 l 139 849 l 144 900 l 692 900 l 663 683 l 594 683 l 594 836 l 454 836 l 343 829 l 296 497 l 478 497 l 507 579 l 557 579 l 528 354 l 478 354 l 471 436 l 288 436 l 236 71 q 364 63 274 63 l 506 63 l 558 211 l 617 211 l 590 0 l 22 0 l 28 51 l 126 71 m 274 1089 q 350 1136 311 1136 q 456 1108 378 1136 l 547 1076 l 658 1128 l 690 1092 l 639 1025 q 563 978 601 978 q 457 1006 531 978 l 365 1038 l 254 986 l 222 1022 l 274 1089 z "},"F":{"ha":672,"x_min":22,"x_max":701,"o":"m 28 51 l 126 71 l 233 829 l 139 849 l 144 900 l 701 900 l 669 693 l 600 693 l 600 831 l 460 831 l 342 819 l 292 469 l 492 469 l 519 553 l 569 553 l 536 314 l 488 314 l 482 400 l 283 400 l 236 74 l 369 54 l 365 0 l 22 0 l 28 51 z "},"G":{"ha":785,"x_min":67,"x_max":736,"o":"m 560 38 q 481 0 525 15 q 363 -15 438 -15 q 143 74 219 -15 q 67 335 67 164 q 119 621 67 488 q 273 835 172 754 q 510 917 374 917 q 615 910 564 917 q 697 896 665 903 q 736 886 728 889 l 710 682 l 651 682 l 643 807 q 617 819 638 810 q 562 838 597 829 q 483 846 526 846 q 335 796 401 846 q 231 638 269 746 q 192 364 192 529 q 243 128 192 200 q 396 56 294 56 q 484 67 447 56 q 563 100 521 79 l 600 361 l 453 386 l 460 446 l 707 446 l 647 0 l 601 0 l 571 38 l 560 38 z "},"Ǵ":{"ha":785,"x_min":67,"x_max":744,"o":"m 67 0 m 560 38 q 481 0 525 15 q 363 -15 438 -15 q 143 74 219 -15 q 67 335 67 164 q 119 621 67 488 q 273 835 172 754 q 510 917 374 917 q 615 910 564 917 q 697 896 665 903 q 736 886 728 889 l 710 682 l 651 682 l 643 807 q 617 819 638 810 q 562 838 597 829 q 483 846 526 846 q 335 796 401 846 q 231 638 269 746 q 192 364 192 529 q 243 128 192 200 q 396 56 294 56 q 484 67 447 56 q 563 100 521 79 l 600 361 l 453 386 l 460 446 l 707 446 l 647 0 l 601 0 l 571 38 l 560 38 m 464 994 l 697 1161 q 731 1132 718 1151 q 744 1092 744 1113 q 728 1051 744 1067 q 675 1021 711 1035 l 494 946 l 464 994 z "},"Ğ":{"ha":774,"x_min":56,"x_max":725,"o":"m 725 1125 q 691 1078 725 1119 q 601 1001 657 1036 q 476 965 546 965 q 388 985 425 965 q 332 1035 351 1006 q 313 1090 313 1064 q 332 1121 313 1106 q 378 1147 351 1136 q 391 1119 378 1143 q 430 1074 404 1094 q 494 1053 456 1053 q 592 1075 547 1053 q 666 1123 636 1097 q 696 1151 696 1149 l 725 1125 m 549 38 q 470 0 514 15 q 351 -15 426 -15 q 132 74 208 -15 q 56 335 56 164 q 108 621 56 488 q 262 835 161 754 q 499 917 363 917 q 603 910 553 917 q 685 896 654 903 q 725 886 717 889 l 699 682 l 640 682 l 632 807 q 606 819 626 810 q 551 838 586 829 q 472 846 515 846 q 324 796 390 846 q 219 638 258 746 q 181 364 181 529 q 232 128 181 200 q 385 56 283 56 q 473 67 436 56 q 551 100 510 79 l 589 361 l 442 386 l 449 446 l 696 446 l 636 0 l 590 0 l 560 38 l 549 38 z "},"Ǧ":{"ha":785,"x_min":67,"x_max":736,"o":"m 67 0 m 560 38 q 481 0 525 15 q 363 -15 438 -15 q 143 74 219 -15 q 67 335 67 164 q 119 621 67 488 q 273 835 172 754 q 510 917 374 917 q 615 910 564 917 q 697 896 665 903 q 736 886 728 889 l 710 682 l 651 682 l 643 807 q 617 819 638 810 q 562 838 597 829 q 483 846 526 846 q 335 796 401 846 q 231 638 269 746 q 192 364 192 529 q 243 128 192 200 q 396 56 294 56 q 484 67 447 56 q 563 100 521 79 l 600 361 l 453 386 l 460 446 l 707 446 l 647 0 l 601 0 l 571 38 l 560 38 m 533 957 q 449 1025 517 957 l 368 1107 l 417 1160 l 553 1064 l 694 1164 l 729 1118 l 639 1033 q 533 957 558 957 z "},"Ĝ":{"ha":785,"x_min":67,"x_max":738,"o":"m 67 0 m 560 38 q 481 0 525 15 q 363 -15 438 -15 q 143 74 219 -15 q 67 335 67 164 q 119 621 67 488 q 273 835 172 754 q 510 917 374 917 q 615 910 564 917 q 697 896 665 903 q 736 886 728 889 l 710 682 l 651 682 l 643 807 q 617 819 638 810 q 562 838 597 829 q 483 846 526 846 q 335 796 401 846 q 231 638 269 746 q 192 364 192 529 q 243 128 192 200 q 396 56 294 56 q 484 67 447 56 q 563 100 521 79 l 600 361 l 453 386 l 460 446 l 707 446 l 647 0 l 601 0 l 571 38 l 560 38 m 458 1085 q 508 1124 494 1111 q 531 1140 515 1129 q 553 1155 547 1151 q 564 1158 560 1158 q 612 1126 575 1157 q 654 1090 649 1094 l 738 1014 l 692 957 l 544 1050 l 394 965 l 360 1011 l 458 1085 z "},"Ģ":{"ha":774,"x_min":56,"x_max":725,"o":"m 549 38 q 470 0 514 15 q 351 -15 426 -15 q 132 74 208 -15 q 56 335 56 164 q 108 621 56 488 q 262 835 161 754 q 499 917 363 917 q 603 910 553 917 q 685 896 654 903 q 725 886 717 889 l 699 682 l 640 682 l 632 807 q 606 819 626 810 q 551 838 586 829 q 472 846 515 846 q 324 796 390 846 q 219 638 258 746 q 181 364 181 529 q 232 128 181 200 q 385 56 283 56 q 473 67 436 56 q 551 100 510 79 l 589 361 l 442 386 l 449 446 l 696 446 l 636 0 l 590 0 l 560 38 l 549 38 m 279 -256 q 296 -237 283 -251 q 319 -202 308 -224 q 331 -157 331 -181 q 297 -78 331 -108 q 358 -46 317 -46 q 409 -65 389 -46 q 429 -126 429 -85 q 383 -222 429 -179 q 303 -279 338 -264 l 279 -256 z "},"Ġ":{"ha":785,"x_min":67,"x_max":736,"o":"m 67 0 m 560 38 q 481 0 525 15 q 363 -15 438 -15 q 143 74 219 -15 q 67 335 67 164 q 119 621 67 488 q 273 835 172 754 q 510 917 374 917 q 615 910 564 917 q 697 896 665 903 q 736 886 728 889 l 710 682 l 651 682 l 643 807 q 617 819 638 810 q 562 838 597 829 q 483 846 526 846 q 335 796 401 846 q 231 638 269 746 q 192 364 192 529 q 243 128 192 200 q 396 56 294 56 q 484 67 447 56 q 563 100 521 79 l 600 361 l 453 386 l 460 446 l 707 446 l 647 0 l 601 0 l 571 38 l 560 38 m 540 971 q 489 992 508 971 q 469 1043 469 1013 q 491 1107 469 1079 q 553 1135 513 1135 q 605 1114 585 1135 q 625 1060 625 1093 q 603 997 625 1024 q 540 971 581 971 z "},"H":{"ha":926,"x_min":21,"x_max":918,"o":"m 26 51 l 125 71 l 232 829 l 138 849 l 143 900 l 446 900 l 440 849 l 342 829 l 296 500 l 658 500 l 704 829 l 610 849 l 615 900 l 918 900 l 913 849 l 814 829 l 707 71 l 801 51 l 797 0 l 493 0 l 499 51 l 597 71 l 647 424 l 285 424 l 235 71 l 329 51 l 325 0 l 21 0 l 26 51 z "},"Ħ":{"ha":926,"x_min":21,"x_max":918,"o":"m 913 849 l 814 829 l 792 672 l 883 672 l 872 600 l 782 600 l 707 71 l 801 51 l 797 0 l 493 0 l 499 51 l 597 71 l 639 371 l 276 371 l 235 71 l 329 51 l 325 0 l 21 0 l 26 51 l 125 71 l 200 600 l 108 600 l 119 672 l 210 672 l 232 829 l 138 849 l 143 900 l 446 900 l 440 849 l 342 829 l 319 672 l 682 672 l 704 829 l 610 849 l 615 900 l 918 900 l 913 849 m 650 447 l 672 600 l 310 600 l 288 447 l 650 447 z "},"Ĥ":{"ha":926,"x_min":21,"x_max":918,"o":"m 21 0 m 26 51 l 125 71 l 232 829 l 138 849 l 143 900 l 446 900 l 440 849 l 342 829 l 296 500 l 658 500 l 704 829 l 610 849 l 615 900 l 918 900 l 913 849 l 814 829 l 707 71 l 801 51 l 797 0 l 493 0 l 499 51 l 597 71 l 647 424 l 285 424 l 235 71 l 329 51 l 325 0 l 21 0 l 26 51 m 463 1085 q 513 1124 499 1111 q 535 1140 519 1129 q 558 1155 551 1151 q 568 1158 564 1158 q 616 1126 579 1157 q 658 1090 653 1094 l 742 1014 l 696 957 l 549 1050 l 399 965 l 364 1011 l 463 1085 z "},"Ḥ":{"ha":926,"x_min":21,"x_max":918,"o":"m 21 0 m 26 51 l 125 71 l 232 829 l 138 849 l 143 900 l 446 900 l 440 849 l 342 829 l 296 500 l 658 500 l 704 829 l 610 849 l 615 900 l 918 900 l 913 849 l 814 829 l 707 71 l 801 51 l 797 0 l 493 0 l 499 51 l 597 71 l 647 424 l 285 424 l 235 71 l 329 51 l 325 0 l 21 0 l 26 51 m 382 -231 q 331 -210 350 -231 q 311 -158 311 -189 q 333 -94 311 -122 q 394 -67 354 -67 q 447 -87 426 -67 q 467 -142 467 -108 q 444 -204 467 -178 q 382 -231 422 -231 z "},"I":{"ha":454,"x_min":22,"x_max":447,"o":"m 28 51 l 126 71 l 233 829 l 139 849 l 144 900 l 447 900 l 442 849 l 343 829 l 236 71 l 331 51 l 326 0 l 22 0 l 28 51 z "},"Ĳ":{"ha":1007,"x_min":22,"x_max":1025,"o":"m 22 0 m 28 51 l 126 71 l 233 829 l 139 849 l 144 900 l 447 900 l 442 849 l 343 829 l 236 71 l 331 51 l 326 0 l 22 0 l 28 51 m 539 218 l 556 64 q 583 56 561 61 q 628 51 604 51 q 694 68 675 51 q 719 138 713 85 l 811 825 l 690 849 l 696 900 l 1025 900 l 1019 849 l 921 829 l 829 154 q 765 21 817 61 q 617 -19 714 -19 q 533 -11 571 -19 q 474 6 496 -3 q 447 18 453 15 l 471 218 l 539 218 z "},"Í":{"ha":454,"x_min":21,"x_max":465,"o":"m 185 994 l 418 1161 q 452 1132 439 1151 q 465 1092 465 1113 q 449 1051 465 1067 q 396 1021 432 1035 l 215 946 l 185 994 m 26 51 l 125 71 l 232 829 l 138 849 l 143 900 l 446 900 l 440 849 l 342 829 l 235 71 l 329 51 l 325 0 l 21 0 l 26 51 z "},"Ĭ":{"ha":454,"x_min":22,"x_max":535,"o":"m 22 0 m 28 51 l 126 71 l 233 829 l 139 849 l 144 900 l 447 900 l 442 849 l 343 829 l 236 71 l 331 51 l 326 0 l 22 0 l 28 51 m 535 1125 q 501 1078 535 1119 q 411 1001 467 1036 q 286 965 356 965 q 198 985 235 965 q 142 1035 161 1006 q 122 1090 122 1064 q 142 1121 122 1106 q 188 1147 161 1136 q 201 1119 188 1143 q 240 1074 214 1094 q 304 1053 265 1053 q 401 1075 357 1053 q 476 1123 446 1097 q 506 1151 506 1149 l 535 1125 z "},"Ǐ":{"ha":454,"x_min":22,"x_max":508,"o":"m 22 0 m 28 51 l 126 71 l 233 829 l 139 849 l 144 900 l 447 900 l 442 849 l 343 829 l 236 71 l 331 51 l 326 0 l 22 0 l 28 51 m 313 957 q 228 1025 296 957 l 147 1107 l 196 1160 l 332 1064 l 474 1164 l 508 1118 l 418 1033 q 313 957 338 957 z "},"Î":{"ha":435,"x_min":1,"x_max":472,"o":"m 193 1085 q 243 1124 229 1111 q 266 1140 250 1129 q 288 1155 282 1151 q 299 1158 294 1158 q 347 1126 310 1157 q 389 1090 383 1094 l 472 1014 l 426 957 l 279 1050 l 129 965 l 94 1011 l 193 1085 m 7 51 l 106 71 l 213 829 l 118 849 l 124 900 l 426 900 l 421 849 l 322 829 l 215 71 l 310 51 l 306 0 l 1 0 l 7 51 z "},"Ȉ":{"ha":454,"x_min":22,"x_max":458,"o":"m 22 0 m 28 51 l 126 71 l 233 829 l 139 849 l 144 900 l 447 900 l 442 849 l 343 829 l 236 71 l 331 51 l 326 0 l 22 0 l 28 51 m 126 1013 q 96 1053 110 1031 q 82 1093 82 1075 q 108 1136 82 1117 q 168 1161 133 1156 l 246 974 l 197 940 l 126 1013 m 339 1013 q 308 1053 322 1031 q 294 1093 294 1075 q 320 1136 294 1117 q 381 1161 346 1156 l 458 974 l 410 940 l 339 1013 z "},"Ï":{"ha":454,"x_min":21,"x_max":521,"o":"m 179 963 q 128 984 147 963 q 108 1040 108 1006 q 130 1099 108 1075 q 185 1124 151 1124 q 236 1103 217 1124 q 256 1049 256 1083 q 235 988 256 1013 q 179 963 214 963 m 444 963 q 393 984 413 963 q 374 1040 374 1006 q 395 1099 374 1075 q 450 1124 417 1124 q 501 1103 482 1124 q 521 1049 521 1083 q 500 988 521 1013 q 444 963 479 963 m 26 51 l 125 71 l 232 829 l 138 849 l 143 900 l 446 900 l 440 849 l 342 829 l 235 71 l 329 51 l 325 0 l 21 0 l 26 51 z "},"İ":{"ha":447,"x_min":14,"x_max":439,"o":"m 307 971 q 256 992 275 971 q 236 1043 236 1013 q 258 1107 236 1079 q 319 1135 279 1135 q 372 1114 351 1135 q 392 1060 392 1093 q 369 997 392 1024 q 307 971 347 971 m 19 51 l 118 71 l 225 829 l 131 849 l 136 900 l 439 900 l 433 849 l 335 829 l 228 71 l 322 51 l 318 0 l 14 0 l 19 51 z "},"Ị":{"ha":454,"x_min":22,"x_max":447,"o":"m 22 0 m 28 51 l 126 71 l 233 829 l 139 849 l 144 900 l 447 900 l 442 849 l 343 829 l 236 71 l 331 51 l 326 0 l 22 0 l 28 51 m 151 -231 q 100 -210 119 -231 q 81 -158 81 -189 q 102 -94 81 -122 q 164 -67 124 -67 q 216 -87 196 -67 q 236 -142 236 -108 q 214 -204 236 -178 q 151 -231 192 -231 z "},"Ì":{"ha":454,"x_min":21,"x_max":446,"o":"m 218 1021 q 165 1051 182 1035 q 149 1092 149 1067 q 162 1132 149 1113 q 196 1161 175 1151 l 429 994 l 399 946 l 218 1021 m 26 51 l 125 71 l 232 829 l 138 849 l 143 900 l 446 900 l 440 849 l 342 829 l 235 71 l 329 51 l 325 0 l 21 0 l 26 51 z "},"Ỉ":{"ha":454,"x_min":22,"x_max":486,"o":"m 22 0 m 28 51 l 126 71 l 233 829 l 139 849 l 144 900 l 447 900 l 442 849 l 343 829 l 236 71 l 331 51 l 326 0 l 22 0 l 28 51 m 278 940 q 274 961 274 951 q 288 991 274 978 q 333 1015 301 1004 q 389 1065 389 1036 q 373 1083 389 1076 q 325 1090 357 1090 q 236 1079 283 1090 q 228 1118 228 1097 q 248 1151 228 1138 q 318 1165 268 1165 q 442 1143 397 1165 q 486 1079 486 1121 q 461 1017 486 1043 q 390 976 436 990 q 358 961 365 969 q 349 940 350 953 l 278 940 z "},"Ȋ":{"ha":454,"x_min":22,"x_max":535,"o":"m 22 0 m 28 51 l 126 71 l 233 829 l 139 849 l 144 900 l 447 900 l 442 849 l 343 829 l 236 71 l 331 51 l 326 0 l 22 0 l 28 51 m 122 992 q 156 1039 122 997 q 246 1116 190 1081 q 371 1151 301 1151 q 459 1131 422 1151 q 515 1082 496 1111 q 535 1026 535 1053 q 515 996 535 1011 q 469 969 496 981 q 456 998 469 974 q 417 1043 443 1022 q 353 1064 392 1064 q 256 1042 300 1064 q 181 994 211 1019 q 151 965 151 968 l 122 992 z "},"Ī":{"ha":454,"x_min":21,"x_max":486,"o":"m 153 1086 l 486 1086 l 474 999 l 140 999 l 153 1086 m 26 51 l 125 71 l 232 829 l 138 849 l 143 900 l 446 900 l 440 849 l 342 829 l 235 71 l 329 51 l 325 0 l 21 0 l 26 51 z "},"Į":{"ha":454,"x_min":21,"x_max":446,"o":"m 125 71 l 232 829 l 138 849 l 143 900 l 446 900 l 440 849 l 342 829 l 235 71 l 329 51 l 325 0 l 196 0 q 124 -119 124 -53 q 138 -160 124 -146 q 181 -175 153 -175 q 215 -169 197 -175 q 244 -156 232 -162 q 260 -147 257 -150 l 282 -181 q 260 -199 282 -182 q 206 -231 239 -217 q 136 -246 174 -246 q 32 -158 32 -246 q 60 -72 32 -112 q 136 0 88 -31 l 21 0 l 26 51 l 125 71 z "},"Ĩ":{"ha":454,"x_min":22,"x_max":561,"o":"m 22 0 m 28 51 l 126 71 l 233 829 l 139 849 l 144 900 l 447 900 l 442 849 l 343 829 l 236 71 l 331 51 l 326 0 l 22 0 l 28 51 m 144 1089 q 221 1136 182 1136 q 326 1108 249 1136 l 418 1076 l 529 1128 l 561 1092 l 510 1025 q 433 978 472 978 q 328 1006 401 978 l 236 1038 l 125 986 l 93 1022 l 144 1089 z "},"J":{"ha":553,"x_min":-7,"x_max":571,"o":"m 85 218 l 101 64 q 128 56 107 61 q 174 51 150 51 q 240 68 221 51 q 265 138 258 85 l 357 825 l 236 849 l 242 900 l 571 900 l 565 849 l 467 829 l 375 154 q 311 21 363 61 q 163 -19 260 -19 q 79 -11 117 -19 q 20 6 42 -3 q -7 18 -1 15 l 17 218 l 85 218 z "},"Ĵ":{"ha":553,"x_min":-7,"x_max":633,"o":"m 0 0 m 85 218 l 101 64 q 128 56 107 61 q 174 51 150 51 q 240 68 221 51 q 265 138 258 85 l 357 825 l 236 849 l 242 900 l 571 900 l 565 849 l 467 829 l 375 154 q 311 21 363 61 q 163 -19 260 -19 q 79 -11 117 -19 q 20 6 42 -3 q -7 18 -1 15 l 17 218 l 85 218 m 354 1085 q 404 1124 390 1111 q 427 1140 411 1129 q 449 1155 443 1151 q 460 1158 456 1158 q 508 1126 471 1157 q 550 1090 544 1094 l 633 1014 l 588 957 l 440 1050 l 290 965 l 256 1011 l 354 1085 z "},"K":{"ha":725,"x_min":22,"x_max":800,"o":"m 126 71 l 233 829 l 139 849 l 144 900 l 447 900 l 442 849 l 343 829 l 296 496 l 349 496 l 621 817 l 621 829 l 546 849 l 553 900 l 800 900 l 794 849 l 719 829 l 433 494 l 647 72 l 728 51 l 724 0 l 608 0 q 565 8 579 0 q 538 40 550 17 l 344 431 l 288 431 l 236 71 l 331 51 l 326 0 l 22 0 l 28 51 l 126 71 z "},"Ķ":{"ha":725,"x_min":14,"x_max":792,"o":"m 118 71 l 225 829 l 131 849 l 136 900 l 439 900 l 433 849 l 335 829 l 288 496 l 340 496 l 613 817 l 613 829 l 538 849 l 544 900 l 792 900 l 786 849 l 711 829 l 425 494 l 635 74 l 719 51 l 715 0 l 594 0 q 551 8 565 0 q 524 40 536 17 l 325 431 l 279 431 l 228 71 l 322 51 l 318 0 l 14 0 l 19 51 l 118 71 m 265 -256 q 282 -237 269 -251 q 306 -202 294 -224 q 317 -157 317 -181 q 283 -78 317 -108 q 344 -46 303 -46 q 395 -65 375 -46 q 415 -126 415 -85 q 369 -222 415 -179 q 289 -279 324 -264 l 265 -256 z "},"L":{"ha":614,"x_min":21,"x_max":579,"o":"m 26 51 l 125 71 l 232 829 l 138 849 l 143 900 l 446 900 l 440 849 l 342 829 l 235 71 l 293 64 l 465 64 l 521 211 l 579 211 l 547 0 l 21 0 l 26 51 z "},"Ǉ":{"ha":1167,"x_min":21,"x_max":1185,"o":"m 21 0 m 26 51 l 125 71 l 232 829 l 138 849 l 143 900 l 446 900 l 440 849 l 342 829 l 235 71 l 293 64 l 465 64 l 521 211 l 579 211 l 547 0 l 21 0 l 26 51 m 699 218 l 715 64 q 742 56 721 61 q 788 51 764 51 q 853 68 835 51 q 879 138 872 85 l 971 825 l 850 849 l 856 900 l 1185 900 l 1179 849 l 1081 829 l 989 154 q 925 21 976 61 q 776 -19 874 -19 q 693 -11 731 -19 q 634 6 656 -3 q 607 18 613 15 l 631 218 l 699 218 z "},"Ĺ":{"ha":614,"x_min":14,"x_max":572,"o":"m 178 994 l 411 1161 q 445 1132 432 1151 q 458 1092 458 1113 q 442 1051 458 1067 q 389 1021 425 1035 l 208 946 l 178 994 m 19 51 l 118 71 l 225 829 l 131 849 l 136 900 l 439 900 l 433 849 l 335 829 l 228 71 l 286 64 l 458 64 l 514 211 l 572 211 l 540 0 l 14 0 l 19 51 z "},"Ľ":{"ha":614,"x_min":14,"x_max":633,"o":"m 500 786 q 511 806 503 790 q 527 847 519 821 q 535 904 535 872 q 515 965 535 938 q 575 997 535 997 q 618 981 603 997 q 633 935 633 964 q 613 853 633 889 q 565 794 592 817 q 522 765 539 772 l 500 786 m 19 51 l 118 71 l 225 829 l 131 849 l 136 900 l 439 900 l 433 849 l 335 829 l 228 71 l 286 64 l 458 64 l 514 211 l 572 211 l 540 0 l 14 0 l 19 51 z "},"Ļ":{"ha":614,"x_min":14,"x_max":572,"o":"m 19 51 l 118 71 l 225 829 l 131 849 l 136 900 l 439 900 l 433 849 l 335 829 l 228 71 l 286 64 l 458 64 l 514 211 l 572 211 l 540 0 l 14 0 l 19 51 m 210 -256 q 226 -237 214 -251 q 250 -202 239 -224 q 261 -157 261 -181 q 228 -78 261 -108 q 289 -46 247 -46 q 340 -65 319 -46 q 360 -126 360 -85 q 314 -222 360 -179 q 233 -279 268 -264 l 210 -256 z "},"Ŀ":{"ha":614,"x_min":21,"x_max":588,"o":"m 21 0 m 26 51 l 125 71 l 232 829 l 138 849 l 143 900 l 446 900 l 440 849 l 342 829 l 235 71 l 293 64 l 465 64 l 521 211 l 579 211 l 547 0 l 21 0 l 26 51 m 493 411 q 445 430 464 411 q 426 478 426 449 q 453 551 426 519 q 519 582 479 582 q 569 563 550 582 q 588 515 588 544 q 562 442 588 474 q 493 411 536 411 z "},"ǈ":{"ha":992,"x_min":21,"x_max":951,"o":"m 21 0 m 26 51 l 125 71 l 232 829 l 138 849 l 143 900 l 446 900 l 440 849 l 342 829 l 235 71 l 293 64 l 465 64 l 521 211 l 579 211 l 547 0 l 21 0 l 26 51 m 867 810 q 815 831 835 810 q 796 882 796 851 q 817 946 796 918 q 879 974 839 974 q 931 953 911 974 q 951 899 951 932 q 929 836 951 863 q 867 810 907 810 m 536 -232 q 495 -221 508 -232 q 482 -182 482 -210 q 491 -139 482 -151 q 500 -126 500 -126 l 596 -126 q 647 -122 624 -126 q 676 -110 669 -117 q 704 -69 689 -97 q 726 6 719 -42 l 821 611 l 711 635 l 711 686 l 921 713 l 921 613 l 838 51 q 733 -160 817 -87 q 536 -232 649 -232 z "},"Ł":{"ha":614,"x_min":14,"x_max":572,"o":"m 19 51 l 118 71 l 161 378 l 35 329 l 35 400 l 172 454 l 225 829 l 131 849 l 136 900 l 439 900 l 433 849 l 335 829 l 289 500 l 426 556 l 426 481 l 278 422 l 228 71 l 286 64 l 458 64 l 514 211 l 572 211 l 540 0 l 14 0 l 19 51 z "},"M":{"ha":1056,"x_min":21,"x_max":1047,"o":"m 26 51 l 125 71 l 232 829 l 138 849 l 143 900 l 388 900 l 481 251 l 486 175 l 488 179 l 515 251 l 803 900 l 1047 900 l 1042 849 l 943 829 l 836 71 l 931 51 l 926 0 l 622 0 l 628 51 l 726 71 l 815 713 l 822 758 l 817 758 l 481 0 l 419 0 l 301 758 l 296 758 l 292 726 l 199 71 l 293 51 l 289 0 l 21 0 l 26 51 z "},"N":{"ha":908,"x_min":21,"x_max":915,"o":"m 26 51 l 125 71 l 232 829 l 138 849 l 143 900 l 344 900 l 632 183 l 638 168 l 644 168 l 646 182 l 738 829 l 643 849 l 647 900 l 915 900 l 910 849 l 811 829 l 694 0 l 588 0 l 303 706 l 297 721 l 290 721 l 199 71 l 293 51 l 289 0 l 21 0 l 26 51 z "},"Ǌ":{"ha":1461,"x_min":21,"x_max":1479,"o":"m 21 0 m 26 51 l 125 71 l 232 829 l 138 849 l 143 900 l 344 900 l 632 183 l 638 168 l 644 168 l 646 182 l 738 829 l 643 849 l 647 900 l 915 900 l 910 849 l 811 829 l 694 0 l 588 0 l 303 706 l 297 721 l 290 721 l 199 71 l 293 51 l 289 0 l 21 0 l 26 51 m 993 218 l 1010 64 q 1037 56 1015 61 q 1082 51 1058 51 q 1148 68 1129 51 q 1174 138 1167 85 l 1265 825 l 1144 849 l 1150 900 l 1479 900 l 1474 849 l 1375 829 l 1283 154 q 1219 21 1271 61 q 1071 -19 1168 -19 q 988 -11 1025 -19 q 928 6 950 -3 q 901 18 907 15 l 925 218 l 993 218 z "},"Ń":{"ha":908,"x_min":21,"x_max":915,"o":"m 440 999 l 638 1165 q 721 1096 721 1147 q 704 1055 721 1071 q 651 1025 688 1039 l 471 950 l 440 999 m 26 51 l 125 71 l 232 829 l 138 849 l 143 900 l 344 900 l 632 183 l 638 168 l 644 168 l 646 182 l 738 829 l 643 849 l 647 900 l 915 900 l 910 849 l 811 829 l 694 0 l 588 0 l 303 706 l 297 721 l 290 721 l 199 71 l 293 51 l 289 0 l 21 0 l 26 51 z "},"Ň":{"ha":908,"x_min":21,"x_max":915,"o":"m 424 1160 l 560 1064 l 701 1164 l 736 1118 l 646 1033 q 540 957 565 957 q 456 1025 524 957 l 375 1107 l 424 1160 m 26 51 l 125 71 l 232 829 l 138 849 l 143 900 l 344 900 l 632 183 l 638 168 l 644 168 l 646 182 l 738 829 l 643 849 l 647 900 l 915 900 l 910 849 l 811 829 l 694 0 l 588 0 l 303 706 l 297 721 l 290 721 l 199 71 l 293 51 l 289 0 l 21 0 l 26 51 z "},"Ņ":{"ha":908,"x_min":21,"x_max":915,"o":"m 26 51 l 125 71 l 232 829 l 138 849 l 143 900 l 344 900 l 632 183 l 638 168 l 644 168 l 646 182 l 738 829 l 643 849 l 647 900 l 915 900 l 910 849 l 811 829 l 694 0 l 588 0 l 303 706 l 297 721 l 290 721 l 199 71 l 293 51 l 289 0 l 21 0 l 26 51 m 324 -256 q 340 -237 328 -251 q 364 -202 353 -224 q 375 -157 375 -181 q 342 -78 375 -108 q 403 -46 361 -46 q 453 -65 433 -46 q 474 -126 474 -85 q 428 -222 474 -179 q 347 -279 382 -264 l 324 -256 z "},"Ṅ":{"ha":908,"x_min":21,"x_max":915,"o":"m 21 0 m 26 51 l 125 71 l 232 829 l 138 849 l 143 900 l 344 900 l 632 183 l 638 168 l 644 168 l 646 182 l 738 829 l 643 849 l 647 900 l 915 900 l 910 849 l 811 829 l 694 0 l 588 0 l 303 706 l 297 721 l 290 721 l 199 71 l 293 51 l 289 0 l 21 0 l 26 51 m 546 971 q 494 992 514 971 q 475 1043 475 1013 q 497 1107 475 1079 q 558 1135 518 1135 q 610 1114 590 1135 q 631 1060 631 1093 q 608 997 631 1024 q 546 971 586 971 z "},"Ŋ":{"ha":908,"x_min":21,"x_max":915,"o":"m 915 900 l 910 849 l 811 829 l 701 51 q 598 -160 682 -87 q 400 -232 514 -232 q 359 -221 372 -232 q 346 -182 346 -210 q 355 -139 346 -151 q 364 -126 364 -126 l 460 -126 q 510 -122 488 -126 q 540 -110 533 -117 q 567 -71 553 -97 q 590 1 582 -44 l 307 697 l 297 721 l 290 721 l 199 71 l 293 51 l 289 0 l 21 0 l 26 51 l 125 71 l 232 829 l 138 849 l 143 900 l 344 900 l 622 204 l 638 168 l 644 168 l 650 206 l 738 829 l 643 849 l 647 900 l 915 900 z "},"Ɲ":{"ha":908,"x_min":-129,"x_max":915,"o":"m 915 900 l 910 849 l 811 829 l 694 0 l 588 0 l 307 697 l 297 721 l 290 721 l 199 51 q 146 -106 186 -42 q 49 -201 106 -169 q -71 -232 -8 -232 q -115 -222 -101 -232 q -129 -183 -129 -212 q -120 -140 -129 -151 q -111 -126 -111 -128 l -15 -126 q 65 -106 32 -126 q 115 6 103 -79 l 232 829 l 138 849 l 143 900 l 344 900 l 624 204 l 638 168 l 644 168 l 649 200 l 738 829 l 643 849 l 647 900 l 915 900 z "},"ǋ":{"ha":1286,"x_min":21,"x_max":1246,"o":"m 21 0 m 26 51 l 125 71 l 232 829 l 138 849 l 143 900 l 344 900 l 632 183 l 638 168 l 644 168 l 646 182 l 738 829 l 643 849 l 647 900 l 915 900 l 910 849 l 811 829 l 694 0 l 588 0 l 303 706 l 297 721 l 290 721 l 199 71 l 293 51 l 289 0 l 21 0 l 26 51 m 1161 810 q 1110 831 1129 810 q 1090 882 1090 851 q 1112 946 1090 918 q 1174 974 1133 974 q 1226 953 1206 974 q 1246 899 1246 932 q 1224 836 1246 863 q 1161 810 1201 810 m 831 -232 q 790 -221 803 -232 q 776 -182 776 -210 q 785 -139 776 -151 q 794 -126 794 -126 l 890 -126 q 941 -122 918 -126 q 971 -110 964 -117 q 999 -69 983 -97 q 1021 6 1014 -42 l 1115 611 l 1006 635 l 1006 686 l 1215 713 l 1215 613 l 1132 51 q 1027 -160 1111 -87 q 831 -232 943 -232 z "},"Ñ":{"ha":908,"x_min":21,"x_max":915,"o":"m 383 1089 q 460 1136 421 1136 q 565 1108 488 1136 l 657 1076 l 768 1128 l 800 1092 l 749 1025 q 672 978 711 978 q 567 1006 640 978 l 475 1038 l 364 986 l 332 1022 l 383 1089 m 26 51 l 125 71 l 232 829 l 138 849 l 143 900 l 344 900 l 632 183 l 638 168 l 644 168 l 646 182 l 738 829 l 643 849 l 647 900 l 915 900 l 910 849 l 811 829 l 694 0 l 588 0 l 303 706 l 297 721 l 290 721 l 199 71 l 293 51 l 289 0 l 21 0 l 26 51 z "},"O":{"ha":903,"x_min":61,"x_max":842,"o":"m 382 -15 q 144 80 228 -15 q 61 344 61 175 q 115 628 61 497 q 269 838 168 758 q 510 917 371 917 q 757 823 672 917 q 842 558 842 729 q 791 275 842 406 q 637 65 740 144 q 382 -15 533 -15 m 421 56 q 715 544 715 56 q 662 776 715 706 q 481 846 608 846 q 260 722 332 846 q 188 379 188 597 q 208 194 188 264 q 281 90 229 124 q 421 56 332 56 z "},"Ó":{"ha":903,"x_min":61,"x_max":842,"o":"m 640 1186 q 674 1157 661 1176 q 688 1117 688 1138 q 671 1076 688 1092 q 618 1046 654 1060 l 438 971 l 407 1019 l 640 1186 m 382 -15 q 144 80 228 -15 q 61 344 61 175 q 115 628 61 497 q 269 838 168 758 q 510 917 371 917 q 757 823 672 917 q 842 558 842 729 q 791 275 842 406 q 637 65 740 144 q 382 -15 533 -15 m 421 56 q 715 544 715 56 q 662 776 715 706 q 481 846 608 846 q 260 722 332 846 q 188 379 188 597 q 208 194 188 264 q 281 90 229 124 q 421 56 332 56 z "},"Ŏ":{"ha":903,"x_min":61,"x_max":842,"o":"m 61 0 m 382 -15 q 144 80 228 -15 q 61 344 61 175 q 115 628 61 497 q 269 838 168 758 q 510 917 371 917 q 757 823 672 917 q 842 558 842 729 q 791 275 842 406 q 637 65 740 144 q 382 -15 533 -15 m 421 56 q 715 544 715 56 q 662 776 715 706 q 481 846 608 846 q 260 722 332 846 q 188 379 188 597 q 208 194 188 264 q 281 90 229 124 q 421 56 332 56 m 742 1125 q 708 1078 742 1119 q 618 1001 674 1036 q 493 965 563 965 q 405 985 442 965 q 349 1035 368 1006 q 329 1090 329 1064 q 349 1121 329 1106 q 394 1147 368 1136 q 408 1119 394 1143 q 447 1074 421 1094 q 511 1053 472 1053 q 608 1075 564 1053 q 683 1123 653 1097 q 713 1151 713 1149 l 742 1125 z "},"Ǒ":{"ha":903,"x_min":61,"x_max":842,"o":"m 61 0 m 382 -15 q 144 80 228 -15 q 61 344 61 175 q 115 628 61 497 q 269 838 168 758 q 510 917 371 917 q 757 823 672 917 q 842 558 842 729 q 791 275 842 406 q 637 65 740 144 q 382 -15 533 -15 m 421 56 q 715 544 715 56 q 662 776 715 706 q 481 846 608 846 q 260 722 332 846 q 188 379 188 597 q 208 194 188 264 q 281 90 229 124 q 421 56 332 56 m 519 957 q 435 1025 503 957 l 354 1107 l 403 1160 l 539 1064 l 681 1164 l 715 1118 l 625 1033 q 519 957 544 957 z "},"Ô":{"ha":903,"x_min":61,"x_max":842,"o":"m 457 1110 q 535 1170 517 1157 q 563 1183 553 1183 q 610 1151 574 1182 q 653 1115 647 1119 l 736 1039 l 690 982 l 543 1075 l 393 990 l 358 1036 l 457 1110 m 382 -15 q 144 80 228 -15 q 61 344 61 175 q 115 628 61 497 q 269 838 168 758 q 510 917 371 917 q 757 823 672 917 q 842 558 842 729 q 791 275 842 406 q 637 65 740 144 q 382 -15 533 -15 m 421 56 q 715 544 715 56 q 662 776 715 706 q 481 846 608 846 q 260 722 332 846 q 188 379 188 597 q 208 194 188 264 q 281 90 229 124 q 421 56 332 56 z "},"Ố":{"ha":903,"x_min":61,"x_max":872,"o":"m 61 0 m 382 -15 q 144 80 228 -15 q 61 344 61 175 q 115 628 61 497 q 269 838 168 758 q 510 917 371 917 q 757 823 672 917 q 842 558 842 729 q 791 275 842 406 q 637 65 740 144 q 382 -15 533 -15 m 421 56 q 715 544 715 56 q 662 776 715 706 q 481 846 608 846 q 260 722 332 846 q 188 379 188 597 q 208 194 188 264 q 281 90 229 124 q 421 56 332 56 m 438 1085 q 488 1124 474 1111 q 510 1140 494 1129 q 533 1155 526 1151 q 543 1158 539 1158 q 591 1126 554 1157 q 633 1090 628 1094 l 717 1014 l 671 957 l 524 1050 l 374 965 l 339 1011 l 438 1085 m 592 1172 l 825 1339 q 859 1310 846 1329 q 872 1269 872 1290 q 856 1228 872 1244 q 803 1199 839 1213 l 622 1124 l 592 1172 z "},"Ộ":{"ha":903,"x_min":61,"x_max":842,"o":"m 61 0 m 382 -15 q 144 80 228 -15 q 61 344 61 175 q 115 628 61 497 q 269 838 168 758 q 510 917 371 917 q 757 823 672 917 q 842 558 842 729 q 791 275 842 406 q 637 65 740 144 q 382 -15 533 -15 m 421 56 q 715 544 715 56 q 662 776 715 706 q 481 846 608 846 q 260 722 332 846 q 188 379 188 597 q 208 194 188 264 q 281 90 229 124 q 421 56 332 56 m 375 -231 q 324 -210 343 -231 q 304 -158 304 -189 q 326 -94 304 -122 q 388 -67 347 -67 q 440 -87 419 -67 q 460 -142 460 -108 q 438 -204 460 -178 q 375 -231 415 -231 m 444 1085 q 494 1124 481 1111 q 517 1140 501 1129 q 540 1155 533 1151 q 550 1158 546 1158 q 598 1126 561 1157 q 640 1090 635 1094 l 724 1014 l 678 957 l 531 1050 l 381 965 l 346 1011 l 444 1085 z "},"Ồ":{"ha":903,"x_min":61,"x_max":842,"o":"m 61 0 m 382 -15 q 144 80 228 -15 q 61 344 61 175 q 115 628 61 497 q 269 838 168 758 q 510 917 371 917 q 757 823 672 917 q 842 558 842 729 q 791 275 842 406 q 637 65 740 144 q 382 -15 533 -15 m 421 56 q 715 544 715 56 q 662 776 715 706 q 481 846 608 846 q 260 722 332 846 q 188 379 188 597 q 208 194 188 264 q 281 90 229 124 q 421 56 332 56 m 429 1085 q 479 1124 465 1111 q 502 1140 486 1129 q 524 1155 518 1151 q 535 1158 531 1158 q 583 1126 546 1157 q 625 1090 619 1094 l 708 1014 l 663 957 l 515 1050 l 365 965 l 331 1011 l 429 1085 m 554 1199 q 501 1228 518 1213 q 485 1269 485 1244 q 498 1310 485 1290 q 532 1339 511 1329 l 765 1172 l 735 1124 l 554 1199 z "},"Ổ":{"ha":903,"x_min":61,"x_max":842,"o":"m 61 0 m 382 -15 q 144 80 228 -15 q 61 344 61 175 q 115 628 61 497 q 269 838 168 758 q 510 917 371 917 q 757 823 672 917 q 842 558 842 729 q 791 275 842 406 q 637 65 740 144 q 382 -15 533 -15 m 421 56 q 715 544 715 56 q 662 776 715 706 q 481 846 608 846 q 260 722 332 846 q 188 379 188 597 q 208 194 188 264 q 281 90 229 124 q 421 56 332 56 m 407 1085 q 457 1124 443 1111 q 480 1140 464 1129 q 502 1155 496 1151 q 513 1158 508 1158 q 560 1126 524 1157 q 603 1090 597 1094 l 686 1014 l 640 957 l 493 1050 l 343 965 l 308 1011 l 407 1085 m 633 1103 q 629 1124 629 1114 q 643 1153 629 1140 q 689 1178 657 1167 q 744 1228 744 1199 q 728 1246 744 1239 q 681 1253 713 1253 q 592 1242 639 1253 q 583 1281 583 1260 q 603 1314 583 1300 q 674 1328 624 1328 q 797 1306 753 1328 q 842 1242 842 1283 q 817 1179 842 1206 q 746 1139 792 1153 q 713 1124 721 1132 q 704 1103 706 1115 l 633 1103 z "},"Ỗ":{"ha":903,"x_min":61,"x_max":842,"o":"m 61 0 m 382 -15 q 144 80 228 -15 q 61 344 61 175 q 115 628 61 497 q 269 838 168 758 q 510 917 371 917 q 757 823 672 917 q 842 558 842 729 q 791 275 842 406 q 637 65 740 144 q 382 -15 533 -15 m 421 56 q 715 544 715 56 q 662 776 715 706 q 481 846 608 846 q 260 722 332 846 q 188 379 188 597 q 208 194 188 264 q 281 90 229 124 q 421 56 332 56 m 433 1085 q 483 1124 469 1111 q 506 1140 490 1129 q 528 1155 522 1151 q 539 1158 535 1158 q 587 1126 550 1157 q 629 1090 624 1094 l 713 1014 l 667 957 l 519 1050 l 369 965 l 335 1011 l 433 1085 m 365 1306 q 442 1353 403 1353 q 547 1325 469 1353 l 639 1293 l 750 1344 l 782 1308 l 731 1242 q 654 1194 693 1194 q 549 1222 622 1194 l 457 1254 l 346 1203 l 314 1239 l 365 1306 z "},"Ȍ":{"ha":903,"x_min":61,"x_max":842,"o":"m 61 0 m 382 -15 q 144 80 228 -15 q 61 344 61 175 q 115 628 61 497 q 269 838 168 758 q 510 917 371 917 q 757 823 672 917 q 842 558 842 729 q 791 275 842 406 q 637 65 740 144 q 382 -15 533 -15 m 421 56 q 715 544 715 56 q 662 776 715 706 q 481 846 608 846 q 260 722 332 846 q 188 379 188 597 q 208 194 188 264 q 281 90 229 124 q 421 56 332 56 m 333 1013 q 303 1053 317 1031 q 289 1093 289 1075 q 315 1136 289 1117 q 375 1161 340 1156 l 453 974 l 404 940 l 333 1013 m 546 1013 q 515 1053 529 1031 q 501 1093 501 1075 q 527 1136 501 1117 q 588 1161 553 1156 l 665 974 l 617 940 l 546 1013 z "},"Ö":{"ha":903,"x_min":61,"x_max":842,"o":"m 406 988 q 354 1009 374 988 q 335 1065 335 1031 q 356 1124 335 1100 q 411 1149 378 1149 q 463 1128 443 1149 q 482 1074 482 1108 q 461 1013 482 1038 q 406 988 440 988 m 699 988 q 647 1009 667 988 q 628 1065 628 1031 q 649 1124 628 1100 q 704 1149 671 1149 q 756 1128 736 1149 q 775 1074 775 1108 q 754 1013 775 1038 q 699 988 733 988 m 382 -15 q 144 80 228 -15 q 61 344 61 175 q 115 628 61 497 q 269 838 168 758 q 510 917 371 917 q 757 823 672 917 q 842 558 842 729 q 791 275 842 406 q 637 65 740 144 q 382 -15 533 -15 m 421 56 q 715 544 715 56 q 662 776 715 706 q 481 846 608 846 q 260 722 332 846 q 188 379 188 597 q 208 194 188 264 q 281 90 229 124 q 421 56 332 56 z "},"Ọ":{"ha":903,"x_min":61,"x_max":842,"o":"m 61 0 m 382 -15 q 144 80 228 -15 q 61 344 61 175 q 115 628 61 497 q 269 838 168 758 q 510 917 371 917 q 757 823 672 917 q 842 558 842 729 q 791 275 842 406 q 637 65 740 144 q 382 -15 533 -15 m 421 56 q 715 544 715 56 q 662 776 715 706 q 481 846 608 846 q 260 722 332 846 q 188 379 188 597 q 208 194 188 264 q 281 90 229 124 q 421 56 332 56 m 375 -231 q 324 -210 343 -231 q 304 -158 304 -189 q 326 -94 304 -122 q 388 -67 347 -67 q 440 -87 419 -67 q 460 -142 460 -108 q 438 -204 460 -178 q 375 -231 415 -231 z "},"Ò":{"ha":903,"x_min":61,"x_max":842,"o":"m 447 1046 q 394 1076 411 1060 q 378 1117 378 1092 q 391 1157 378 1138 q 425 1186 404 1176 l 658 1019 l 628 971 l 447 1046 m 382 -15 q 144 80 228 -15 q 61 344 61 175 q 115 628 61 497 q 269 838 168 758 q 510 917 371 917 q 757 823 672 917 q 842 558 842 729 q 791 275 842 406 q 637 65 740 144 q 382 -15 533 -15 m 421 56 q 715 544 715 56 q 662 776 715 706 q 481 846 608 846 q 260 722 332 846 q 188 379 188 597 q 208 194 188 264 q 281 90 229 124 q 421 56 332 56 z "},"Ỏ":{"ha":903,"x_min":61,"x_max":842,"o":"m 61 0 m 382 -15 q 144 80 228 -15 q 61 344 61 175 q 115 628 61 497 q 269 838 168 758 q 510 917 371 917 q 757 823 672 917 q 842 558 842 729 q 791 275 842 406 q 637 65 740 144 q 382 -15 533 -15 m 421 56 q 715 544 715 56 q 662 776 715 706 q 481 846 608 846 q 260 722 332 846 q 188 379 188 597 q 208 194 188 264 q 281 90 229 124 q 421 56 332 56 m 485 940 q 481 961 481 951 q 494 991 481 978 q 540 1015 508 1004 q 596 1065 596 1036 q 580 1083 596 1076 q 532 1090 564 1090 q 443 1079 490 1090 q 435 1118 435 1097 q 455 1151 435 1138 q 525 1165 475 1165 q 649 1143 604 1165 q 693 1079 693 1121 q 668 1017 693 1043 q 597 976 643 990 q 565 961 572 969 q 556 940 557 953 l 485 940 z "},"Ơ":{"ha":903,"x_min":61,"x_max":1042,"o":"m 1042 908 q 992 798 1042 860 q 831 669 942 736 q 842 558 842 614 q 791 275 842 406 q 637 65 740 144 q 382 -15 533 -15 q 144 80 228 -15 q 61 344 61 175 q 115 628 61 497 q 269 838 168 758 q 510 917 371 917 q 710 863 632 917 q 821 710 789 810 q 913 789 876 747 q 950 872 950 831 q 943 899 950 889 q 921 919 936 908 l 921 940 l 997 994 q 1031 962 1019 978 q 1042 908 1042 946 m 421 56 q 715 544 715 56 q 662 776 715 706 q 481 846 608 846 q 260 722 332 846 q 188 379 188 597 q 208 194 188 264 q 281 90 229 124 q 421 56 332 56 z "},"Ớ":{"ha":903,"x_min":61,"x_max":1042,"o":"m 61 0 m 1042 908 q 992 798 1042 860 q 831 669 942 736 q 842 558 842 614 q 791 275 842 406 q 637 65 740 144 q 382 -15 533 -15 q 144 80 228 -15 q 61 344 61 175 q 115 628 61 497 q 269 838 168 758 q 510 917 371 917 q 710 863 632 917 q 821 710 789 810 q 913 789 876 747 q 950 872 950 831 q 943 899 950 889 q 921 919 936 908 l 921 940 l 997 994 q 1031 962 1019 978 q 1042 908 1042 946 m 421 56 q 715 544 715 56 q 662 776 715 706 q 481 846 608 846 q 260 722 332 846 q 188 379 188 597 q 208 194 188 264 q 281 90 229 124 q 421 56 332 56 m 450 994 l 683 1161 q 717 1132 704 1151 q 731 1092 731 1113 q 714 1051 731 1067 q 661 1021 697 1035 l 481 946 l 450 994 z "},"Ợ":{"ha":903,"x_min":61,"x_max":1042,"o":"m 61 0 m 1042 908 q 992 798 1042 860 q 831 669 942 736 q 842 558 842 614 q 791 275 842 406 q 637 65 740 144 q 382 -15 533 -15 q 144 80 228 -15 q 61 344 61 175 q 115 628 61 497 q 269 838 168 758 q 510 917 371 917 q 710 863 632 917 q 821 710 789 810 q 913 789 876 747 q 950 872 950 831 q 943 899 950 889 q 921 919 936 908 l 921 940 l 997 994 q 1031 962 1019 978 q 1042 908 1042 946 m 421 56 q 715 544 715 56 q 662 776 715 706 q 481 846 608 846 q 260 722 332 846 q 188 379 188 597 q 208 194 188 264 q 281 90 229 124 q 421 56 332 56 m 375 -231 q 324 -210 343 -231 q 304 -158 304 -189 q 326 -94 304 -122 q 388 -67 347 -67 q 440 -87 419 -67 q 460 -142 460 -108 q 438 -204 460 -178 q 375 -231 415 -231 z "},"Ờ":{"ha":903,"x_min":61,"x_max":1042,"o":"m 61 0 m 1042 908 q 992 798 1042 860 q 831 669 942 736 q 842 558 842 614 q 791 275 842 406 q 637 65 740 144 q 382 -15 533 -15 q 144 80 228 -15 q 61 344 61 175 q 115 628 61 497 q 269 838 168 758 q 510 917 371 917 q 710 863 632 917 q 821 710 789 810 q 913 789 876 747 q 950 872 950 831 q 943 899 950 889 q 921 919 936 908 l 921 940 l 997 994 q 1031 962 1019 978 q 1042 908 1042 946 m 421 56 q 715 544 715 56 q 662 776 715 706 q 481 846 608 846 q 260 722 332 846 q 188 379 188 597 q 208 194 188 264 q 281 90 229 124 q 421 56 332 56 m 408 1021 q 356 1051 372 1035 q 339 1092 339 1067 q 352 1132 339 1113 q 386 1161 365 1151 l 619 994 l 589 946 l 408 1021 z "},"Ở":{"ha":903,"x_min":61,"x_max":1042,"o":"m 61 0 m 1042 908 q 992 798 1042 860 q 831 669 942 736 q 842 558 842 614 q 791 275 842 406 q 637 65 740 144 q 382 -15 533 -15 q 144 80 228 -15 q 61 344 61 175 q 115 628 61 497 q 269 838 168 758 q 510 917 371 917 q 710 863 632 917 q 821 710 789 810 q 913 789 876 747 q 950 872 950 831 q 943 899 950 889 q 921 919 936 908 l 921 940 l 997 994 q 1031 962 1019 978 q 1042 908 1042 946 m 421 56 q 715 544 715 56 q 662 776 715 706 q 481 846 608 846 q 260 722 332 846 q 188 379 188 597 q 208 194 188 264 q 281 90 229 124 q 421 56 332 56 m 485 940 q 481 961 481 951 q 494 991 481 978 q 540 1015 508 1004 q 596 1065 596 1036 q 580 1083 596 1076 q 532 1090 564 1090 q 443 1079 490 1090 q 435 1118 435 1097 q 455 1151 435 1138 q 525 1165 475 1165 q 649 1143 604 1165 q 693 1079 693 1121 q 668 1017 693 1043 q 597 976 643 990 q 565 961 572 969 q 556 940 557 953 l 485 940 z "},"Ỡ":{"ha":903,"x_min":61,"x_max":1042,"o":"m 61 0 m 1042 908 q 992 798 1042 860 q 831 669 942 736 q 842 558 842 614 q 791 275 842 406 q 637 65 740 144 q 382 -15 533 -15 q 144 80 228 -15 q 61 344 61 175 q 115 628 61 497 q 269 838 168 758 q 510 917 371 917 q 710 863 632 917 q 821 710 789 810 q 913 789 876 747 q 950 872 950 831 q 943 899 950 889 q 921 919 936 908 l 921 940 l 997 994 q 1031 962 1019 978 q 1042 908 1042 946 m 421 56 q 715 544 715 56 q 662 776 715 706 q 481 846 608 846 q 260 722 332 846 q 188 379 188 597 q 208 194 188 264 q 281 90 229 124 q 421 56 332 56 m 351 1089 q 428 1136 389 1136 q 533 1108 456 1136 l 625 1076 l 736 1128 l 768 1092 l 717 1025 q 640 978 679 978 q 535 1006 608 978 l 443 1038 l 332 986 l 300 1022 l 351 1089 z "},"Ő":{"ha":903,"x_min":61,"x_max":842,"o":"m 339 974 l 468 1161 q 536 1100 536 1149 q 513 1057 535 1082 q 468 1013 492 1032 l 378 940 l 339 974 m 551 974 l 681 1161 q 733 1138 717 1154 q 749 1100 749 1121 q 726 1057 747 1082 q 681 1013 704 1032 l 590 940 l 551 974 m 382 -15 q 144 80 228 -15 q 61 344 61 175 q 115 628 61 497 q 269 838 168 758 q 510 917 371 917 q 757 823 672 917 q 842 558 842 729 q 791 275 842 406 q 637 65 740 144 q 382 -15 533 -15 m 421 56 q 715 544 715 56 q 662 776 715 706 q 481 846 608 846 q 260 722 332 846 q 188 379 188 597 q 208 194 188 264 q 281 90 229 124 q 421 56 332 56 z "},"Ȏ":{"ha":903,"x_min":61,"x_max":842,"o":"m 61 0 m 382 -15 q 144 80 228 -15 q 61 344 61 175 q 115 628 61 497 q 269 838 168 758 q 510 917 371 917 q 757 823 672 917 q 842 558 842 729 q 791 275 842 406 q 637 65 740 144 q 382 -15 533 -15 m 421 56 q 715 544 715 56 q 662 776 715 706 q 481 846 608 846 q 260 722 332 846 q 188 379 188 597 q 208 194 188 264 q 281 90 229 124 q 421 56 332 56 m 329 992 q 363 1039 329 997 q 453 1116 397 1081 q 578 1151 508 1151 q 666 1131 629 1151 q 722 1082 703 1111 q 742 1026 742 1053 q 722 996 742 1011 q 676 969 703 981 q 663 998 676 974 q 624 1043 650 1022 q 560 1064 599 1064 q 463 1042 507 1064 q 388 994 418 1019 q 358 965 358 968 l 329 992 z "},"Ō":{"ha":903,"x_min":61,"x_max":842,"o":"m 351 1086 l 743 1086 l 732 999 l 340 999 l 351 1086 m 382 -15 q 144 80 228 -15 q 61 344 61 175 q 115 628 61 497 q 269 838 168 758 q 510 917 371 917 q 757 823 672 917 q 842 558 842 729 q 791 275 842 406 q 637 65 740 144 q 382 -15 533 -15 m 421 56 q 715 544 715 56 q 662 776 715 706 q 481 846 608 846 q 260 722 332 846 q 188 379 188 597 q 208 194 188 264 q 281 90 229 124 q 421 56 332 56 z "},"Ǫ":{"ha":903,"x_min":61,"x_max":842,"o":"m 557 19 q 456 -119 456 -44 q 470 -160 456 -146 q 513 -175 485 -175 q 547 -169 529 -175 q 576 -156 564 -162 q 592 -147 589 -150 l 614 -181 q 592 -199 614 -182 q 538 -231 571 -217 q 468 -246 506 -246 q 364 -158 364 -246 q 388 -78 364 -117 q 453 -10 411 -40 q 382 -15 424 -15 q 144 80 228 -15 q 61 344 61 175 q 115 628 61 497 q 269 838 168 758 q 510 917 371 917 q 757 823 672 917 q 842 558 842 729 q 769 227 842 375 q 557 19 696 79 m 188 379 q 208 194 188 264 q 281 90 229 124 q 421 56 332 56 q 715 544 715 56 q 662 776 715 706 q 481 846 608 846 q 260 722 332 846 q 188 379 188 597 z "},"Ø":{"ha":903,"x_min":61,"x_max":842,"o":"m 168 -93 l 219 21 q 102 144 143 61 q 61 344 61 228 q 115 628 61 497 q 269 838 168 758 q 510 917 371 917 q 625 901 571 917 l 676 1014 l 743 982 l 693 874 q 804 751 767 831 q 842 558 842 671 q 791 275 842 406 q 637 65 740 144 q 382 -15 533 -15 q 292 -6 340 -15 l 238 -126 l 168 -93 m 590 828 q 481 846 540 846 q 262 722 332 846 q 188 379 192 599 q 203 209 188 275 q 258 106 219 143 l 590 828 m 421 56 q 715 544 715 56 q 701 691 715 632 q 653 786 686 750 l 325 68 q 421 56 367 56 z "},"Ǿ":{"ha":903,"x_min":61,"x_max":842,"o":"m 61 0 m 168 -93 l 219 21 q 102 144 143 61 q 61 344 61 228 q 115 628 61 497 q 269 838 168 758 q 510 917 371 917 q 625 901 571 917 l 676 1014 l 743 982 l 693 874 q 804 751 767 831 q 842 558 842 671 q 791 275 842 406 q 637 65 740 144 q 382 -15 533 -15 q 292 -6 340 -15 l 238 -126 l 168 -93 m 590 828 q 481 846 540 846 q 262 722 332 846 q 188 379 192 599 q 203 209 188 275 q 258 106 219 143 l 590 828 m 421 56 q 715 544 715 56 q 701 691 715 632 q 653 786 686 750 l 325 68 q 421 56 367 56 m 367 994 l 600 1161 q 634 1132 621 1151 q 647 1092 647 1113 q 631 1051 647 1067 q 578 1021 614 1035 l 397 946 l 367 994 z "},"Õ":{"ha":903,"x_min":61,"x_max":842,"o":"m 368 1114 q 444 1161 406 1161 q 550 1133 472 1161 l 642 1101 l 753 1153 l 785 1117 l 733 1050 q 657 1003 696 1003 q 551 1031 625 1003 l 460 1063 l 349 1011 l 317 1047 l 368 1114 m 382 -15 q 144 80 228 -15 q 61 344 61 175 q 115 628 61 497 q 269 838 168 758 q 510 917 371 917 q 757 823 672 917 q 842 558 842 729 q 791 275 842 406 q 637 65 740 144 q 382 -15 533 -15 m 421 56 q 715 544 715 56 q 662 776 715 706 q 481 846 608 846 q 260 722 332 846 q 188 379 188 597 q 208 194 188 264 q 281 90 229 124 q 421 56 332 56 z "},"Œ":{"ha":1083,"x_min":49,"x_max":1069,"o":"m 374 0 q 133 89 218 0 q 49 344 49 178 q 104 620 49 493 q 264 824 160 747 q 507 900 368 900 l 1069 900 l 1040 683 l 972 683 l 972 836 l 832 836 l 721 829 l 674 497 l 856 497 l 885 579 l 935 579 l 906 354 l 856 354 l 849 436 l 665 436 l 613 71 q 742 63 663 63 l 883 63 l 936 211 l 994 211 l 968 0 l 374 0 m 413 65 q 504 71 471 65 l 610 826 q 483 839 553 839 q 256 717 332 839 q 175 379 179 594 q 197 197 175 264 q 271 97 219 129 q 413 65 322 65 z "},"P":{"ha":708,"x_min":22,"x_max":708,"o":"m 28 51 l 126 71 l 233 829 l 140 849 l 146 900 l 425 900 q 637 843 565 900 q 708 676 708 786 q 613 451 708 531 q 351 372 518 372 l 329 372 l 329 419 q 530 485 472 419 q 588 660 588 550 q 545 796 588 757 q 413 835 503 835 q 343 828 375 835 l 236 71 l 349 51 l 344 0 l 22 0 l 28 51 z "},"Þ":{"ha":674,"x_min":21,"x_max":660,"o":"m 26 51 l 125 71 l 232 829 l 138 849 l 143 900 l 446 900 l 440 849 l 342 829 l 324 700 l 407 700 q 593 649 526 700 q 660 488 660 599 q 616 338 660 397 q 503 249 572 278 q 356 219 433 219 q 257 228 290 219 l 235 71 l 329 51 l 325 0 l 21 0 l 26 51 m 326 275 q 488 326 438 275 q 539 478 539 378 q 499 603 539 571 q 382 635 458 635 q 313 628 344 635 l 264 282 q 326 275 292 275 z "},"Q":{"ha":903,"x_min":61,"x_max":842,"o":"m 368 -15 q 141 83 221 -11 q 61 344 61 178 q 115 628 61 497 q 269 838 168 758 q 510 917 371 917 q 757 823 672 917 q 842 558 842 729 q 797 290 842 415 q 660 83 751 165 q 435 -12 568 1 l 381 -69 q 450 -83 404 -72 l 688 -137 l 769 -99 l 799 -131 l 743 -203 q 676 -228 725 -228 q 626 -220 658 -228 q 581 -210 593 -212 l 342 -157 l 265 -192 l 236 -156 l 368 -15 m 421 56 q 715 544 715 56 q 662 776 715 706 q 481 846 608 846 q 260 722 332 846 q 188 379 188 597 q 208 194 188 264 q 281 90 229 124 q 421 56 332 56 z "},"R":{"ha":738,"x_min":22,"x_max":714,"o":"m 28 51 l 126 71 l 233 829 l 140 849 l 146 900 l 454 900 q 630 848 568 900 q 692 699 692 796 q 622 518 689 594 q 432 413 554 442 q 477 367 458 394 q 517 294 496 340 l 607 90 l 714 51 l 710 0 l 578 0 q 536 11 556 0 q 508 43 517 22 l 424 238 q 379 331 396 301 q 340 376 363 360 q 281 396 318 392 l 236 71 l 331 51 l 326 0 l 22 0 l 28 51 m 289 456 q 498 510 424 456 q 572 671 572 564 q 542 792 572 751 q 429 833 511 833 q 372 832 394 833 q 343 829 349 831 l 289 456 z "},"Ŕ":{"ha":738,"x_min":22,"x_max":714,"o":"m 324 994 l 557 1161 q 591 1132 578 1151 q 604 1092 604 1113 q 588 1051 604 1067 q 535 1021 571 1035 l 354 946 l 324 994 m 28 51 l 126 71 l 233 829 l 140 849 l 146 900 l 454 900 q 630 848 568 900 q 692 699 692 796 q 622 518 689 594 q 432 413 554 442 q 477 367 458 394 q 517 294 496 340 l 607 90 l 714 51 l 710 0 l 578 0 q 536 11 556 0 q 508 43 517 22 l 424 238 q 379 332 394 304 q 342 376 364 360 q 281 396 319 392 l 236 71 l 331 51 l 326 0 l 22 0 l 28 51 m 289 456 q 498 510 424 456 q 572 671 572 564 q 542 792 572 751 q 429 833 511 833 q 372 832 394 833 q 343 829 349 831 l 289 456 z "},"Ř":{"ha":738,"x_min":22,"x_max":714,"o":"m 428 957 q 343 1025 411 957 l 263 1107 l 311 1160 l 447 1064 l 589 1164 l 624 1118 l 533 1033 q 428 957 453 957 m 28 51 l 126 71 l 233 829 l 140 849 l 146 900 l 454 900 q 630 848 568 900 q 692 699 692 796 q 622 518 689 594 q 432 413 554 442 q 477 367 458 394 q 517 294 496 340 l 607 90 l 714 51 l 710 0 l 578 0 q 536 11 556 0 q 508 43 517 22 l 424 238 q 379 332 394 304 q 342 376 364 360 q 281 396 319 392 l 236 71 l 331 51 l 326 0 l 22 0 l 28 51 m 289 456 q 498 510 424 456 q 572 671 572 564 q 542 792 572 751 q 429 833 511 833 q 372 832 394 833 q 343 829 349 831 l 289 456 z "},"Ŗ":{"ha":738,"x_min":22,"x_max":714,"o":"m 28 51 l 126 71 l 233 829 l 140 849 l 146 900 l 454 900 q 630 848 568 900 q 692 699 692 796 q 622 518 689 594 q 432 413 554 442 q 477 367 458 394 q 517 294 496 340 l 607 90 l 714 51 l 710 0 l 578 0 q 536 11 556 0 q 508 43 517 22 l 424 238 q 379 332 394 304 q 342 376 364 360 q 281 396 319 392 l 236 71 l 331 51 l 326 0 l 22 0 l 28 51 m 289 456 q 498 510 424 456 q 572 671 572 564 q 542 792 572 751 q 429 833 511 833 q 372 832 394 833 q 343 829 349 831 l 289 456 m 301 -256 q 318 -237 306 -251 q 342 -202 331 -224 q 353 -157 353 -181 q 319 -78 353 -108 q 381 -46 339 -46 q 431 -65 411 -46 q 451 -126 451 -85 q 406 -222 451 -179 q 325 -279 360 -264 l 301 -256 z "},"Ȑ":{"ha":738,"x_min":22,"x_max":714,"o":"m 22 0 m 28 51 l 126 71 l 233 829 l 140 849 l 146 900 l 454 900 q 630 848 568 900 q 692 699 692 796 q 622 518 689 594 q 432 413 554 442 q 477 367 458 394 q 517 294 496 340 l 607 90 l 714 51 l 710 0 l 578 0 q 536 11 556 0 q 508 43 517 22 l 424 238 q 379 331 396 301 q 340 376 363 360 q 281 396 318 392 l 236 71 l 331 51 l 326 0 l 22 0 l 28 51 m 289 456 q 498 510 424 456 q 572 671 572 564 q 542 792 572 751 q 429 833 511 833 q 372 832 394 833 q 343 829 349 831 l 289 456 m 268 1013 q 238 1053 251 1031 q 224 1093 224 1075 q 249 1136 224 1117 q 310 1161 275 1156 l 388 974 l 339 940 l 268 1013 m 481 1013 q 450 1053 464 1031 q 436 1093 436 1075 q 462 1136 436 1117 q 522 1161 488 1156 l 600 974 l 551 940 l 481 1013 z "},"Ṛ":{"ha":738,"x_min":22,"x_max":714,"o":"m 22 0 m 28 51 l 126 71 l 233 829 l 140 849 l 146 900 l 454 900 q 630 848 568 900 q 692 699 692 796 q 622 518 689 594 q 432 413 554 442 q 477 367 458 394 q 517 294 496 340 l 607 90 l 714 51 l 710 0 l 578 0 q 536 11 556 0 q 508 43 517 22 l 424 238 q 379 331 396 301 q 340 376 363 360 q 281 396 318 392 l 236 71 l 331 51 l 326 0 l 22 0 l 28 51 m 289 456 q 498 510 424 456 q 572 671 572 564 q 542 792 572 751 q 429 833 511 833 q 372 832 394 833 q 343 829 349 831 l 289 456 m 349 -231 q 297 -210 317 -231 q 278 -158 278 -189 q 299 -94 278 -122 q 361 -67 321 -67 q 413 -87 393 -67 q 433 -142 433 -108 q 411 -204 433 -178 q 349 -231 389 -231 z "},"Ȓ":{"ha":738,"x_min":22,"x_max":714,"o":"m 22 0 m 28 51 l 126 71 l 233 829 l 140 849 l 146 900 l 454 900 q 630 848 568 900 q 692 699 692 796 q 622 518 689 594 q 432 413 554 442 q 477 367 458 394 q 517 294 496 340 l 607 90 l 714 51 l 710 0 l 578 0 q 536 11 556 0 q 508 43 517 22 l 424 238 q 379 331 396 301 q 340 376 363 360 q 281 396 318 392 l 236 71 l 331 51 l 326 0 l 22 0 l 28 51 m 289 456 q 498 510 424 456 q 572 671 572 564 q 542 792 572 751 q 429 833 511 833 q 372 832 394 833 q 343 829 349 831 l 289 456 m 264 992 q 298 1039 264 997 q 388 1116 332 1081 q 513 1151 443 1151 q 601 1131 564 1151 q 657 1082 638 1111 q 676 1026 676 1053 q 657 996 676 1011 q 611 969 638 981 q 598 998 611 974 q 559 1043 585 1022 q 494 1064 533 1064 q 397 1042 442 1064 q 323 994 353 1019 q 293 965 293 968 l 264 992 z "},"S":{"ha":625,"x_min":13,"x_max":600,"o":"m 229 -15 q 101 6 165 -15 q 13 51 36 28 l 35 247 l 103 247 l 118 93 q 167 66 133 76 q 238 56 200 56 q 438 217 438 56 q 401 313 438 268 q 294 417 364 358 q 191 506 226 472 q 128 585 156 540 q 101 681 101 631 q 179 858 101 799 q 389 917 257 917 q 506 907 447 917 q 600 883 564 897 l 576 675 l 515 675 l 504 819 q 440 838 479 831 q 368 846 401 846 q 207 724 207 846 q 247 626 207 672 q 371 508 286 579 q 499 379 456 435 q 543 257 543 324 q 460 58 543 131 q 229 -15 378 -15 z "},"Ś":{"ha":625,"x_min":13,"x_max":600,"o":"m 281 993 l 514 1160 q 548 1131 535 1150 q 561 1090 561 1111 q 544 1049 561 1065 q 492 1019 528 1033 l 311 944 l 281 993 m 229 -15 q 101 6 165 -15 q 13 51 36 28 l 35 247 l 103 247 l 118 93 q 133 82 118 92 q 174 64 147 72 q 238 56 200 56 q 438 217 438 56 q 401 314 438 268 q 292 419 364 360 q 190 508 226 474 q 128 586 154 542 q 101 681 101 631 q 179 858 101 799 q 389 917 257 917 q 506 907 447 917 q 600 883 564 897 l 576 675 l 515 675 l 504 819 q 481 828 500 822 q 432 840 463 835 q 368 846 401 846 q 207 724 207 846 q 230 650 207 686 q 282 586 253 614 q 378 501 311 558 q 500 378 457 435 q 543 257 543 322 q 460 58 543 131 q 229 -15 378 -15 z "},"Ꞌ":{"ha":174,"x_min":47,"x_max":222,"o":"m 47 493 m 104 897 q 179 915 149 915 q 222 878 222 915 q 186 738 222 842 l 103 493 l 47 493 l 104 897 z "},"Š":{"ha":626,"x_min":13,"x_max":601,"o":"m 406 958 q 321 1026 389 958 l 240 1108 l 289 1161 l 425 1065 l 567 1165 l 601 1119 l 511 1035 q 406 958 431 958 m 229 -15 q 101 6 165 -15 q 13 51 36 28 l 35 247 l 103 247 l 118 93 q 167 66 133 76 q 238 56 200 56 q 438 217 438 56 q 399 317 438 271 q 281 428 360 363 q 186 513 221 478 q 126 590 151 547 q 101 681 101 633 q 179 858 101 799 q 389 917 257 917 q 506 907 447 917 q 600 883 564 897 l 576 675 l 515 675 l 504 819 q 440 838 479 831 q 368 846 401 846 q 207 724 207 846 q 244 628 207 674 q 356 521 282 582 q 456 431 419 465 q 517 351 492 396 q 543 257 543 306 q 460 58 543 131 q 229 -15 378 -15 z "},"Ş":{"ha":625,"x_min":13,"x_max":600,"o":"m 211 -260 q 94 -219 147 -260 l 122 -179 q 158 -196 140 -190 q 206 -201 175 -201 q 267 -169 267 -201 q 235 -133 267 -151 l 163 -96 l 163 -68 l 201 -14 q 88 10 143 -10 q 13 51 33 31 l 35 247 l 103 247 l 118 93 q 133 82 118 92 q 174 64 147 72 q 238 56 200 56 q 438 217 438 56 q 403 308 438 265 q 304 408 369 351 q 231 469 294 417 q 135 576 168 522 q 101 681 101 629 q 179 858 101 799 q 389 917 257 917 q 506 907 447 917 q 600 883 564 897 l 576 675 l 515 675 l 504 819 q 481 828 500 822 q 432 840 463 835 q 368 846 401 846 q 207 724 207 846 q 246 628 207 674 q 363 517 285 582 l 392 492 q 503 374 464 429 q 543 257 543 319 q 472 67 543 139 q 269 -14 400 -4 l 269 -40 l 317 -69 q 361 -136 361 -97 q 317 -233 361 -206 q 211 -260 274 -260 z "},"Ŝ":{"ha":625,"x_min":13,"x_max":601,"o":"m 13 0 m 229 -15 q 101 6 165 -15 q 13 51 36 28 l 35 247 l 103 247 l 118 93 q 167 66 133 76 q 238 56 200 56 q 438 217 438 56 q 401 313 438 268 q 294 417 364 358 q 191 506 226 472 q 128 585 156 540 q 101 681 101 631 q 179 858 101 799 q 389 917 257 917 q 506 907 447 917 q 600 883 564 897 l 576 675 l 515 675 l 504 819 q 440 838 479 831 q 368 846 401 846 q 207 724 207 846 q 247 626 207 672 q 371 508 286 579 q 499 379 456 435 q 543 257 543 324 q 460 58 543 131 q 229 -15 378 -15 m 322 1085 q 372 1124 358 1111 q 395 1140 379 1129 q 417 1155 411 1151 q 428 1158 424 1158 q 476 1126 439 1157 q 518 1090 513 1094 l 601 1014 l 556 957 l 408 1050 l 258 965 l 224 1011 l 322 1085 z "},"Ș":{"ha":625,"x_min":13,"x_max":600,"o":"m 229 -15 q 101 6 165 -15 q 13 51 36 28 l 35 247 l 103 247 l 118 93 q 133 82 118 92 q 174 64 147 72 q 238 56 200 56 q 438 217 438 56 q 402 312 438 267 q 299 413 367 357 q 228 472 289 421 q 134 576 167 524 q 101 681 101 629 q 179 858 101 799 q 389 917 257 917 q 506 907 447 917 q 600 883 564 897 l 576 675 l 515 675 l 504 819 q 481 828 500 822 q 432 840 463 835 q 368 846 401 846 q 207 724 207 846 q 231 649 207 686 q 284 585 254 613 q 381 500 314 557 q 501 376 460 431 q 543 257 543 321 q 460 58 543 131 q 229 -15 378 -15 m 144 -256 q 161 -237 149 -251 q 185 -202 174 -224 q 196 -157 196 -181 q 163 -78 196 -108 q 224 -46 182 -46 q 274 -65 254 -46 q 294 -126 294 -85 q 249 -222 294 -179 q 168 -279 203 -264 l 144 -256 z "},"Ṣ":{"ha":625,"x_min":13,"x_max":600,"o":"m 13 0 m 229 -15 q 101 6 165 -15 q 13 51 36 28 l 35 247 l 103 247 l 118 93 q 167 66 133 76 q 238 56 200 56 q 438 217 438 56 q 401 313 438 268 q 294 417 364 358 q 191 506 226 472 q 128 585 156 540 q 101 681 101 631 q 179 858 101 799 q 389 917 257 917 q 506 907 447 917 q 600 883 564 897 l 576 675 l 515 675 l 504 819 q 440 838 479 831 q 368 846 401 846 q 207 724 207 846 q 247 626 207 672 q 371 508 286 579 q 499 379 456 435 q 543 257 543 324 q 460 58 543 131 q 229 -15 378 -15 m 236 -231 q 185 -210 204 -231 q 165 -158 165 -189 q 187 -94 165 -122 q 249 -67 208 -67 q 301 -87 281 -67 q 321 -142 321 -108 q 299 -204 321 -178 q 236 -231 276 -231 z "},"ẞ":{"ha":940,"x_min":-37,"x_max":867,"o":"m 560 -15 q 431 6 496 -15 q 343 51 367 28 l 365 247 l 433 247 l 449 93 q 495 67 463 78 q 568 56 528 56 q 750 199 750 56 q 676 338 750 288 q 485 397 603 388 l 461 458 l 713 794 l 700 818 q 544 835 619 835 q 376 797 439 835 q 283 689 314 758 q 238 514 251 619 l 176 71 l 271 51 l 267 0 l -37 0 l -32 51 l 67 71 l 122 475 q 265 797 150 676 q 572 917 379 917 q 703 909 626 917 q 831 892 781 901 l 867 831 l 606 476 l 610 467 q 788 394 721 450 q 856 239 856 339 q 778 53 856 121 q 560 -15 700 -15 z "},"Ə":{"ha":856,"x_min":61,"x_max":794,"o":"m 358 -15 q 138 80 215 -15 q 61 344 61 175 q 76 500 61 421 l 668 500 l 668 544 q 611 776 668 706 q 417 846 554 846 q 335 837 371 846 q 281 817 300 828 q 258 804 263 807 l 215 669 l 157 669 l 176 858 q 442 917 300 917 q 704 823 614 917 q 794 558 794 729 q 747 275 794 406 q 600 65 699 144 q 358 -15 501 -15 m 397 56 q 663 424 632 56 l 185 424 q 183 379 183 410 q 203 194 183 264 q 269 90 222 124 q 397 56 315 56 z "},"T":{"ha":656,"x_min":47,"x_max":715,"o":"m 131 51 l 229 71 l 336 829 l 161 829 l 110 672 l 47 672 l 74 900 l 715 900 l 676 672 l 604 672 l 614 829 l 446 829 l 339 71 l 433 51 l 429 0 l 125 0 l 131 51 z "},"Ŧ":{"ha":656,"x_min":47,"x_max":715,"o":"m 676 672 l 604 672 l 614 829 l 446 829 l 400 504 l 643 504 l 632 432 l 390 432 l 339 71 l 433 51 l 429 0 l 125 0 l 131 51 l 229 71 l 281 432 l 49 432 l 60 504 l 290 504 l 336 829 l 161 829 l 110 672 l 47 672 l 74 900 l 715 900 l 676 672 z "},"Ť":{"ha":656,"x_min":47,"x_max":715,"o":"m 406 957 q 321 1025 389 957 l 240 1107 l 289 1160 l 425 1064 l 567 1164 l 601 1118 l 511 1033 q 406 957 431 957 m 125 0 l 131 51 l 229 71 l 336 829 l 161 829 l 110 672 l 47 672 l 74 900 l 715 900 l 676 672 l 604 672 l 614 829 l 446 829 l 339 71 l 433 51 l 429 0 l 125 0 z "},"Ţ":{"ha":656,"x_min":47,"x_max":715,"o":"m 151 -179 q 187 -196 169 -190 q 235 -201 204 -201 q 296 -169 296 -201 q 264 -133 296 -151 l 192 -96 l 192 -68 l 242 0 l 125 0 l 131 51 l 229 71 l 336 829 l 161 829 l 110 672 l 47 672 l 74 900 l 715 900 l 676 672 l 604 672 l 614 829 l 446 829 l 339 71 l 433 51 l 429 0 l 299 0 l 299 -40 l 346 -69 q 390 -136 390 -97 q 347 -233 390 -206 q 240 -260 303 -260 q 124 -219 176 -260 l 151 -179 z "},"Ț":{"ha":656,"x_min":47,"x_max":715,"o":"m 131 51 l 229 71 l 336 829 l 161 829 l 110 672 l 47 672 l 74 900 l 715 900 l 676 672 l 604 672 l 614 829 l 446 829 l 339 71 l 433 51 l 429 0 l 125 0 l 131 51 m 176 -256 q 193 -237 181 -251 q 217 -202 206 -224 q 228 -157 228 -181 q 194 -78 228 -108 q 256 -46 214 -46 q 306 -65 286 -46 q 326 -126 326 -85 q 281 -222 326 -179 q 200 -279 235 -264 l 176 -256 z "},"Ṭ":{"ha":656,"x_min":47,"x_max":715,"o":"m 47 0 m 131 51 l 229 71 l 336 829 l 161 829 l 110 672 l 47 672 l 74 900 l 715 900 l 676 672 l 604 672 l 614 829 l 446 829 l 339 71 l 433 51 l 429 0 l 125 0 l 131 51 m 251 -231 q 200 -210 219 -231 q 181 -158 181 -189 q 202 -94 181 -122 q 264 -67 224 -67 q 316 -87 296 -67 q 336 -142 336 -108 q 314 -204 336 -178 q 251 -231 292 -231 z "},"U":{"ha":858,"x_min":82,"x_max":900,"o":"m 82 849 l 88 900 l 392 900 l 386 849 l 285 829 l 222 386 q 213 253 213 313 q 229 144 213 185 q 288 84 246 104 q 408 64 331 64 q 572 144 518 64 q 647 386 625 224 l 708 828 l 615 849 l 621 900 l 900 900 l 894 849 l 793 828 l 733 388 q 674 161 714 249 q 556 29 633 74 q 351 -15 478 -15 q 164 50 228 -15 q 100 231 100 115 q 113 388 100 303 l 175 829 l 82 849 z "},"Ú":{"ha":847,"x_min":82,"x_max":900,"o":"m 397 1008 l 631 1175 q 665 1146 651 1165 q 678 1106 678 1126 q 661 1065 678 1081 q 608 1035 644 1049 l 428 960 l 397 1008 m 351 -15 q 164 50 228 -15 q 100 231 100 115 q 113 388 100 303 l 175 829 l 82 849 l 88 900 l 392 900 l 386 849 l 285 829 l 222 386 q 213 253 213 313 q 229 144 213 185 q 288 84 246 104 q 408 64 331 64 q 572 144 518 64 q 647 386 625 224 l 708 828 l 615 849 l 621 900 l 900 900 l 894 849 l 793 828 l 733 388 q 674 161 714 249 q 556 29 633 74 q 351 -15 478 -15 z "},"Ŭ":{"ha":858,"x_min":82,"x_max":900,"o":"m 82 0 m 82 849 l 88 900 l 392 900 l 386 849 l 285 829 l 222 386 q 213 253 213 313 q 229 144 213 185 q 288 84 246 104 q 408 64 331 64 q 572 144 518 64 q 647 386 625 224 l 708 828 l 615 849 l 621 900 l 900 900 l 894 849 l 793 828 l 733 388 q 674 161 714 249 q 556 29 633 74 q 351 -15 478 -15 q 164 50 228 -15 q 100 231 100 115 q 113 388 100 303 l 175 829 l 82 849 m 736 1125 q 702 1078 736 1119 q 613 1001 668 1036 q 488 965 557 965 q 399 985 436 965 q 343 1035 363 1006 q 324 1090 324 1064 q 343 1121 324 1106 q 389 1147 363 1136 q 402 1119 389 1143 q 441 1074 415 1094 q 506 1053 467 1053 q 603 1075 558 1053 q 677 1123 647 1097 q 707 1151 707 1149 l 736 1125 z "},"Ǔ":{"ha":858,"x_min":82,"x_max":900,"o":"m 82 0 m 82 849 l 88 900 l 392 900 l 386 849 l 285 829 l 222 386 q 213 253 213 313 q 229 144 213 185 q 288 84 246 104 q 408 64 331 64 q 572 144 518 64 q 647 386 625 224 l 708 828 l 615 849 l 621 900 l 900 900 l 894 849 l 793 828 l 733 388 q 674 161 714 249 q 556 29 633 74 q 351 -15 478 -15 q 164 50 228 -15 q 100 231 100 115 q 113 388 100 303 l 175 829 l 82 849 m 514 957 q 429 1025 497 957 l 349 1107 l 397 1160 l 533 1064 l 675 1164 l 710 1118 l 619 1033 q 514 957 539 957 z "},"Û":{"ha":847,"x_min":82,"x_max":900,"o":"m 417 1099 q 467 1138 453 1125 q 490 1154 474 1143 q 512 1169 506 1165 q 522 1172 518 1172 q 570 1140 533 1171 q 613 1104 607 1108 l 696 1028 l 650 971 l 503 1064 l 353 979 l 318 1025 l 417 1099 m 82 849 l 88 900 l 392 900 l 386 849 l 285 829 l 222 386 q 213 253 213 313 q 229 144 213 185 q 288 84 246 104 q 408 64 331 64 q 572 144 518 64 q 647 386 625 224 l 708 828 l 615 849 l 621 900 l 900 900 l 894 849 l 793 828 l 733 388 q 674 161 714 249 q 556 29 633 74 q 351 -15 478 -15 q 164 50 228 -15 q 100 231 100 115 q 113 388 100 303 l 175 829 l 82 849 z "},"Ȕ":{"ha":858,"x_min":82,"x_max":900,"o":"m 82 0 m 82 849 l 88 900 l 392 900 l 386 849 l 285 829 l 222 386 q 213 253 213 313 q 229 144 213 185 q 288 84 246 104 q 408 64 331 64 q 572 144 518 64 q 647 386 625 224 l 708 828 l 615 849 l 621 900 l 900 900 l 894 849 l 793 828 l 733 388 q 674 161 714 249 q 556 29 633 74 q 351 -15 478 -15 q 164 50 228 -15 q 100 231 100 115 q 113 388 100 303 l 175 829 l 82 849 m 328 1013 q 297 1053 311 1031 q 283 1093 283 1075 q 309 1136 283 1117 q 369 1161 335 1156 l 447 974 l 399 940 l 328 1013 m 540 1013 q 510 1053 524 1031 q 496 1093 496 1075 q 522 1136 496 1117 q 582 1161 547 1156 l 660 974 l 611 940 l 540 1013 z "},"Ü":{"ha":847,"x_min":82,"x_max":900,"o":"m 369 976 q 318 998 338 976 q 299 1054 299 1019 q 320 1113 299 1089 q 375 1138 342 1138 q 426 1117 407 1138 q 446 1063 446 1097 q 425 1001 446 1026 q 369 976 404 976 m 663 976 q 611 998 631 976 q 592 1054 592 1019 q 613 1113 592 1089 q 668 1138 635 1138 q 719 1117 700 1138 q 739 1063 739 1097 q 718 1001 739 1026 q 663 976 697 976 m 82 849 l 88 900 l 392 900 l 386 849 l 285 829 l 222 386 q 213 253 213 313 q 229 144 213 185 q 288 84 246 104 q 408 64 331 64 q 572 144 518 64 q 647 386 625 224 l 708 828 l 615 849 l 621 900 l 900 900 l 894 849 l 793 828 l 733 388 q 674 161 714 249 q 556 29 633 74 q 351 -15 478 -15 q 164 50 228 -15 q 100 231 100 115 q 113 388 100 303 l 175 829 l 82 849 z "},"Ǘ":{"ha":858,"x_min":82,"x_max":900,"o":"m 82 0 m 82 849 l 88 900 l 392 900 l 386 849 l 285 829 l 222 386 q 213 253 213 313 q 229 144 213 185 q 288 84 246 104 q 408 64 331 64 q 572 144 518 64 q 647 386 625 224 l 708 828 l 615 849 l 621 900 l 900 900 l 894 849 l 793 828 l 733 388 q 674 161 714 249 q 556 29 633 74 q 351 -15 478 -15 q 164 50 228 -15 q 100 231 100 115 q 113 388 100 303 l 175 829 l 82 849 m 379 976 q 328 998 347 976 q 308 1054 308 1019 q 330 1113 308 1089 q 385 1138 351 1138 q 436 1117 417 1138 q 456 1063 456 1097 q 435 1001 456 1026 q 379 976 414 976 m 672 976 q 621 998 640 976 q 601 1054 601 1019 q 623 1113 601 1089 q 678 1138 644 1138 q 729 1117 710 1138 q 749 1063 749 1097 q 728 1001 749 1026 q 672 976 707 976 m 469 1232 l 703 1399 q 737 1369 724 1389 q 750 1329 750 1350 q 733 1288 750 1304 q 681 1258 717 1272 l 500 1183 l 469 1232 z "},"Ǚ":{"ha":858,"x_min":82,"x_max":900,"o":"m 82 0 m 82 849 l 88 900 l 392 900 l 386 849 l 285 829 l 222 386 q 213 253 213 313 q 229 144 213 185 q 288 84 246 104 q 408 64 331 64 q 572 144 518 64 q 647 386 625 224 l 708 828 l 615 849 l 621 900 l 900 900 l 894 849 l 793 828 l 733 388 q 674 161 714 249 q 556 29 633 74 q 351 -15 478 -15 q 164 50 228 -15 q 100 231 100 115 q 113 388 100 303 l 175 829 l 82 849 m 379 976 q 328 998 347 976 q 308 1054 308 1019 q 330 1113 308 1089 q 385 1138 351 1138 q 436 1117 417 1138 q 456 1063 456 1097 q 435 1001 456 1026 q 379 976 414 976 m 672 976 q 621 998 640 976 q 601 1054 601 1019 q 623 1113 601 1089 q 678 1138 644 1138 q 729 1117 710 1138 q 749 1063 749 1097 q 728 1001 749 1026 q 672 976 707 976 m 539 1194 q 454 1263 522 1194 l 374 1344 l 422 1397 l 558 1301 l 700 1401 l 735 1356 l 644 1271 q 539 1194 564 1194 z "},"Ǜ":{"ha":858,"x_min":82,"x_max":900,"o":"m 82 0 m 82 849 l 88 900 l 392 900 l 386 849 l 285 829 l 222 386 q 213 253 213 313 q 229 144 213 185 q 288 84 246 104 q 408 64 331 64 q 572 144 518 64 q 647 386 625 224 l 708 828 l 615 849 l 621 900 l 900 900 l 894 849 l 793 828 l 733 388 q 674 161 714 249 q 556 29 633 74 q 351 -15 478 -15 q 164 50 228 -15 q 100 231 100 115 q 113 388 100 303 l 175 829 l 82 849 m 379 976 q 328 998 347 976 q 308 1054 308 1019 q 330 1113 308 1089 q 385 1138 351 1138 q 436 1117 417 1138 q 456 1063 456 1097 q 435 1001 456 1026 q 379 976 414 976 m 672 976 q 621 998 640 976 q 601 1054 601 1019 q 623 1113 601 1089 q 678 1138 644 1138 q 729 1117 710 1138 q 749 1063 749 1097 q 728 1001 749 1026 q 672 976 707 976 m 428 1258 q 375 1288 392 1272 q 358 1329 358 1304 q 372 1369 358 1350 q 406 1399 385 1389 l 639 1232 l 608 1183 l 428 1258 z "},"Ǖ":{"ha":858,"x_min":82,"x_max":900,"o":"m 82 0 m 82 849 l 88 900 l 392 900 l 386 849 l 285 829 l 222 386 q 213 253 213 313 q 229 144 213 185 q 288 84 246 104 q 408 64 331 64 q 572 144 518 64 q 647 386 625 224 l 708 828 l 615 849 l 621 900 l 900 900 l 894 849 l 793 828 l 733 388 q 674 161 714 249 q 556 29 633 74 q 351 -15 478 -15 q 164 50 228 -15 q 100 231 100 115 q 113 388 100 303 l 175 829 l 82 849 m 379 976 q 328 998 347 976 q 308 1054 308 1019 q 330 1113 308 1089 q 385 1138 351 1138 q 436 1117 417 1138 q 456 1063 456 1097 q 435 1001 456 1026 q 379 976 414 976 m 672 976 q 621 998 640 976 q 601 1054 601 1019 q 623 1113 601 1089 q 678 1138 644 1138 q 729 1117 710 1138 q 749 1063 749 1097 q 728 1001 749 1026 q 672 976 707 976 m 361 1324 l 753 1324 l 742 1236 l 350 1236 l 361 1324 z "},"Ụ":{"ha":858,"x_min":82,"x_max":900,"o":"m 82 0 m 82 849 l 88 900 l 392 900 l 386 849 l 285 829 l 222 386 q 213 253 213 313 q 229 144 213 185 q 288 84 246 104 q 408 64 331 64 q 572 144 518 64 q 647 386 625 224 l 708 828 l 615 849 l 621 900 l 900 900 l 894 849 l 793 828 l 733 388 q 674 161 714 249 q 556 29 633 74 q 351 -15 478 -15 q 164 50 228 -15 q 100 231 100 115 q 113 388 100 303 l 175 829 l 82 849 m 353 -231 q 301 -210 321 -231 q 282 -158 282 -189 q 303 -94 282 -122 q 365 -67 325 -67 q 417 -87 397 -67 q 438 -142 438 -108 q 415 -204 438 -178 q 353 -231 393 -231 z "},"Ù":{"ha":847,"x_min":82,"x_max":900,"o":"m 390 1035 q 338 1065 354 1049 q 321 1106 321 1081 q 334 1146 321 1126 q 368 1175 347 1165 l 601 1008 l 571 960 l 390 1035 m 82 849 l 88 900 l 392 900 l 386 849 l 285 829 l 222 386 q 213 253 213 313 q 229 144 213 185 q 288 84 246 104 q 408 64 331 64 q 572 144 518 64 q 647 386 625 224 l 708 828 l 615 849 l 621 900 l 900 900 l 894 849 l 793 828 l 733 388 q 674 161 714 249 q 556 29 633 74 q 351 -15 478 -15 q 164 50 228 -15 q 100 231 100 115 q 113 388 100 303 l 175 829 l 82 849 z "},"Ủ":{"ha":858,"x_min":82,"x_max":900,"o":"m 82 0 m 82 849 l 88 900 l 392 900 l 386 849 l 285 829 l 222 386 q 213 253 213 313 q 229 144 213 185 q 288 84 246 104 q 408 64 331 64 q 572 144 518 64 q 647 386 625 224 l 708 828 l 615 849 l 621 900 l 900 900 l 894 849 l 793 828 l 733 388 q 674 161 714 249 q 556 29 633 74 q 351 -15 478 -15 q 164 50 228 -15 q 100 231 100 115 q 113 388 100 303 l 175 829 l 82 849 m 479 940 q 475 961 475 951 q 489 991 475 978 q 535 1015 503 1004 q 590 1065 590 1036 q 574 1083 590 1076 q 526 1090 558 1090 q 438 1079 485 1090 q 429 1118 429 1097 q 449 1151 429 1138 q 519 1165 469 1165 q 643 1143 599 1165 q 688 1079 688 1121 q 663 1017 688 1043 q 592 976 638 990 q 559 961 567 969 q 550 940 551 953 l 479 940 z "},"Ư":{"ha":858,"x_min":82,"x_max":978,"o":"m 978 992 q 935 899 978 950 q 792 815 892 847 l 733 388 q 674 161 714 249 q 556 29 633 74 q 351 -15 478 -15 q 164 50 228 -15 q 100 231 100 115 q 113 388 100 303 l 175 829 l 82 849 l 88 900 l 392 900 l 386 849 l 285 829 l 222 386 q 213 253 213 313 q 229 144 213 185 q 288 84 246 104 q 408 64 331 64 q 572 144 518 64 q 647 386 625 224 l 708 828 l 615 849 l 621 900 l 799 900 q 865 912 844 900 q 886 956 886 924 q 879 982 886 972 q 857 1003 872 992 l 857 1024 l 933 1078 q 967 1045 956 1061 q 978 992 978 1029 z "},"Ứ":{"ha":858,"x_min":82,"x_max":978,"o":"m 82 0 m 978 992 q 935 899 978 950 q 792 815 892 847 l 733 388 q 674 161 714 249 q 556 29 633 74 q 351 -15 478 -15 q 164 50 228 -15 q 100 231 100 115 q 113 388 100 303 l 175 829 l 82 849 l 88 900 l 392 900 l 386 849 l 285 829 l 222 386 q 213 253 213 313 q 229 144 213 185 q 288 84 246 104 q 408 64 331 64 q 572 144 518 64 q 647 386 625 224 l 708 828 l 615 849 l 621 900 l 799 900 q 865 912 844 900 q 886 956 886 924 q 879 982 886 972 q 857 1003 872 992 l 857 1024 l 933 1078 q 967 1045 956 1061 q 978 992 978 1029 m 444 994 l 678 1161 q 712 1132 699 1151 q 725 1092 725 1113 q 708 1051 725 1067 q 656 1021 692 1035 l 475 946 l 444 994 z "},"Ự":{"ha":858,"x_min":82,"x_max":978,"o":"m 82 0 m 978 992 q 935 899 978 950 q 792 815 892 847 l 733 388 q 674 161 714 249 q 556 29 633 74 q 351 -15 478 -15 q 164 50 228 -15 q 100 231 100 115 q 113 388 100 303 l 175 829 l 82 849 l 88 900 l 392 900 l 386 849 l 285 829 l 222 386 q 213 253 213 313 q 229 144 213 185 q 288 84 246 104 q 408 64 331 64 q 572 144 518 64 q 647 386 625 224 l 708 828 l 615 849 l 621 900 l 799 900 q 865 912 844 900 q 886 956 886 924 q 879 982 886 972 q 857 1003 872 992 l 857 1024 l 933 1078 q 967 1045 956 1061 q 978 992 978 1029 m 353 -231 q 301 -210 321 -231 q 282 -158 282 -189 q 303 -94 282 -122 q 365 -67 325 -67 q 417 -87 397 -67 q 438 -142 438 -108 q 415 -204 438 -178 q 353 -231 393 -231 z "},"Ừ":{"ha":858,"x_min":82,"x_max":978,"o":"m 82 0 m 978 992 q 935 899 978 950 q 792 815 892 847 l 733 388 q 674 161 714 249 q 556 29 633 74 q 351 -15 478 -15 q 164 50 228 -15 q 100 231 100 115 q 113 388 100 303 l 175 829 l 82 849 l 88 900 l 392 900 l 386 849 l 285 829 l 222 386 q 213 253 213 313 q 229 144 213 185 q 288 84 246 104 q 408 64 331 64 q 572 144 518 64 q 647 386 625 224 l 708 828 l 615 849 l 621 900 l 799 900 q 865 912 844 900 q 886 956 886 924 q 879 982 886 972 q 857 1003 872 992 l 857 1024 l 933 1078 q 967 1045 956 1061 q 978 992 978 1029 m 403 1021 q 350 1051 367 1035 q 333 1092 333 1067 q 347 1132 333 1113 q 381 1161 360 1151 l 614 994 l 583 946 l 403 1021 z "},"Ử":{"ha":858,"x_min":82,"x_max":978,"o":"m 82 0 m 978 992 q 935 899 978 950 q 792 815 892 847 l 733 388 q 674 161 714 249 q 556 29 633 74 q 351 -15 478 -15 q 164 50 228 -15 q 100 231 100 115 q 113 388 100 303 l 175 829 l 82 849 l 88 900 l 392 900 l 386 849 l 285 829 l 222 386 q 213 253 213 313 q 229 144 213 185 q 288 84 246 104 q 408 64 331 64 q 572 144 518 64 q 647 386 625 224 l 708 828 l 615 849 l 621 900 l 799 900 q 865 912 844 900 q 886 956 886 924 q 879 982 886 972 q 857 1003 872 992 l 857 1024 l 933 1078 q 967 1045 956 1061 q 978 992 978 1029 m 479 940 q 475 961 475 951 q 489 991 475 978 q 535 1015 503 1004 q 590 1065 590 1036 q 574 1083 590 1076 q 526 1090 558 1090 q 438 1079 485 1090 q 429 1118 429 1097 q 449 1151 429 1138 q 519 1165 469 1165 q 643 1143 599 1165 q 688 1079 688 1121 q 663 1017 688 1043 q 592 976 638 990 q 559 961 567 969 q 550 940 551 953 l 479 940 z "},"Ữ":{"ha":858,"x_min":82,"x_max":978,"o":"m 82 0 m 978 992 q 935 899 978 950 q 792 815 892 847 l 733 388 q 674 161 714 249 q 556 29 633 74 q 351 -15 478 -15 q 164 50 228 -15 q 100 231 100 115 q 113 388 100 303 l 175 829 l 82 849 l 88 900 l 392 900 l 386 849 l 285 829 l 222 386 q 213 253 213 313 q 229 144 213 185 q 288 84 246 104 q 408 64 331 64 q 572 144 518 64 q 647 386 625 224 l 708 828 l 615 849 l 621 900 l 799 900 q 865 912 844 900 q 886 956 886 924 q 879 982 886 972 q 857 1003 872 992 l 857 1024 l 933 1078 q 967 1045 956 1061 q 978 992 978 1029 m 346 1089 q 422 1136 383 1136 q 528 1108 450 1136 l 619 1076 l 731 1128 l 763 1092 l 711 1025 q 635 978 674 978 q 529 1006 603 978 l 438 1038 l 326 986 l 294 1022 l 346 1089 z "},"Ű":{"ha":847,"x_min":82,"x_max":900,"o":"m 331 974 l 460 1161 q 528 1100 528 1149 q 505 1057 526 1082 q 460 1013 483 1032 l 369 940 l 331 974 m 543 974 l 672 1161 q 724 1138 708 1154 q 740 1100 740 1121 q 717 1057 739 1082 q 672 1013 696 1032 l 582 940 l 543 974 m 351 -15 q 164 50 228 -15 q 100 231 100 115 q 113 388 100 303 l 175 829 l 82 849 l 88 900 l 392 900 l 386 849 l 285 829 l 222 386 q 213 253 213 313 q 229 144 213 185 q 288 84 246 104 q 408 64 331 64 q 572 144 518 64 q 647 386 625 224 l 708 828 l 615 849 l 621 900 l 900 900 l 894 849 l 793 828 l 733 388 q 674 161 714 249 q 556 29 633 74 q 351 -15 478 -15 z "},"Ȗ":{"ha":858,"x_min":82,"x_max":900,"o":"m 82 0 m 82 849 l 88 900 l 392 900 l 386 849 l 285 829 l 222 386 q 213 253 213 313 q 229 144 213 185 q 288 84 246 104 q 408 64 331 64 q 572 144 518 64 q 647 386 625 224 l 708 828 l 615 849 l 621 900 l 900 900 l 894 849 l 793 828 l 733 388 q 674 161 714 249 q 556 29 633 74 q 351 -15 478 -15 q 164 50 228 -15 q 100 231 100 115 q 113 388 100 303 l 175 829 l 82 849 m 324 992 q 358 1039 324 997 q 447 1116 392 1081 q 572 1151 503 1151 q 660 1131 624 1151 q 717 1082 697 1111 q 736 1026 736 1053 q 717 996 736 1011 q 671 969 697 981 q 658 998 671 974 q 619 1043 644 1022 q 554 1064 593 1064 q 457 1042 501 1064 q 383 994 413 1019 q 353 965 353 968 l 324 992 z "},"Ū":{"ha":847,"x_min":82,"x_max":900,"o":"m 329 1086 l 721 1086 l 708 999 l 318 999 l 329 1086 m 82 849 l 88 900 l 392 900 l 386 849 l 285 829 l 222 386 q 213 253 213 313 q 229 144 213 185 q 288 84 246 104 q 408 64 331 64 q 572 144 518 64 q 647 386 625 224 l 708 828 l 615 849 l 621 900 l 900 900 l 894 849 l 793 828 l 733 388 q 674 161 714 249 q 556 29 633 74 q 351 -15 478 -15 q 164 50 228 -15 q 100 231 100 115 q 113 388 100 303 l 175 829 l 82 849 z "},"Ų":{"ha":847,"x_min":82,"x_max":900,"o":"m 432 -246 q 328 -158 328 -246 q 407 -17 328 -76 l 406 -12 q 351 -15 369 -15 q 164 50 228 -15 q 100 231 100 115 q 113 388 100 303 l 175 829 l 82 849 l 88 900 l 392 900 l 386 849 l 285 829 l 222 386 q 213 253 213 313 q 229 144 213 185 q 288 84 246 104 q 408 64 331 64 q 572 144 518 64 q 647 386 625 224 l 708 828 l 615 849 l 621 900 l 900 900 l 894 849 l 793 828 l 733 388 q 658 131 711 225 q 499 4 604 38 q 444 -47 468 -15 q 419 -119 419 -79 q 434 -160 419 -146 q 476 -175 449 -175 q 510 -169 493 -175 q 540 -156 528 -162 q 556 -147 553 -150 l 578 -181 q 556 -199 578 -182 q 502 -231 535 -217 q 432 -246 469 -246 z "},"Ů":{"ha":847,"x_min":82,"x_max":900,"o":"m 513 919 q 428 944 458 919 q 399 1013 399 969 q 435 1113 399 1071 q 533 1154 471 1154 q 618 1130 589 1154 q 647 1063 647 1106 q 610 962 647 1004 q 513 919 574 919 m 525 981 q 563 999 551 981 q 575 1051 575 1017 q 563 1084 575 1075 q 521 1093 550 1093 q 481 1076 493 1093 q 469 1025 469 1060 q 482 991 469 1001 q 525 981 494 981 m 351 -15 q 164 50 228 -15 q 100 231 100 115 q 113 388 100 303 l 175 829 l 82 849 l 88 900 l 392 900 l 386 849 l 285 829 l 222 386 q 213 253 213 313 q 229 144 213 185 q 288 84 246 104 q 408 64 331 64 q 572 144 518 64 q 647 386 625 224 l 708 828 l 615 849 l 621 900 l 900 900 l 894 849 l 793 828 l 733 388 q 674 161 714 249 q 556 29 633 74 q 351 -15 478 -15 z "},"Ũ":{"ha":858,"x_min":82,"x_max":900,"o":"m 82 0 m 82 849 l 88 900 l 392 900 l 386 849 l 285 829 l 222 386 q 213 253 213 313 q 229 144 213 185 q 288 84 246 104 q 408 64 331 64 q 572 144 518 64 q 647 386 625 224 l 708 828 l 615 849 l 621 900 l 900 900 l 894 849 l 793 828 l 733 388 q 674 161 714 249 q 556 29 633 74 q 351 -15 478 -15 q 164 50 228 -15 q 100 231 100 115 q 113 388 100 303 l 175 829 l 82 849 m 346 1089 q 422 1136 383 1136 q 528 1108 450 1136 l 619 1076 l 731 1128 l 763 1092 l 711 1025 q 635 978 674 978 q 529 1006 603 978 l 438 1038 l 326 986 l 294 1022 l 346 1089 z "},"V":{"ha":694,"x_min":33,"x_max":779,"o":"m 264 -12 l 107 832 l 33 849 l 39 900 l 331 900 l 325 849 l 224 828 l 224 796 l 328 217 l 336 171 l 338 175 l 354 213 l 614 804 l 614 828 l 513 849 l 519 900 l 779 900 l 772 849 l 701 828 l 322 -12 l 264 -12 z "},"W":{"ha":1028,"x_min":15,"x_max":1126,"o":"m 201 -11 l 90 832 l 15 849 l 21 900 l 314 900 l 308 849 l 207 828 l 207 796 l 269 200 l 275 154 l 278 160 l 296 200 l 522 715 l 501 832 l 426 849 l 432 900 l 725 900 l 719 849 l 618 828 l 618 796 l 704 214 l 713 154 l 715 161 l 735 211 l 961 804 l 961 828 l 860 849 l 867 900 l 1126 900 l 1119 849 l 1049 828 l 701 -11 l 640 -11 l 544 597 l 263 -11 l 201 -11 z "},"Ẃ":{"ha":1028,"x_min":15,"x_max":1126,"o":"m 15 0 m 201 -11 l 90 832 l 15 849 l 21 900 l 314 900 l 308 849 l 207 828 l 207 796 l 269 200 l 275 154 l 278 160 l 296 200 l 522 715 l 501 832 l 426 849 l 432 900 l 725 900 l 719 849 l 618 828 l 618 796 l 704 214 l 713 154 l 715 161 l 735 211 l 961 804 l 961 828 l 860 849 l 867 900 l 1126 900 l 1119 849 l 1049 828 l 701 -11 l 640 -11 l 544 597 l 263 -11 l 201 -11 m 529 994 l 763 1161 q 797 1132 783 1151 q 810 1092 810 1113 q 793 1051 810 1067 q 740 1021 776 1035 l 560 946 l 529 994 z "},"Ŵ":{"ha":1028,"x_min":15,"x_max":1126,"o":"m 15 0 m 201 -11 l 90 832 l 15 849 l 21 900 l 314 900 l 308 849 l 207 828 l 207 796 l 269 200 l 275 154 l 278 160 l 296 200 l 522 715 l 501 832 l 426 849 l 432 900 l 725 900 l 719 849 l 618 828 l 618 796 l 704 214 l 713 154 l 715 161 l 735 211 l 961 804 l 961 828 l 860 849 l 867 900 l 1126 900 l 1119 849 l 1049 828 l 701 -11 l 640 -11 l 544 597 l 263 -11 l 201 -11 m 524 1085 q 574 1124 560 1111 q 597 1140 581 1129 q 619 1155 613 1151 q 629 1158 625 1158 q 677 1126 640 1157 q 719 1090 714 1094 l 803 1014 l 757 957 l 610 1050 l 460 965 l 425 1011 l 524 1085 z "},"Ẅ":{"ha":1028,"x_min":15,"x_max":1126,"o":"m 15 0 m 201 -11 l 90 832 l 15 849 l 21 900 l 314 900 l 308 849 l 207 828 l 207 796 l 269 200 l 275 154 l 278 160 l 296 200 l 522 715 l 501 832 l 426 849 l 432 900 l 725 900 l 719 849 l 618 828 l 618 796 l 704 214 l 713 154 l 715 161 l 735 211 l 961 804 l 961 828 l 860 849 l 867 900 l 1126 900 l 1119 849 l 1049 828 l 701 -11 l 640 -11 l 544 597 l 263 -11 l 201 -11 m 464 976 q 413 998 432 976 q 393 1054 393 1019 q 415 1113 393 1089 q 469 1138 436 1138 q 521 1117 501 1138 q 540 1063 540 1097 q 519 1001 540 1026 q 464 976 499 976 m 757 976 q 706 998 725 976 q 686 1054 686 1019 q 708 1113 686 1089 q 763 1138 729 1138 q 814 1117 794 1138 q 833 1063 833 1097 q 813 1001 833 1026 q 757 976 792 976 z "},"Ẁ":{"ha":1028,"x_min":15,"x_max":1126,"o":"m 15 0 m 201 -11 l 90 832 l 15 849 l 21 900 l 314 900 l 308 849 l 207 828 l 207 796 l 269 200 l 275 154 l 278 160 l 296 200 l 522 715 l 501 832 l 426 849 l 432 900 l 725 900 l 719 849 l 618 828 l 618 796 l 704 214 l 713 154 l 715 161 l 735 211 l 961 804 l 961 828 l 860 849 l 867 900 l 1126 900 l 1119 849 l 1049 828 l 701 -11 l 640 -11 l 544 597 l 263 -11 l 201 -11 m 488 1021 q 435 1051 451 1035 q 418 1092 418 1067 q 431 1132 418 1113 q 465 1161 444 1151 l 699 994 l 668 946 l 488 1021 z "},"X":{"ha":722,"x_min":-71,"x_max":767,"o":"m -64 51 l 14 71 l 308 451 l 138 831 l 63 849 l 68 900 l 382 900 l 376 849 l 275 828 l 275 806 l 389 549 l 593 813 l 593 829 l 500 849 l 507 900 l 767 900 l 760 849 l 693 829 l 419 479 l 603 68 l 683 51 l 679 0 l 374 0 l 378 51 l 467 72 l 467 104 l 340 381 l 114 88 l 113 71 l 206 51 l 200 0 l -71 0 l -64 51 z "},"Y":{"ha":667,"x_min":35,"x_max":743,"o":"m 150 51 l 251 71 l 288 329 l 110 832 l 35 849 l 40 900 l 336 900 l 331 849 l 229 828 l 229 796 l 364 407 l 379 407 l 578 804 l 578 828 l 476 849 l 483 900 l 743 900 l 736 849 l 665 828 l 394 322 l 360 71 l 454 51 l 450 0 l 146 0 l 150 51 z "},"Ý":{"ha":667,"x_min":28,"x_max":736,"o":"m 303 1008 l 536 1175 q 570 1146 557 1165 q 583 1106 583 1126 q 567 1065 583 1081 q 514 1035 550 1049 l 333 960 l 303 1008 m 139 0 l 143 51 l 244 71 l 281 329 l 103 832 l 28 849 l 33 900 l 326 900 l 321 849 l 219 828 l 219 796 l 350 407 l 365 407 l 571 804 l 571 828 l 469 849 l 476 900 l 736 900 l 729 849 l 658 828 l 390 336 l 353 71 l 447 51 l 443 0 l 139 0 z "},"Ŷ":{"ha":667,"x_min":35,"x_max":743,"o":"m 35 0 m 150 51 l 251 71 l 288 329 l 110 832 l 35 849 l 40 900 l 336 900 l 331 849 l 229 828 l 229 796 l 364 407 l 379 407 l 578 804 l 578 828 l 476 849 l 483 900 l 743 900 l 736 849 l 665 828 l 394 322 l 360 71 l 454 51 l 450 0 l 146 0 l 150 51 m 342 1085 q 392 1124 378 1111 q 415 1140 399 1129 q 437 1155 431 1151 q 447 1158 443 1158 q 495 1126 458 1157 q 538 1090 532 1094 l 621 1014 l 575 957 l 428 1050 l 278 965 l 243 1011 l 342 1085 z "},"Ÿ":{"ha":667,"x_min":28,"x_max":736,"o":"m 275 976 q 224 998 243 976 q 204 1054 204 1019 q 226 1113 204 1089 q 281 1138 247 1138 q 332 1117 313 1138 q 351 1063 351 1097 q 331 1001 351 1026 q 275 976 310 976 m 568 976 q 517 998 536 976 q 497 1054 497 1019 q 519 1113 497 1089 q 574 1138 540 1138 q 625 1117 606 1138 q 644 1063 644 1097 q 624 1001 644 1026 q 568 976 603 976 m 143 51 l 244 71 l 281 329 l 103 832 l 28 849 l 33 900 l 326 900 l 321 849 l 219 828 l 219 796 l 350 407 l 365 407 l 571 804 l 571 828 l 469 849 l 476 900 l 736 900 l 729 849 l 658 828 l 390 336 l 353 71 l 447 51 l 443 0 l 139 0 l 143 51 z "},"Ỵ":{"ha":667,"x_min":35,"x_max":743,"o":"m 35 0 m 150 51 l 251 71 l 288 329 l 110 832 l 35 849 l 40 900 l 336 900 l 331 849 l 229 828 l 229 796 l 364 407 l 379 407 l 578 804 l 578 828 l 476 849 l 483 900 l 743 900 l 736 849 l 665 828 l 394 322 l 360 71 l 454 51 l 450 0 l 146 0 l 150 51 m 268 -231 q 217 -210 236 -231 q 197 -158 197 -189 q 219 -94 197 -122 q 281 -67 240 -67 q 333 -87 313 -67 q 353 -142 353 -108 q 331 -204 353 -178 q 268 -231 308 -231 z "},"Ỳ":{"ha":667,"x_min":35,"x_max":743,"o":"m 35 0 m 150 51 l 251 71 l 288 329 l 110 832 l 35 849 l 40 900 l 336 900 l 331 849 l 229 828 l 229 796 l 364 407 l 379 407 l 578 804 l 578 828 l 476 849 l 483 900 l 743 900 l 736 849 l 665 828 l 394 322 l 360 71 l 454 51 l 450 0 l 146 0 l 150 51 m 306 1021 q 253 1051 269 1035 q 236 1092 236 1067 q 249 1132 236 1113 q 283 1161 263 1151 l 517 994 l 486 946 l 306 1021 z "},"Ỷ":{"ha":667,"x_min":35,"x_max":743,"o":"m 35 0 m 150 51 l 251 71 l 288 329 l 110 832 l 35 849 l 40 900 l 336 900 l 331 849 l 229 828 l 229 796 l 364 407 l 379 407 l 578 804 l 578 828 l 476 849 l 483 900 l 743 900 l 736 849 l 665 828 l 394 322 l 360 71 l 454 51 l 450 0 l 146 0 l 150 51 m 382 940 q 378 961 378 951 q 392 991 378 978 q 438 1015 406 1004 q 493 1065 493 1036 q 477 1083 493 1076 q 429 1090 461 1090 q 340 1079 388 1090 q 332 1118 332 1097 q 352 1151 332 1138 q 422 1165 372 1165 q 546 1143 501 1165 q 590 1079 590 1121 q 565 1017 590 1043 q 494 976 540 990 q 462 961 469 969 q 453 940 454 953 l 382 940 z "},"Ȳ":{"ha":667,"x_min":35,"x_max":743,"o":"m 35 0 m 150 51 l 251 71 l 288 329 l 110 832 l 35 849 l 40 900 l 336 900 l 331 849 l 229 828 l 229 796 l 364 407 l 379 407 l 578 804 l 578 828 l 476 849 l 483 900 l 743 900 l 736 849 l 665 828 l 394 322 l 360 71 l 454 51 l 450 0 l 146 0 l 150 51 m 239 1086 l 631 1086 l 619 999 l 228 999 l 239 1086 z "},"Ỹ":{"ha":667,"x_min":35,"x_max":743,"o":"m 35 0 m 150 51 l 251 71 l 288 329 l 110 832 l 35 849 l 40 900 l 336 900 l 331 849 l 229 828 l 229 796 l 364 407 l 379 407 l 578 804 l 578 828 l 476 849 l 483 900 l 743 900 l 736 849 l 665 828 l 394 322 l 360 71 l 454 51 l 450 0 l 146 0 l 150 51 m 249 1089 q 325 1136 286 1136 q 431 1108 353 1136 l 522 1076 l 633 1128 l 665 1092 l 614 1025 q 538 978 576 978 q 432 1006 506 978 l 340 1038 l 229 986 l 197 1022 l 249 1089 z "},"Z":{"ha":681,"x_min":-12,"x_max":692,"o":"m -12 61 l 538 803 l 521 833 l 204 833 l 147 689 l 86 689 l 117 900 l 656 900 l 692 839 l 132 79 l 139 63 l 497 63 l 554 207 l 615 207 l 588 0 l 11 0 l -12 61 z "},"Ź":{"ha":681,"x_min":-18,"x_max":686,"o":"m 297 994 l 531 1161 q 565 1132 551 1151 q 578 1092 578 1113 q 561 1051 578 1067 q 508 1021 544 1035 l 328 946 l 297 994 m 6 0 l -18 61 l 532 803 l 515 833 l 199 833 l 142 689 l 81 689 l 111 900 l 650 900 l 686 839 l 126 79 l 133 63 l 492 63 l 549 207 l 610 207 l 582 0 l 6 0 z "},"Ž":{"ha":681,"x_min":-18,"x_max":686,"o":"m 418 957 q 333 1025 401 957 l 253 1107 l 301 1160 l 438 1064 l 579 1164 l 614 1118 l 524 1033 q 418 957 443 957 m 6 0 l -18 61 l 532 803 l 515 833 l 199 833 l 142 689 l 81 689 l 111 900 l 650 900 l 686 839 l 126 79 l 133 63 l 492 63 l 549 207 l 610 207 l 582 0 l 6 0 z "},"Ż":{"ha":681,"x_min":-18,"x_max":686,"o":"m 392 971 q 340 992 360 971 q 321 1043 321 1013 q 342 1107 321 1079 q 404 1135 364 1135 q 456 1114 436 1135 q 476 1060 476 1093 q 454 997 476 1024 q 392 971 432 971 m -18 61 l 532 803 l 515 833 l 199 833 l 142 689 l 81 689 l 111 900 l 650 900 l 686 839 l 126 79 l 133 63 l 492 63 l 549 207 l 610 207 l 582 0 l 6 0 l -18 61 z "},"Ẓ":{"ha":681,"x_min":-12,"x_max":692,"o":"m 0 0 m -12 61 l 538 803 l 521 833 l 204 833 l 147 689 l 86 689 l 117 900 l 656 900 l 692 839 l 132 79 l 139 63 l 497 63 l 554 207 l 615 207 l 588 0 l 11 0 l -12 61 m 264 -231 q 213 -210 232 -231 q 193 -158 193 -189 q 215 -94 193 -122 q 276 -67 236 -67 q 328 -87 308 -67 q 349 -142 349 -108 q 326 -204 349 -178 q 264 -231 304 -231 z "},"a":{"ha":686,"x_min":56,"x_max":617,"o":"m 426 147 q 334 35 390 82 q 219 -12 278 -12 q 56 208 56 -12 q 90 410 56 290 q 194 622 124 531 q 368 713 265 713 q 456 698 413 713 q 526 669 500 683 l 561 718 l 614 718 l 515 92 l 617 92 l 617 38 q 592 24 611 35 q 542 4 572 14 q 483 -6 513 -6 q 422 13 438 -6 q 406 64 406 31 q 431 144 406 93 l 426 147 m 490 569 q 315 629 401 629 q 269 613 282 629 q 199 449 226 551 q 171 238 171 347 q 188 110 171 150 q 253 69 204 69 q 343 113 296 69 q 429 214 390 157 l 490 569 z "},"á":{"ha":690,"x_min":56,"x_max":617,"o":"m 329 821 l 522 1018 q 581 946 581 999 q 506 867 581 913 l 365 776 l 329 821 m 219 -12 q 56 208 56 -12 q 90 410 56 290 q 194 622 124 531 q 368 713 265 713 q 458 697 413 713 q 526 669 503 682 l 561 718 l 614 718 l 515 92 l 617 92 l 617 38 q 592 24 611 35 q 542 4 572 14 q 483 -6 513 -6 q 422 13 438 -6 q 406 64 406 31 q 431 144 406 93 l 426 147 q 334 35 390 82 q 219 -12 278 -12 m 253 69 q 343 113 296 69 q 429 214 390 157 l 490 569 q 315 629 401 629 q 269 613 282 629 q 199 449 226 551 q 171 238 171 347 q 188 110 171 150 q 253 69 204 69 z "},"ă":{"ha":690,"x_min":56,"x_max":621,"o":"m 399 789 q 306 812 343 789 q 249 868 268 835 q 231 932 231 901 q 244 965 231 951 q 278 985 257 979 q 318 992 299 992 q 343 906 322 939 q 424 872 364 872 q 507 899 469 872 q 568 958 544 926 q 592 993 592 989 l 621 968 q 597 913 621 958 q 524 828 574 868 q 399 789 475 789 m 219 -12 q 56 208 56 -12 q 90 410 56 290 q 194 622 124 531 q 368 713 265 713 q 458 697 413 713 q 526 669 503 682 l 561 718 l 614 718 l 515 92 l 617 92 l 617 38 q 592 24 611 35 q 542 4 572 14 q 483 -6 513 -6 q 422 13 438 -6 q 406 64 406 31 q 431 144 406 93 l 426 147 q 334 35 390 82 q 219 -12 278 -12 m 253 69 q 343 113 296 69 q 429 214 390 157 l 490 569 q 315 629 401 629 q 269 613 282 629 q 199 449 226 551 q 171 238 171 347 q 188 110 171 150 q 253 69 204 69 z "},"ắ":{"ha":686,"x_min":56,"x_max":642,"o":"m 56 0 m 426 147 q 334 35 390 82 q 219 -12 278 -12 q 56 208 56 -12 q 90 410 56 290 q 194 622 124 531 q 368 713 265 713 q 456 698 413 713 q 526 669 500 683 l 561 718 l 614 718 l 515 92 l 617 92 l 617 38 q 592 24 611 35 q 542 4 572 14 q 483 -6 513 -6 q 422 13 438 -6 q 406 64 406 31 q 431 144 406 93 l 426 147 m 490 569 q 315 629 401 629 q 269 613 282 629 q 199 449 226 551 q 171 238 171 347 q 188 110 171 150 q 253 69 204 69 q 343 113 296 69 q 429 214 390 157 l 490 569 m 400 789 q 307 812 344 789 q 251 868 269 835 q 232 932 232 901 q 243 963 232 949 q 277 984 256 976 q 319 992 299 992 q 344 906 324 939 q 425 872 365 872 q 508 899 471 872 q 569 958 546 926 q 593 993 593 989 l 622 968 q 599 913 622 958 q 526 828 575 868 q 400 789 476 789 m 390 1031 l 583 1228 q 642 1156 642 1208 q 567 1076 642 1122 l 426 986 l 390 1031 z "},"ặ":{"ha":686,"x_min":56,"x_max":617,"o":"m 56 0 m 426 147 q 334 35 390 82 q 219 -12 278 -12 q 56 208 56 -12 q 90 410 56 290 q 194 622 124 531 q 368 713 265 713 q 456 698 413 713 q 526 669 500 683 l 561 718 l 614 718 l 515 92 l 617 92 l 617 38 q 592 24 611 35 q 542 4 572 14 q 483 -6 513 -6 q 422 13 438 -6 q 406 64 406 31 q 431 144 406 93 l 426 147 m 490 569 q 315 629 401 629 q 269 613 282 629 q 199 449 226 551 q 171 238 171 347 q 188 110 171 150 q 253 69 204 69 q 343 113 296 69 q 429 214 390 157 l 490 569 m 267 -231 q 215 -210 235 -231 q 196 -158 196 -189 q 217 -94 196 -122 q 279 -67 239 -67 q 331 -87 311 -67 q 351 -142 351 -108 q 329 -204 351 -178 q 267 -231 307 -231 m 393 789 q 300 812 338 789 q 244 868 263 835 q 225 932 225 901 q 236 963 225 949 q 270 984 249 976 q 313 992 292 992 q 338 906 317 939 q 418 872 358 872 q 501 899 464 872 q 563 958 539 926 q 586 993 586 989 l 615 968 q 592 913 615 958 q 519 828 568 868 q 393 789 469 789 z "},"ằ":{"ha":686,"x_min":56,"x_max":632,"o":"m 56 0 m 426 147 q 334 35 390 82 q 219 -12 278 -12 q 56 208 56 -12 q 90 410 56 290 q 194 622 124 531 q 368 713 265 713 q 456 698 413 713 q 526 669 500 683 l 561 718 l 614 718 l 515 92 l 617 92 l 617 38 q 592 24 611 35 q 542 4 572 14 q 483 -6 513 -6 q 422 13 438 -6 q 406 64 406 31 q 431 144 406 93 l 426 147 m 490 569 q 315 629 401 629 q 269 613 282 629 q 199 449 226 551 q 171 238 171 347 q 188 110 171 150 q 253 69 204 69 q 343 113 296 69 q 429 214 390 157 l 490 569 m 410 789 q 317 812 354 789 q 260 868 279 835 q 242 932 242 901 q 253 963 242 949 q 287 984 265 976 q 329 992 308 992 q 354 906 333 939 q 435 872 375 872 q 518 899 481 872 q 579 958 556 926 q 603 993 603 989 l 632 968 q 608 913 632 958 q 535 828 585 868 q 410 789 486 789 m 364 1076 q 289 1156 289 1122 q 347 1228 289 1208 l 540 1031 l 504 986 l 364 1076 z "},"ẳ":{"ha":686,"x_min":56,"x_max":631,"o":"m 56 0 m 426 147 q 334 35 390 82 q 219 -12 278 -12 q 56 208 56 -12 q 90 410 56 290 q 194 622 124 531 q 368 713 265 713 q 456 698 413 713 q 526 669 500 683 l 561 718 l 614 718 l 515 92 l 617 92 l 617 38 q 592 24 611 35 q 542 4 572 14 q 483 -6 513 -6 q 422 13 438 -6 q 406 64 406 31 q 431 144 406 93 l 426 147 m 490 569 q 315 629 401 629 q 269 613 282 629 q 199 449 226 551 q 171 238 171 347 q 188 110 171 150 q 253 69 204 69 q 343 113 296 69 q 429 214 390 157 l 490 569 m 408 789 q 315 812 353 789 q 259 868 278 835 q 240 932 240 901 q 251 963 240 949 q 285 984 264 976 q 328 992 307 992 q 353 906 332 939 q 433 872 374 872 q 517 899 479 872 q 578 958 554 926 q 601 993 601 989 l 631 968 q 607 913 631 958 q 534 828 583 868 q 408 789 485 789 m 411 954 q 404 992 404 979 q 418 1026 404 1013 q 465 1054 432 1040 q 509 1081 497 1069 q 521 1108 521 1092 q 506 1133 521 1125 q 458 1140 492 1140 q 368 1129 417 1140 q 361 1161 361 1144 q 381 1203 361 1192 q 451 1215 400 1215 q 574 1190 531 1215 q 617 1115 617 1164 q 593 1056 617 1079 q 522 1013 569 1032 q 485 991 493 1000 q 478 961 478 982 l 411 954 z "},"ẵ":{"ha":686,"x_min":56,"x_max":656,"o":"m 56 0 m 426 147 q 334 35 390 82 q 219 -12 278 -12 q 56 208 56 -12 q 90 410 56 290 q 194 622 124 531 q 368 713 265 713 q 456 698 413 713 q 526 669 500 683 l 561 718 l 614 718 l 515 92 l 617 92 l 617 38 q 592 24 611 35 q 542 4 572 14 q 483 -6 513 -6 q 422 13 438 -6 q 406 64 406 31 q 431 144 406 93 l 426 147 m 490 569 q 315 629 401 629 q 269 613 282 629 q 199 449 226 551 q 171 238 171 347 q 188 110 171 150 q 253 69 204 69 q 343 113 296 69 q 429 214 390 157 l 490 569 m 381 789 q 288 812 325 789 q 231 868 250 835 q 213 932 213 901 q 224 963 213 949 q 258 984 236 976 q 300 992 279 992 q 325 906 304 939 q 406 872 346 872 q 489 899 451 872 q 550 958 526 926 q 574 993 574 989 l 603 968 q 579 913 603 958 q 506 828 556 868 q 381 789 457 789 m 532 1050 q 444 1072 503 1050 l 351 1104 l 253 1056 l 226 1082 l 275 1144 q 313 1183 296 1171 q 349 1196 329 1196 q 400 1185 369 1196 q 438 1174 431 1175 l 531 1142 l 629 1190 l 656 1164 l 607 1106 q 567 1064 583 1078 q 532 1050 551 1050 z "},"ǎ":{"ha":686,"x_min":56,"x_max":617,"o":"m 56 0 m 426 147 q 334 35 390 82 q 219 -12 278 -12 q 56 208 56 -12 q 90 410 56 290 q 194 622 124 531 q 368 713 265 713 q 456 698 413 713 q 526 669 500 683 l 561 718 l 614 718 l 515 92 l 617 92 l 617 38 q 592 24 611 35 q 542 4 572 14 q 483 -6 513 -6 q 422 13 438 -6 q 406 64 406 31 q 431 144 406 93 l 426 147 m 490 569 q 315 629 401 629 q 269 613 282 629 q 199 449 226 551 q 171 238 171 347 q 188 110 171 150 q 253 69 204 69 q 343 113 296 69 q 429 214 390 157 l 490 569 m 282 1015 l 415 901 l 571 1013 l 607 971 l 465 838 q 442 815 457 831 q 415 790 426 799 q 396 781 403 781 q 380 789 389 781 q 362 808 371 797 q 346 826 353 818 l 236 967 l 282 1015 z "},"â":{"ha":690,"x_min":56,"x_max":617,"o":"m 421 890 l 267 785 l 226 824 l 369 958 q 401 990 376 965 q 439 1015 426 1015 q 455 1007 446 1015 q 473 988 464 999 q 489 969 482 978 l 600 829 l 558 781 l 421 890 m 219 -12 q 56 208 56 -12 q 90 410 56 290 q 194 622 124 531 q 368 713 265 713 q 458 697 413 713 q 526 669 503 682 l 561 718 l 614 718 l 515 92 l 617 92 l 617 38 q 592 24 611 35 q 542 4 572 14 q 483 -6 513 -6 q 422 13 438 -6 q 406 64 406 31 q 431 144 406 93 l 426 147 q 334 35 390 82 q 219 -12 278 -12 m 253 69 q 343 113 296 69 q 429 214 390 157 l 490 569 q 315 629 401 629 q 269 613 282 629 q 199 449 226 551 q 171 238 171 347 q 188 110 171 150 q 253 69 204 69 z "},"ấ":{"ha":686,"x_min":56,"x_max":731,"o":"m 56 0 m 426 147 q 334 35 390 82 q 219 -12 278 -12 q 56 208 56 -12 q 90 410 56 290 q 194 622 124 531 q 368 713 265 713 q 456 698 413 713 q 526 669 500 683 l 561 718 l 614 718 l 515 92 l 617 92 l 617 38 q 592 24 611 35 q 542 4 572 14 q 483 -6 513 -6 q 422 13 438 -6 q 406 64 406 31 q 431 144 406 93 l 426 147 m 490 569 q 315 629 401 629 q 269 613 282 629 q 199 449 226 551 q 171 238 171 347 q 188 110 171 150 q 253 69 204 69 q 343 113 296 69 q 429 214 390 157 l 490 569 m 371 890 l 217 785 l 176 824 l 319 958 q 351 990 326 965 q 389 1015 376 1015 q 405 1007 396 1015 q 423 988 414 999 q 439 969 432 978 l 550 829 l 508 781 l 371 890 m 479 992 l 672 1189 q 731 1117 731 1169 q 656 1038 731 1083 l 515 947 l 479 992 z "},"ậ":{"ha":686,"x_min":56,"x_max":617,"o":"m 56 0 m 426 147 q 334 35 390 82 q 219 -12 278 -12 q 56 208 56 -12 q 90 410 56 290 q 194 622 124 531 q 368 713 265 713 q 456 698 413 713 q 526 669 500 683 l 561 718 l 614 718 l 515 92 l 617 92 l 617 38 q 592 24 611 35 q 542 4 572 14 q 483 -6 513 -6 q 422 13 438 -6 q 406 64 406 31 q 431 144 406 93 l 426 147 m 490 569 q 315 629 401 629 q 269 613 282 629 q 199 449 226 551 q 171 238 171 347 q 188 110 171 150 q 253 69 204 69 q 343 113 296 69 q 429 214 390 157 l 490 569 m 267 -231 q 215 -210 235 -231 q 196 -158 196 -189 q 217 -94 196 -122 q 279 -67 239 -67 q 331 -87 311 -67 q 351 -142 351 -108 q 329 -204 351 -178 q 267 -231 307 -231 m 415 890 l 261 785 l 221 824 l 364 958 q 396 990 371 965 q 433 1015 421 1015 q 449 1007 440 1015 q 467 988 458 999 q 483 969 476 978 l 594 829 l 553 781 l 415 890 z "},"ầ":{"ha":686,"x_min":56,"x_max":656,"o":"m 56 0 m 426 147 q 334 35 390 82 q 219 -12 278 -12 q 56 208 56 -12 q 90 410 56 290 q 194 622 124 531 q 368 713 265 713 q 456 698 413 713 q 526 669 500 683 l 561 718 l 614 718 l 515 92 l 617 92 l 617 38 q 592 24 611 35 q 542 4 572 14 q 483 -6 513 -6 q 422 13 438 -6 q 406 64 406 31 q 431 144 406 93 l 426 147 m 490 569 q 315 629 401 629 q 269 613 282 629 q 199 449 226 551 q 171 238 171 347 q 188 110 171 150 q 253 69 204 69 q 343 113 296 69 q 429 214 390 157 l 490 569 m 407 890 l 253 785 l 213 824 l 356 958 q 388 990 363 965 q 425 1015 413 1015 q 441 1007 432 1015 q 459 988 450 999 q 475 969 468 978 l 586 829 l 544 781 l 407 890 m 479 1038 q 404 1117 404 1083 q 463 1189 404 1169 l 656 992 l 619 947 l 479 1038 z "},"ẩ":{"ha":686,"x_min":56,"x_max":736,"o":"m 56 0 m 426 147 q 334 35 390 82 q 219 -12 278 -12 q 56 208 56 -12 q 90 410 56 290 q 194 622 124 531 q 368 713 265 713 q 456 698 413 713 q 526 669 500 683 l 561 718 l 614 718 l 515 92 l 617 92 l 617 38 q 592 24 611 35 q 542 4 572 14 q 483 -6 513 -6 q 422 13 438 -6 q 406 64 406 31 q 431 144 406 93 l 426 147 m 490 569 q 315 629 401 629 q 269 613 282 629 q 199 449 226 551 q 171 238 171 347 q 188 110 171 150 q 253 69 204 69 q 343 113 296 69 q 429 214 390 157 l 490 569 m 379 890 l 225 785 l 185 824 l 328 958 q 360 990 335 965 q 397 1015 385 1015 q 413 1007 404 1015 q 431 988 422 999 q 447 969 440 978 l 558 829 l 517 781 l 379 890 m 531 915 q 524 953 524 940 q 538 988 524 974 q 585 1015 551 1001 q 628 1042 617 1031 q 640 1069 640 1053 q 626 1094 640 1086 q 578 1101 611 1101 q 488 1090 536 1101 q 481 1122 481 1106 q 500 1165 481 1153 q 571 1176 519 1176 q 693 1151 650 1176 q 736 1076 736 1125 q 713 1017 736 1040 q 642 974 689 993 q 605 952 613 961 q 597 922 597 943 l 531 915 z "},"ẫ":{"ha":686,"x_min":56,"x_max":660,"o":"m 56 0 m 426 147 q 334 35 390 82 q 219 -12 278 -12 q 56 208 56 -12 q 90 410 56 290 q 194 622 124 531 q 368 713 265 713 q 456 698 413 713 q 526 669 500 683 l 561 718 l 614 718 l 515 92 l 617 92 l 617 38 q 592 24 611 35 q 542 4 572 14 q 483 -6 513 -6 q 422 13 438 -6 q 406 64 406 31 q 431 144 406 93 l 426 147 m 490 569 q 315 629 401 629 q 269 613 282 629 q 199 449 226 551 q 171 238 171 347 q 188 110 171 150 q 253 69 204 69 q 343 113 296 69 q 429 214 390 157 l 490 569 m 406 890 l 251 785 l 211 824 l 354 958 q 386 990 361 965 q 424 1015 411 1015 q 440 1007 431 1015 q 458 988 449 999 q 474 969 467 978 l 585 829 l 543 781 l 406 890 m 536 1072 q 449 1094 507 1072 l 356 1126 l 257 1078 l 231 1104 l 279 1167 q 317 1206 300 1193 q 353 1218 333 1218 q 404 1208 374 1218 q 442 1196 435 1197 l 535 1164 l 633 1213 l 660 1186 l 611 1128 q 572 1086 588 1100 q 536 1072 556 1072 z "},"ȁ":{"ha":686,"x_min":56,"x_max":617,"o":"m 56 0 m 426 147 q 334 35 390 82 q 219 -12 278 -12 q 56 208 56 -12 q 90 410 56 290 q 194 622 124 531 q 368 713 265 713 q 456 698 413 713 q 526 669 500 683 l 561 718 l 614 718 l 515 92 l 617 92 l 617 38 q 592 24 611 35 q 542 4 572 14 q 483 -6 513 -6 q 422 13 438 -6 q 406 64 406 31 q 431 144 406 93 l 426 147 m 490 569 q 315 629 401 629 q 269 613 282 629 q 199 449 226 551 q 171 238 171 347 q 188 110 171 150 q 253 69 204 69 q 343 113 296 69 q 429 214 390 157 l 490 569 m 231 882 q 194 960 194 932 q 289 1035 194 1013 l 357 810 l 307 779 l 231 882 m 442 882 q 406 960 406 932 q 500 1035 406 1013 l 568 810 l 518 779 l 442 882 z "},"ä":{"ha":690,"x_min":56,"x_max":617,"o":"m 267 825 q 222 842 239 825 q 206 885 206 860 q 228 951 206 921 q 292 981 251 981 q 338 963 321 981 q 356 915 356 946 q 331 853 356 882 q 267 825 306 825 m 526 825 q 481 842 499 825 q 464 885 464 860 q 488 951 464 921 q 551 981 511 981 q 597 963 579 981 q 614 915 614 946 q 590 853 614 881 q 526 825 565 825 m 219 -12 q 56 208 56 -12 q 90 410 56 290 q 194 622 124 531 q 368 713 265 713 q 458 697 413 713 q 526 669 503 682 l 561 718 l 614 718 l 515 92 l 617 92 l 617 38 q 592 24 611 35 q 542 4 572 14 q 483 -6 513 -6 q 422 13 438 -6 q 406 64 406 31 q 431 144 406 93 l 426 147 q 334 35 390 82 q 219 -12 278 -12 m 253 69 q 343 113 296 69 q 429 214 390 157 l 490 569 q 315 629 401 629 q 269 613 282 629 q 199 449 226 551 q 171 238 171 347 q 188 110 171 150 q 253 69 204 69 z "},"ạ":{"ha":686,"x_min":56,"x_max":617,"o":"m 56 0 m 426 147 q 334 35 390 82 q 219 -12 278 -12 q 56 208 56 -12 q 90 410 56 290 q 194 622 124 531 q 368 713 265 713 q 456 698 413 713 q 526 669 500 683 l 561 718 l 614 718 l 515 92 l 617 92 l 617 38 q 592 24 611 35 q 542 4 572 14 q 483 -6 513 -6 q 422 13 438 -6 q 406 64 406 31 q 431 144 406 93 l 426 147 m 490 569 q 315 629 401 629 q 269 613 282 629 q 199 449 226 551 q 171 238 171 347 q 188 110 171 150 q 253 69 204 69 q 343 113 296 69 q 429 214 390 157 l 490 569 m 267 -231 q 215 -210 235 -231 q 196 -158 196 -189 q 217 -94 196 -122 q 279 -67 239 -67 q 331 -87 311 -67 q 351 -142 351 -108 q 329 -204 351 -178 q 267 -231 307 -231 z "},"à":{"ha":690,"x_min":56,"x_max":617,"o":"m 351 867 q 276 946 276 913 q 335 1018 276 999 l 528 821 l 492 776 l 351 867 m 426 147 q 334 35 390 82 q 219 -12 278 -12 q 56 208 56 -12 q 90 410 56 290 q 194 622 124 531 q 368 713 265 713 q 458 697 413 713 q 526 669 503 682 l 561 718 l 614 718 l 515 92 l 617 92 l 617 38 q 592 24 611 35 q 542 4 572 14 q 483 -6 513 -6 q 422 13 438 -6 q 406 64 406 31 q 431 144 406 93 l 426 147 m 490 569 q 315 629 401 629 q 269 613 282 629 q 199 449 226 551 q 171 238 171 347 q 188 110 171 150 q 253 69 204 69 q 343 113 296 69 q 429 214 390 157 l 490 569 z "},"ả":{"ha":686,"x_min":56,"x_max":617,"o":"m 56 0 m 426 147 q 334 35 390 82 q 219 -12 278 -12 q 56 208 56 -12 q 90 410 56 290 q 194 622 124 531 q 368 713 265 713 q 456 698 413 713 q 526 669 500 683 l 561 718 l 614 718 l 515 92 l 617 92 l 617 38 q 592 24 611 35 q 542 4 572 14 q 483 -6 513 -6 q 422 13 438 -6 q 406 64 406 31 q 431 144 406 93 l 426 147 m 490 569 q 315 629 401 629 q 269 613 282 629 q 199 449 226 551 q 171 238 171 347 q 188 110 171 150 q 253 69 204 69 q 343 113 296 69 q 429 214 390 157 l 490 569 m 364 744 q 357 782 357 769 q 371 817 357 803 q 418 844 385 831 q 462 871 450 860 q 474 899 474 882 q 459 923 474 915 q 411 931 444 931 q 321 919 369 931 q 314 951 314 935 q 333 994 314 982 q 404 1006 353 1006 q 526 980 483 1006 q 569 906 569 954 q 546 846 569 869 q 475 803 522 822 q 438 781 446 790 q 431 751 431 772 l 364 744 z "},"ȃ":{"ha":686,"x_min":56,"x_max":617,"o":"m 56 0 m 426 147 q 334 35 390 82 q 219 -12 278 -12 q 56 208 56 -12 q 90 410 56 290 q 194 622 124 531 q 368 713 265 713 q 456 698 413 713 q 526 669 500 683 l 561 718 l 614 718 l 515 92 l 617 92 l 617 38 q 592 24 611 35 q 542 4 572 14 q 483 -6 513 -6 q 422 13 438 -6 q 406 64 406 31 q 431 144 406 93 l 426 147 m 490 569 q 315 629 401 629 q 269 613 282 629 q 199 449 226 551 q 171 238 171 347 q 188 110 171 150 q 253 69 204 69 q 343 113 296 69 q 429 214 390 157 l 490 569 m 225 814 q 249 869 225 824 q 322 953 272 914 q 447 993 371 993 q 540 970 503 993 q 597 914 578 947 q 615 850 615 881 q 607 822 615 835 q 572 798 596 806 q 528 790 549 790 q 503 876 524 843 q 422 910 482 910 q 339 883 376 910 q 278 824 301 856 q 254 789 254 793 l 225 814 z "},"ā":{"ha":690,"x_min":56,"x_max":626,"o":"m 235 940 l 626 940 l 615 853 l 224 853 l 235 940 m 426 147 q 334 35 390 82 q 219 -12 278 -12 q 56 208 56 -12 q 90 410 56 290 q 194 622 124 531 q 368 713 265 713 q 458 697 413 713 q 526 669 503 682 l 561 718 l 614 718 l 515 92 l 617 92 l 617 38 q 592 24 611 35 q 542 4 572 14 q 483 -6 513 -6 q 422 13 438 -6 q 406 64 406 31 q 431 144 406 93 l 426 147 m 490 569 q 315 629 401 629 q 269 613 282 629 q 199 449 226 551 q 171 238 171 347 q 188 110 171 150 q 253 69 204 69 q 343 113 296 69 q 429 214 390 157 l 490 569 z "},"ą":{"ha":690,"x_min":56,"x_max":636,"o":"m 636 -181 q 615 -199 636 -182 q 560 -231 593 -217 q 490 -246 528 -246 q 386 -158 386 -246 q 412 -75 386 -114 q 482 -6 438 -36 q 421 13 436 -4 q 406 64 406 31 q 431 144 406 93 l 426 147 q 334 35 390 82 q 219 -12 278 -12 q 56 208 56 -12 q 90 410 56 290 q 194 622 124 531 q 368 713 265 713 q 458 697 413 713 q 526 669 503 682 l 561 718 l 614 718 l 515 92 l 617 92 l 617 38 q 598 27 611 33 q 572 14 585 21 q 510 -36 543 0 q 478 -119 478 -72 q 492 -160 478 -146 q 535 -175 507 -175 q 569 -169 551 -175 q 599 -156 586 -162 q 614 -147 611 -150 l 636 -181 m 490 569 q 315 629 401 629 q 269 613 282 629 q 199 449 226 551 q 171 238 171 347 q 188 110 171 150 q 253 69 204 69 q 343 113 296 69 q 429 214 390 157 l 490 569 z "},"å":{"ha":690,"x_min":56,"x_max":617,"o":"m 435 783 q 349 810 379 783 q 319 882 319 836 q 357 991 319 946 q 457 1036 394 1036 q 542 1010 513 1036 q 572 938 572 983 q 535 828 572 874 q 435 783 497 783 m 447 844 q 499 925 499 844 q 485 962 499 951 q 443 972 472 972 q 403 953 415 972 q 392 896 392 935 q 404 857 392 869 q 447 844 417 844 m 219 -12 q 56 208 56 -12 q 90 410 56 290 q 194 622 124 531 q 368 713 265 713 q 458 697 413 713 q 526 669 503 682 l 561 718 l 614 718 l 515 92 l 617 92 l 617 38 q 592 24 611 35 q 542 4 572 14 q 483 -6 513 -6 q 422 13 438 -6 q 406 64 406 31 q 431 144 406 93 l 426 147 q 334 35 390 82 q 219 -12 278 -12 m 253 69 q 343 113 296 69 q 429 214 390 157 l 490 569 q 315 629 401 629 q 269 613 282 629 q 199 449 226 551 q 171 238 171 347 q 188 110 171 150 q 253 69 204 69 z "},"ǻ":{"ha":686,"x_min":56,"x_max":638,"o":"m 56 0 m 426 147 q 334 35 390 82 q 219 -12 278 -12 q 56 208 56 -12 q 90 410 56 290 q 194 622 124 531 q 368 713 265 713 q 456 698 413 713 q 526 669 500 683 l 561 718 l 614 718 l 515 92 l 617 92 l 617 38 q 592 24 611 35 q 542 4 572 14 q 483 -6 513 -6 q 422 13 438 -6 q 406 64 406 31 q 431 144 406 93 l 426 147 m 490 569 q 315 629 401 629 q 269 613 282 629 q 199 449 226 551 q 171 238 171 347 q 188 110 171 150 q 253 69 204 69 q 343 113 296 69 q 429 214 390 157 l 490 569 m 413 783 q 327 810 357 783 q 297 882 297 836 q 335 991 297 946 q 435 1036 372 1036 q 520 1010 490 1036 q 550 938 550 983 q 513 828 550 874 q 413 783 475 783 m 425 844 q 476 925 476 844 q 463 962 476 951 q 421 972 450 972 q 381 953 393 972 q 369 896 369 935 q 382 857 369 869 q 425 844 394 844 m 386 1171 l 579 1368 q 638 1296 638 1349 q 563 1217 638 1263 l 422 1126 l 386 1171 z "},"ã":{"ha":690,"x_min":56,"x_max":660,"o":"m 536 826 q 449 849 507 826 l 356 881 l 257 832 l 231 858 l 279 921 q 317 960 300 947 q 353 972 333 972 q 404 962 374 972 q 442 950 435 951 l 535 918 l 633 967 l 660 940 l 611 882 q 572 840 588 854 q 536 826 556 826 m 219 -12 q 56 208 56 -12 q 90 410 56 290 q 194 622 124 531 q 368 713 265 713 q 458 697 413 713 q 526 669 503 682 l 561 718 l 614 718 l 515 92 l 617 92 l 617 38 q 592 24 611 35 q 542 4 572 14 q 483 -6 513 -6 q 422 13 438 -6 q 406 64 406 31 q 431 144 406 93 l 426 147 q 334 35 390 82 q 219 -12 278 -12 m 253 69 q 343 113 296 69 q 429 214 390 157 l 490 569 q 315 629 401 629 q 269 613 282 629 q 199 449 226 551 q 171 238 171 347 q 188 110 171 150 q 253 69 204 69 z "},"æ":{"ha":893,"x_min":53,"x_max":876,"o":"m 647 71 q 720 88 678 71 q 801 131 763 104 l 828 90 q 723 17 786 46 q 604 -12 660 -12 q 468 19 513 -12 q 413 124 424 50 q 326 24 378 60 q 217 -12 274 -12 q 53 208 53 -12 q 99 447 53 329 q 217 638 144 564 q 365 713 290 713 q 458 693 401 713 q 565 643 514 674 q 729 713 638 713 q 835 674 793 713 q 876 578 876 636 q 828 440 876 503 q 699 339 781 378 q 521 297 618 300 q 532 160 521 208 q 570 92 543 113 q 647 71 597 71 m 408 240 q 436 409 413 325 q 497 557 460 493 q 399 610 447 592 q 313 629 350 629 q 267 613 279 629 q 195 449 222 551 q 168 238 168 346 q 187 107 168 144 q 250 69 206 69 q 317 95 282 69 q 378 160 353 121 q 408 240 404 200 m 606 610 q 524 354 543 514 q 706 419 640 368 q 771 549 771 471 q 749 608 771 588 q 685 629 726 629 q 606 610 618 629 z "},"ǽ":{"ha":893,"x_min":53,"x_max":876,"o":"m 53 0 m 647 71 q 720 88 678 71 q 801 131 763 104 l 828 90 q 723 17 786 46 q 604 -12 660 -12 q 468 19 513 -12 q 413 124 424 50 q 326 24 378 60 q 217 -12 274 -12 q 53 208 53 -12 q 99 447 53 329 q 217 638 144 564 q 365 713 290 713 q 458 693 401 713 q 565 643 514 674 q 729 713 638 713 q 835 674 793 713 q 876 578 876 636 q 828 440 876 503 q 699 339 781 378 q 521 297 618 300 q 532 160 521 208 q 570 92 543 113 q 647 71 597 71 m 408 240 q 436 409 413 325 q 497 557 460 493 q 399 610 447 592 q 313 629 350 629 q 267 613 279 629 q 195 449 222 551 q 168 238 168 346 q 187 107 168 144 q 250 69 206 69 q 317 95 282 69 q 378 160 353 121 q 408 240 404 200 m 606 610 q 524 354 543 514 q 706 419 640 368 q 771 549 771 471 q 749 608 771 588 q 685 629 726 629 q 606 610 618 629 m 524 821 l 717 1018 q 775 946 775 999 q 700 867 775 913 l 560 776 l 524 821 z "},"b":{"ha":653,"x_min":53,"x_max":611,"o":"m 89 893 l 89 944 l 297 971 l 297 871 l 258 625 q 236 585 257 613 l 239 581 q 327 669 272 625 q 444 713 382 713 q 572 657 532 713 q 611 496 611 601 q 579 290 611 410 q 476 79 547 171 q 293 -12 404 -12 q 232 -8 261 -12 q 184 2 203 -3 q 160 8 165 7 l 53 46 l 199 871 l 89 893 m 175 108 q 339 69 249 69 q 381 72 369 69 q 396 82 392 75 q 467 253 438 144 q 497 467 497 361 q 476 582 497 547 q 404 617 456 617 q 319 591 363 617 q 242 535 275 565 l 175 108 z "},"c":{"ha":521,"x_min":42,"x_max":521,"o":"m 454 89 q 424 58 454 85 q 345 10 394 32 q 232 -12 296 -12 q 88 41 133 -12 q 42 210 42 94 q 79 449 42 333 q 190 639 117 565 q 367 713 264 713 q 482 684 443 713 q 521 593 521 656 q 507 535 521 560 q 476 494 493 510 q 458 482 458 479 l 424 482 l 413 618 q 386 624 413 619 q 322 629 360 629 q 246 611 269 629 q 216 556 239 606 q 174 435 193 507 q 156 285 156 363 q 169 155 156 200 q 210 92 182 110 q 288 75 239 75 q 346 88 315 75 q 398 116 376 101 q 425 135 419 131 l 454 89 z "},"ć":{"ha":521,"x_min":42,"x_max":521,"o":"m 257 821 l 450 1018 q 508 946 508 999 q 433 867 508 913 l 293 776 l 257 821 m 232 -12 q 88 41 133 -12 q 42 210 42 94 q 79 449 42 333 q 190 639 117 565 q 367 713 264 713 q 482 684 443 713 q 521 593 521 656 q 507 535 521 560 q 476 494 493 510 q 458 482 458 479 l 424 482 l 413 618 q 386 624 413 619 q 322 629 360 629 q 246 611 269 629 q 216 556 239 606 q 174 435 193 507 q 156 285 156 363 q 169 155 156 200 q 210 92 182 110 q 288 75 239 75 q 346 88 315 75 q 398 116 376 101 q 425 135 419 131 l 454 89 q 424 58 454 85 q 345 10 394 32 q 232 -12 296 -12 z "},"č":{"ha":521,"x_min":42,"x_max":550,"o":"m 225 1015 l 358 901 l 514 1013 l 550 971 l 408 838 q 385 815 400 831 q 358 790 369 799 q 339 781 346 781 q 323 789 332 781 q 305 808 314 797 q 289 826 296 818 l 179 967 l 225 1015 m 454 89 q 424 58 454 85 q 345 10 394 32 q 232 -12 296 -12 q 88 41 133 -12 q 42 210 42 94 q 79 449 42 333 q 190 639 117 565 q 367 713 264 713 q 482 684 443 713 q 521 593 521 656 q 507 535 521 560 q 476 494 493 510 q 458 482 458 479 l 424 482 l 413 618 q 386 624 413 619 q 322 629 360 629 q 246 611 269 629 q 216 556 239 606 q 174 435 193 507 q 156 285 156 363 q 169 155 156 200 q 210 92 182 110 q 288 75 239 75 q 346 88 315 75 q 398 116 376 101 q 425 135 419 131 l 454 89 z "},"ç":{"ha":521,"x_min":42,"x_max":521,"o":"m 106 -179 q 141 -196 124 -190 q 189 -201 158 -201 q 250 -169 250 -201 q 218 -133 250 -151 l 146 -96 l 146 -68 l 189 -10 q 77 53 113 0 q 42 210 42 107 q 79 449 42 333 q 190 639 117 565 q 367 713 264 713 q 482 684 443 713 q 521 593 521 656 q 507 535 521 560 q 476 494 493 510 q 458 482 458 479 l 424 482 l 413 618 q 386 624 413 619 q 322 629 360 629 q 246 611 269 629 q 216 556 239 606 q 174 435 193 507 q 156 285 156 363 q 169 155 156 200 q 210 92 182 110 q 288 75 239 75 q 346 88 315 75 q 398 116 376 101 q 425 135 419 131 l 454 89 q 427 62 454 86 q 356 15 400 38 q 253 -11 311 -7 l 253 -40 l 300 -69 q 344 -136 344 -97 q 301 -233 344 -206 q 194 -260 257 -260 q 78 -219 131 -260 l 106 -179 z "},"ĉ":{"ha":521,"x_min":42,"x_max":557,"o":"m 42 0 m 454 89 q 424 58 454 85 q 345 10 394 32 q 232 -12 296 -12 q 88 41 133 -12 q 42 210 42 94 q 79 449 42 333 q 190 639 117 565 q 367 713 264 713 q 482 684 443 713 q 521 593 521 656 q 507 535 521 560 q 476 494 493 510 q 458 482 458 479 l 424 482 l 413 618 q 386 624 413 619 q 322 629 360 629 q 246 611 269 629 q 216 556 239 606 q 174 435 193 507 q 156 285 156 363 q 169 155 156 200 q 210 92 182 110 q 288 75 239 75 q 346 88 315 75 q 398 116 376 101 q 425 135 419 131 l 454 89 m 378 890 l 224 785 l 183 824 l 326 958 q 358 990 333 965 q 396 1015 383 1015 q 412 1007 403 1015 q 430 988 421 999 q 446 969 439 978 l 557 829 l 515 781 l 378 890 z "},"ċ":{"ha":521,"x_min":42,"x_max":521,"o":"m 42 0 m 454 89 q 424 58 454 85 q 345 10 394 32 q 232 -12 296 -12 q 88 41 133 -12 q 42 210 42 94 q 79 449 42 333 q 190 639 117 565 q 367 713 264 713 q 482 684 443 713 q 521 593 521 656 q 507 535 521 560 q 476 494 493 510 q 458 482 458 479 l 424 482 l 413 618 q 386 624 413 619 q 322 629 360 629 q 246 611 269 629 q 216 556 239 606 q 174 435 193 507 q 156 285 156 363 q 169 155 156 200 q 210 92 182 110 q 288 75 239 75 q 346 88 315 75 q 398 116 376 101 q 425 135 419 131 l 454 89 m 378 821 q 326 842 346 821 q 307 893 307 863 q 328 957 307 929 q 390 985 350 985 q 442 964 422 985 q 463 910 463 943 q 440 847 463 874 q 378 821 418 821 z "},"d":{"ha":696,"x_min":56,"x_max":650,"o":"m 436 146 q 341 31 397 75 q 221 -12 285 -12 q 97 46 138 -12 q 56 208 56 104 q 94 424 56 304 q 206 628 133 543 q 374 713 278 713 q 454 702 415 713 q 519 678 493 692 l 554 871 l 444 893 l 444 944 l 650 971 l 650 871 l 525 92 l 626 92 l 626 38 q 602 24 621 35 q 554 4 583 14 q 496 -6 525 -6 q 434 8 454 -6 q 414 57 414 22 q 419 94 414 76 q 440 143 425 113 l 436 146 m 500 571 q 318 629 415 629 q 288 623 300 629 q 269 608 275 617 q 199 444 228 546 q 169 238 169 343 q 189 115 169 160 q 256 69 208 69 q 348 110 301 69 q 433 206 394 150 l 500 571 z "},"ð":{"ha":640,"x_min":56,"x_max":585,"o":"m 246 -12 q 104 48 153 -12 q 56 224 56 108 q 98 476 56 364 q 215 650 140 588 q 385 713 290 713 q 444 701 414 713 q 399 785 421 756 q 343 835 376 814 l 192 738 l 154 792 l 271 867 q 81 890 196 890 l 81 946 q 189 956 114 956 q 360 925 286 956 l 479 1003 l 515 946 l 426 889 q 585 529 585 781 q 495 130 585 272 q 246 -12 406 -12 m 299 69 q 389 89 367 69 q 444 228 418 117 q 469 439 469 339 q 460 601 469 558 q 318 628 406 628 q 278 620 301 628 q 247 604 254 613 q 192 460 215 568 q 169 240 169 351 q 181 136 169 172 q 220 85 193 100 q 299 69 247 69 z "},"ď":{"ha":696,"x_min":56,"x_max":815,"o":"m 676 790 q 689 812 679 794 q 708 858 699 829 q 717 918 717 886 q 697 979 717 951 q 757 1011 717 1011 q 800 994 785 1011 q 815 949 815 978 q 794 864 815 903 q 745 801 772 825 q 703 769 718 776 l 676 790 m 436 146 q 341 31 397 75 q 221 -12 285 -12 q 97 46 138 -12 q 56 208 56 104 q 94 424 56 304 q 206 628 133 543 q 374 713 278 713 q 454 702 415 713 q 519 678 493 692 l 554 871 l 444 893 l 444 944 l 650 971 l 650 871 l 525 92 l 626 92 l 626 38 q 602 24 621 35 q 554 4 583 14 q 496 -6 525 -6 q 434 8 454 -6 q 414 57 414 22 q 419 94 414 76 q 440 143 425 113 l 436 146 m 500 571 q 318 629 415 629 q 288 623 300 629 q 269 608 275 617 q 199 444 228 546 q 169 238 169 343 q 189 115 169 160 q 256 69 208 69 q 348 110 301 69 q 433 206 394 150 l 500 571 z "},"đ":{"ha":696,"x_min":56,"x_max":728,"o":"m 221 -12 q 97 46 138 -12 q 56 208 56 104 q 94 424 56 304 q 206 628 133 543 q 374 713 278 713 q 454 702 415 713 q 519 678 493 692 l 539 785 l 317 785 l 317 851 l 550 851 l 554 871 l 481 915 l 481 949 l 650 971 l 650 871 l 647 851 l 728 851 l 728 785 l 636 785 l 525 92 l 626 92 l 626 38 q 602 24 621 35 q 554 4 583 14 q 496 -6 525 -6 q 434 8 454 -6 q 414 57 414 22 q 419 94 414 76 q 440 143 425 113 l 436 146 q 341 31 397 75 q 221 -12 285 -12 m 256 69 q 348 110 301 69 q 433 206 394 150 l 500 571 q 318 629 415 629 q 288 623 300 629 q 269 608 275 617 q 199 444 228 546 q 169 238 169 343 q 189 115 169 160 q 256 69 208 69 z "},"ḍ":{"ha":696,"x_min":56,"x_max":650,"o":"m 56 0 m 436 146 q 341 31 397 75 q 221 -12 285 -12 q 97 46 138 -12 q 56 208 56 104 q 94 424 56 304 q 206 628 133 543 q 374 713 278 713 q 454 702 415 713 q 519 678 493 692 l 554 871 l 444 893 l 444 944 l 650 971 l 650 871 l 525 92 l 626 92 l 626 38 q 602 24 621 35 q 554 4 583 14 q 496 -6 525 -6 q 434 8 454 -6 q 414 57 414 22 q 419 94 414 76 q 440 143 425 113 l 436 146 m 500 571 q 318 629 415 629 q 288 623 300 629 q 269 608 275 617 q 199 444 228 546 q 169 238 169 343 q 189 115 169 160 q 256 69 208 69 q 348 110 301 69 q 433 206 394 150 l 500 571 m 272 -231 q 221 -210 240 -231 q 201 -158 201 -189 q 223 -94 201 -122 q 285 -67 244 -67 q 337 -87 317 -67 q 357 -142 357 -108 q 335 -204 357 -178 q 272 -231 313 -231 z "},"ǳ":{"ha":1244,"x_min":56,"x_max":1276,"o":"m 56 0 m 436 146 q 341 31 397 75 q 221 -12 285 -12 q 97 46 138 -12 q 56 208 56 104 q 94 424 56 304 q 206 628 133 543 q 374 713 278 713 q 454 702 415 713 q 519 678 493 692 l 554 871 l 444 893 l 444 944 l 650 971 l 650 871 l 525 92 l 626 92 l 626 38 q 602 24 621 35 q 554 4 583 14 q 496 -6 525 -6 q 434 8 454 -6 q 414 57 414 22 q 419 94 414 76 q 440 143 425 113 l 436 146 m 500 571 q 318 629 415 629 q 288 623 300 629 q 269 608 275 617 q 199 444 228 546 q 169 238 169 343 q 189 115 169 160 q 256 69 208 69 q 348 110 301 69 q 433 206 394 150 l 500 571 m 1082 565 l 872 642 l 835 510 l 789 510 q 779 526 786 513 q 765 564 772 540 q 758 617 758 588 q 788 690 758 667 q 868 713 818 713 q 933 707 900 713 q 1015 689 965 701 l 1163 654 l 1240 710 l 1276 682 l 861 140 l 861 125 l 1088 58 l 1125 190 l 1171 190 q 1181 174 1174 188 q 1194 136 1188 160 q 1201 83 1201 113 q 1169 10 1201 33 q 1085 -12 1136 -12 q 1030 -8 1058 -12 q 972 3 1001 -3 l 943 8 l 779 39 l 710 -10 l 671 25 l 1082 553 l 1082 565 z "},"ǆ":{"ha":1244,"x_min":56,"x_max":1276,"o":"m 56 0 m 436 146 q 341 31 397 75 q 221 -12 285 -12 q 97 46 138 -12 q 56 208 56 104 q 94 424 56 304 q 206 628 133 543 q 374 713 278 713 q 454 702 415 713 q 519 678 493 692 l 554 871 l 444 893 l 444 944 l 650 971 l 650 871 l 525 92 l 626 92 l 626 38 q 602 24 621 35 q 554 4 583 14 q 496 -6 525 -6 q 434 8 454 -6 q 414 57 414 22 q 419 94 414 76 q 440 143 425 113 l 436 146 m 500 571 q 318 629 415 629 q 288 623 300 629 q 269 608 275 617 q 199 444 228 546 q 169 238 169 343 q 189 115 169 160 q 256 69 208 69 q 348 110 301 69 q 433 206 394 150 l 500 571 m 1082 565 l 872 642 l 835 510 l 789 510 q 779 526 786 513 q 765 564 772 540 q 758 617 758 588 q 788 690 758 667 q 868 713 818 713 q 933 707 900 713 q 1015 689 965 701 l 1163 654 l 1240 710 l 1276 682 l 861 140 l 861 125 l 1088 58 l 1125 190 l 1171 190 q 1181 174 1174 188 q 1194 136 1188 160 q 1201 83 1201 113 q 1169 10 1201 33 q 1085 -12 1136 -12 q 1030 -8 1058 -12 q 972 3 1001 -3 l 943 8 l 779 39 l 710 -10 l 671 25 l 1082 553 l 1082 565 m 906 1018 l 1039 904 l 1194 1015 l 1231 974 l 1089 840 q 1065 817 1081 833 q 1038 792 1050 801 q 1019 783 1026 783 q 1003 792 1013 783 q 985 810 994 800 q 969 829 976 821 l 860 969 l 906 1018 z "},"e":{"ha":539,"x_min":56,"x_max":525,"o":"m 260 -12 q 103 35 151 -12 q 56 203 56 82 q 92 433 56 314 q 202 632 129 551 q 378 713 275 713 q 488 671 450 713 q 525 578 525 629 q 480 414 525 471 q 366 333 435 357 q 169 283 297 308 l 168 264 q 180 145 168 186 q 221 88 192 104 q 303 71 250 71 q 376 89 335 71 q 450 135 417 107 l 476 94 q 381 17 442 47 q 260 -12 319 -12 m 175 342 q 336 396 283 367 q 404 460 389 425 q 419 549 419 494 q 333 629 419 629 q 282 624 304 629 q 254 610 260 619 q 205 491 225 565 q 175 342 185 417 z "},"é":{"ha":540,"x_min":56,"x_max":525,"o":"m 260 821 l 453 1018 q 511 946 511 999 q 436 867 511 913 l 296 776 l 260 821 m 260 -12 q 103 35 151 -12 q 56 203 56 82 q 92 433 56 314 q 202 632 129 551 q 378 713 275 713 q 488 671 450 713 q 525 578 525 629 q 480 414 525 471 q 366 333 435 357 q 169 283 297 308 l 168 264 q 180 145 168 186 q 221 88 192 104 q 303 71 250 71 q 376 89 335 71 q 450 135 417 107 l 476 94 q 381 17 442 47 q 260 -12 319 -12 m 175 342 q 336 396 283 367 q 404 460 389 425 q 419 549 419 494 q 333 629 419 629 q 282 624 304 629 q 254 610 260 619 q 205 491 225 565 q 175 342 185 417 z "},"ĕ":{"ha":539,"x_min":56,"x_max":572,"o":"m 56 0 m 260 -12 q 103 35 151 -12 q 56 203 56 82 q 92 433 56 314 q 202 632 129 551 q 378 713 275 713 q 488 671 450 713 q 525 578 525 629 q 480 414 525 471 q 366 333 435 357 q 169 283 297 308 l 168 264 q 180 145 168 186 q 221 88 192 104 q 303 71 250 71 q 376 89 335 71 q 450 135 417 107 l 476 94 q 381 17 442 47 q 260 -12 319 -12 m 175 342 q 336 396 283 367 q 404 460 389 425 q 419 549 419 494 q 333 629 419 629 q 282 624 304 629 q 254 610 260 619 q 205 491 225 565 q 175 342 185 417 m 350 789 q 257 812 294 789 q 201 868 219 835 q 182 932 182 901 q 193 963 182 949 q 227 984 206 976 q 269 992 249 992 q 294 906 274 939 q 375 872 315 872 q 458 899 421 872 q 519 958 496 926 q 543 993 543 989 l 572 968 q 549 913 572 958 q 476 828 525 868 q 350 789 426 789 z "},"ě":{"ha":540,"x_min":56,"x_max":571,"o":"m 360 781 q 344 789 353 781 q 326 808 335 797 q 310 826 317 818 l 200 967 l 246 1015 l 379 901 l 535 1013 l 571 971 l 429 838 q 406 815 421 831 q 378 790 390 799 q 360 781 367 781 m 260 -12 q 103 35 151 -12 q 56 203 56 82 q 92 433 56 314 q 202 632 129 551 q 378 713 275 713 q 488 671 450 713 q 525 578 525 629 q 480 414 525 471 q 366 333 435 357 q 169 283 297 308 l 168 264 q 180 145 168 186 q 221 88 192 104 q 303 71 250 71 q 366 85 333 71 q 422 114 399 99 q 450 135 444 129 l 476 94 q 447 63 476 90 q 369 11 417 35 q 260 -12 321 -12 m 175 342 q 336 396 283 367 q 404 460 389 425 q 419 549 419 494 q 333 629 419 629 q 282 624 304 629 q 254 610 260 619 q 205 491 225 565 q 175 342 185 417 z "},"ê":{"ha":540,"x_min":56,"x_max":542,"o":"m 363 890 l 208 785 l 168 824 l 311 958 q 343 990 318 965 q 381 1015 368 1015 q 397 1007 388 1015 q 415 988 406 999 q 431 969 424 978 l 542 829 l 500 781 l 363 890 m 260 -12 q 103 35 151 -12 q 56 203 56 82 q 92 433 56 314 q 202 632 129 551 q 378 713 275 713 q 488 671 450 713 q 525 578 525 629 q 480 414 525 471 q 366 333 435 357 q 169 283 297 308 l 168 264 q 180 145 168 186 q 221 88 192 104 q 303 71 250 71 q 376 89 335 71 q 450 135 417 107 l 476 94 q 381 17 442 47 q 260 -12 319 -12 m 175 342 q 336 396 283 367 q 404 460 389 425 q 419 549 419 494 q 333 629 419 629 q 282 624 304 629 q 254 610 260 619 q 205 491 225 565 q 175 342 185 417 z "},"ế":{"ha":539,"x_min":56,"x_max":688,"o":"m 56 0 m 260 -12 q 103 35 151 -12 q 56 203 56 82 q 92 433 56 314 q 202 632 129 551 q 378 713 275 713 q 488 671 450 713 q 525 578 525 629 q 480 414 525 471 q 366 333 435 357 q 169 283 297 308 l 168 264 q 180 145 168 186 q 221 88 192 104 q 303 71 250 71 q 376 89 335 71 q 450 135 417 107 l 476 94 q 381 17 442 47 q 260 -12 319 -12 m 175 342 q 336 396 283 367 q 404 460 389 425 q 419 549 419 494 q 333 629 419 629 q 282 624 304 629 q 254 610 260 619 q 205 491 225 565 q 175 342 185 417 m 328 890 l 174 785 l 133 824 l 276 958 q 308 990 283 965 q 346 1015 333 1015 q 362 1007 353 1015 q 380 988 371 999 q 396 969 389 978 l 507 829 l 465 781 l 328 890 m 436 992 l 629 1189 q 688 1117 688 1169 q 613 1038 688 1083 l 472 947 l 436 992 z "},"ệ":{"ha":539,"x_min":56,"x_max":551,"o":"m 56 0 m 260 -12 q 103 35 151 -12 q 56 203 56 82 q 92 433 56 314 q 202 632 129 551 q 378 713 275 713 q 488 671 450 713 q 525 578 525 629 q 480 414 525 471 q 366 333 435 357 q 169 283 297 308 l 168 264 q 180 145 168 186 q 221 88 192 104 q 303 71 250 71 q 376 89 335 71 q 450 135 417 107 l 476 94 q 381 17 442 47 q 260 -12 319 -12 m 175 342 q 336 396 283 367 q 404 460 389 425 q 419 549 419 494 q 333 629 419 629 q 282 624 304 629 q 254 610 260 619 q 205 491 225 565 q 175 342 185 417 m 224 -231 q 172 -210 192 -231 q 153 -158 153 -189 q 174 -94 153 -122 q 236 -67 196 -67 q 288 -87 268 -67 q 308 -142 308 -108 q 286 -204 308 -178 q 224 -231 264 -231 m 372 890 l 218 785 l 178 824 l 321 958 q 353 990 328 965 q 390 1015 378 1015 q 406 1007 397 1015 q 424 988 415 999 q 440 969 433 978 l 551 829 l 510 781 l 372 890 z "},"ề":{"ha":539,"x_min":56,"x_max":613,"o":"m 56 0 m 260 -12 q 103 35 151 -12 q 56 203 56 82 q 92 433 56 314 q 202 632 129 551 q 378 713 275 713 q 488 671 450 713 q 525 578 525 629 q 480 414 525 471 q 366 333 435 357 q 169 283 297 308 l 168 264 q 180 145 168 186 q 221 88 192 104 q 303 71 250 71 q 376 89 335 71 q 450 135 417 107 l 476 94 q 381 17 442 47 q 260 -12 319 -12 m 175 342 q 336 396 283 367 q 404 460 389 425 q 419 549 419 494 q 333 629 419 629 q 282 624 304 629 q 254 610 260 619 q 205 491 225 565 q 175 342 185 417 m 364 890 l 210 785 l 169 824 l 313 958 q 344 990 319 965 q 382 1015 369 1015 q 398 1007 389 1015 q 416 988 407 999 q 432 969 425 978 l 543 829 l 501 781 l 364 890 m 436 1038 q 361 1117 361 1083 q 419 1189 361 1169 l 613 992 l 576 947 l 436 1038 z "},"ể":{"ha":539,"x_min":56,"x_max":693,"o":"m 56 0 m 260 -12 q 103 35 151 -12 q 56 203 56 82 q 92 433 56 314 q 202 632 129 551 q 378 713 275 713 q 488 671 450 713 q 525 578 525 629 q 480 414 525 471 q 366 333 435 357 q 169 283 297 308 l 168 264 q 180 145 168 186 q 221 88 192 104 q 303 71 250 71 q 376 89 335 71 q 450 135 417 107 l 476 94 q 381 17 442 47 q 260 -12 319 -12 m 175 342 q 336 396 283 367 q 404 460 389 425 q 419 549 419 494 q 333 629 419 629 q 282 624 304 629 q 254 610 260 619 q 205 491 225 565 q 175 342 185 417 m 336 890 l 182 785 l 142 824 l 285 958 q 317 990 292 965 q 354 1015 342 1015 q 370 1007 361 1015 q 388 988 379 999 q 404 969 397 978 l 515 829 l 474 781 l 336 890 m 488 915 q 481 953 481 940 q 494 988 481 974 q 542 1015 508 1001 q 585 1042 574 1031 q 597 1069 597 1053 q 583 1094 597 1086 q 535 1101 568 1101 q 444 1090 493 1101 q 438 1122 438 1106 q 457 1165 438 1153 q 528 1176 476 1176 q 650 1151 607 1176 q 693 1076 693 1125 q 669 1017 693 1040 q 599 974 646 993 q 562 952 569 961 q 554 922 554 943 l 488 915 z "},"ễ":{"ha":539,"x_min":56,"x_max":617,"o":"m 56 0 m 260 -12 q 103 35 151 -12 q 56 203 56 82 q 92 433 56 314 q 202 632 129 551 q 378 713 275 713 q 488 671 450 713 q 525 578 525 629 q 480 414 525 471 q 366 333 435 357 q 169 283 297 308 l 168 264 q 180 145 168 186 q 221 88 192 104 q 303 71 250 71 q 376 89 335 71 q 450 135 417 107 l 476 94 q 381 17 442 47 q 260 -12 319 -12 m 175 342 q 336 396 283 367 q 404 460 389 425 q 419 549 419 494 q 333 629 419 629 q 282 624 304 629 q 254 610 260 619 q 205 491 225 565 q 175 342 185 417 m 363 890 l 208 785 l 168 824 l 311 958 q 343 990 318 965 q 381 1015 368 1015 q 397 1007 388 1015 q 415 988 406 999 q 431 969 424 978 l 542 829 l 500 781 l 363 890 m 493 1072 q 406 1094 464 1072 l 313 1126 l 214 1078 l 188 1104 l 236 1167 q 274 1206 257 1193 q 310 1218 290 1218 q 361 1208 331 1218 q 399 1196 392 1197 l 492 1164 l 590 1213 l 617 1186 l 568 1128 q 528 1086 544 1100 q 493 1072 513 1072 z "},"ȅ":{"ha":539,"x_min":56,"x_max":525,"o":"m 56 0 m 260 -12 q 103 35 151 -12 q 56 203 56 82 q 92 433 56 314 q 202 632 129 551 q 378 713 275 713 q 488 671 450 713 q 525 578 525 629 q 480 414 525 471 q 366 333 435 357 q 169 283 297 308 l 168 264 q 180 145 168 186 q 221 88 192 104 q 303 71 250 71 q 376 89 335 71 q 450 135 417 107 l 476 94 q 381 17 442 47 q 260 -12 319 -12 m 175 342 q 336 396 283 367 q 404 460 389 425 q 419 549 419 494 q 333 629 419 629 q 282 624 304 629 q 254 610 260 619 q 205 491 225 565 q 175 342 185 417 m 188 882 q 151 960 151 932 q 246 1035 151 1013 l 314 810 l 264 779 l 188 882 m 399 882 q 363 960 363 932 q 457 1035 363 1013 l 525 810 l 475 779 l 399 882 z "},"ë":{"ha":540,"x_min":56,"x_max":558,"o":"m 211 825 q 167 842 183 825 q 150 885 150 860 q 173 951 150 921 q 236 981 196 981 q 283 963 265 981 q 300 915 300 946 q 275 853 300 882 q 211 825 250 825 m 471 825 q 426 842 443 825 q 408 885 408 860 q 432 951 408 921 q 496 981 456 981 q 541 963 524 981 q 558 915 558 946 q 534 853 558 881 q 471 825 510 825 m 260 -12 q 103 35 151 -12 q 56 203 56 82 q 92 433 56 314 q 202 632 129 551 q 378 713 275 713 q 488 671 450 713 q 525 578 525 629 q 480 414 525 471 q 366 333 435 357 q 169 283 297 308 l 168 264 q 180 145 168 186 q 221 88 192 104 q 303 71 250 71 q 376 89 335 71 q 450 135 417 107 l 476 94 q 381 17 442 47 q 260 -12 319 -12 m 175 342 q 336 396 283 367 q 404 460 389 425 q 419 549 419 494 q 333 629 419 629 q 282 624 304 629 q 254 610 260 619 q 205 491 225 565 q 175 342 185 417 z "},"ė":{"ha":540,"x_min":56,"x_max":525,"o":"m 372 821 q 321 842 340 821 q 301 893 301 863 q 323 957 301 929 q 385 985 344 985 q 437 964 417 985 q 457 910 457 943 q 435 847 457 874 q 372 821 413 821 m 260 -12 q 103 35 151 -12 q 56 203 56 82 q 92 433 56 314 q 202 632 129 551 q 378 713 275 713 q 488 671 450 713 q 525 578 525 629 q 480 414 525 471 q 366 333 435 357 q 169 283 297 308 l 168 264 q 180 145 168 186 q 221 88 192 104 q 303 71 250 71 q 366 85 333 71 q 422 114 399 99 q 450 135 444 129 l 476 94 q 447 63 476 90 q 369 11 417 35 q 260 -12 321 -12 m 175 342 q 336 396 283 367 q 404 460 389 425 q 419 549 419 494 q 333 629 419 629 q 282 624 304 629 q 254 610 260 619 q 205 491 225 565 q 175 342 185 417 z "},"ẹ":{"ha":539,"x_min":56,"x_max":525,"o":"m 56 0 m 260 -12 q 103 35 151 -12 q 56 203 56 82 q 92 433 56 314 q 202 632 129 551 q 378 713 275 713 q 488 671 450 713 q 525 578 525 629 q 480 414 525 471 q 366 333 435 357 q 169 283 297 308 l 168 264 q 180 145 168 186 q 221 88 192 104 q 303 71 250 71 q 376 89 335 71 q 450 135 417 107 l 476 94 q 381 17 442 47 q 260 -12 319 -12 m 175 342 q 336 396 283 367 q 404 460 389 425 q 419 549 419 494 q 333 629 419 629 q 282 624 304 629 q 254 610 260 619 q 205 491 225 565 q 175 342 185 417 m 224 -231 q 172 -210 192 -231 q 153 -158 153 -189 q 174 -94 153 -122 q 236 -67 196 -67 q 288 -87 268 -67 q 308 -142 308 -108 q 286 -204 308 -178 q 224 -231 264 -231 z "},"è":{"ha":540,"x_min":56,"x_max":525,"o":"m 307 867 q 232 946 232 913 q 290 1018 232 999 l 483 821 l 447 776 l 307 867 m 260 -12 q 103 35 151 -12 q 56 203 56 82 q 92 433 56 314 q 202 632 129 551 q 378 713 275 713 q 488 671 450 713 q 525 578 525 629 q 480 414 525 471 q 366 333 435 357 q 169 283 297 308 l 168 264 q 180 145 168 186 q 221 88 192 104 q 303 71 250 71 q 376 89 335 71 q 450 135 417 107 l 476 94 q 381 17 442 47 q 260 -12 319 -12 m 175 342 q 336 396 283 367 q 404 460 389 425 q 419 549 419 494 q 333 629 419 629 q 282 624 304 629 q 254 610 260 619 q 205 491 225 565 q 175 342 185 417 z "},"ẻ":{"ha":539,"x_min":56,"x_max":526,"o":"m 56 0 m 260 -12 q 103 35 151 -12 q 56 203 56 82 q 92 433 56 314 q 202 632 129 551 q 378 713 275 713 q 488 671 450 713 q 525 578 525 629 q 480 414 525 471 q 366 333 435 357 q 169 283 297 308 l 168 264 q 180 145 168 186 q 221 88 192 104 q 303 71 250 71 q 376 89 335 71 q 450 135 417 107 l 476 94 q 381 17 442 47 q 260 -12 319 -12 m 175 342 q 336 396 283 367 q 404 460 389 425 q 419 549 419 494 q 333 629 419 629 q 282 624 304 629 q 254 610 260 619 q 205 491 225 565 q 175 342 185 417 m 321 744 q 314 782 314 769 q 328 817 314 803 q 375 844 342 831 q 419 871 407 860 q 431 899 431 882 q 416 923 431 915 q 368 931 401 931 q 278 919 326 931 q 271 951 271 935 q 290 994 271 982 q 361 1006 310 1006 q 483 980 440 1006 q 526 906 526 954 q 503 846 526 869 q 432 803 479 822 q 395 781 403 790 q 388 751 388 772 l 321 744 z "},"ȇ":{"ha":539,"x_min":56,"x_max":572,"o":"m 56 0 m 260 -12 q 103 35 151 -12 q 56 203 56 82 q 92 433 56 314 q 202 632 129 551 q 378 713 275 713 q 488 671 450 713 q 525 578 525 629 q 480 414 525 471 q 366 333 435 357 q 169 283 297 308 l 168 264 q 180 145 168 186 q 221 88 192 104 q 303 71 250 71 q 376 89 335 71 q 450 135 417 107 l 476 94 q 381 17 442 47 q 260 -12 319 -12 m 175 342 q 336 396 283 367 q 404 460 389 425 q 419 549 419 494 q 333 629 419 629 q 282 624 304 629 q 254 610 260 619 q 205 491 225 565 q 175 342 185 417 m 182 814 q 206 869 182 824 q 278 953 229 914 q 404 993 328 993 q 497 970 460 993 q 553 914 535 947 q 572 850 572 881 q 564 822 572 835 q 529 798 553 806 q 485 790 506 790 q 460 876 481 843 q 379 910 439 910 q 296 883 333 910 q 235 824 258 856 q 211 789 211 793 l 182 814 z "},"ē":{"ha":540,"x_min":56,"x_max":569,"o":"m 167 853 l 178 940 l 569 940 l 558 853 l 167 853 m 260 -12 q 103 35 151 -12 q 56 203 56 82 q 92 433 56 314 q 202 632 129 551 q 378 713 275 713 q 488 671 450 713 q 525 578 525 629 q 480 414 525 471 q 366 333 435 357 q 169 283 297 308 l 168 264 q 180 145 168 186 q 221 88 192 104 q 303 71 250 71 q 366 85 333 71 q 422 114 399 99 q 450 135 444 129 l 476 94 q 447 63 476 90 q 369 11 417 35 q 260 -12 321 -12 m 175 342 q 336 396 283 367 q 404 460 389 425 q 419 549 419 494 q 333 629 419 629 q 282 624 304 629 q 254 610 260 619 q 205 491 225 565 q 175 342 185 417 z "},"ę":{"ha":540,"x_min":56,"x_max":525,"o":"m 294 -246 q 190 -158 190 -246 q 213 -79 190 -117 q 276 -11 236 -42 q 260 -12 271 -12 q 103 35 151 -12 q 56 203 56 82 q 92 433 56 314 q 202 632 129 551 q 378 713 275 713 q 488 671 450 713 q 525 578 525 629 q 480 414 525 471 q 366 333 435 357 q 169 283 297 308 l 168 264 q 180 145 168 186 q 221 88 192 104 q 303 71 250 71 q 366 85 333 71 q 422 114 399 99 q 450 135 444 129 l 476 94 q 461 77 474 90 q 426 46 449 64 q 376 14 404 28 q 314 -38 346 -4 q 282 -119 282 -72 q 297 -160 282 -146 q 339 -175 311 -175 q 373 -169 356 -175 q 403 -156 390 -162 q 418 -147 415 -150 l 440 -181 q 419 -199 440 -182 q 365 -231 397 -217 q 294 -246 332 -246 m 175 342 q 336 396 283 367 q 404 460 389 425 q 419 549 419 494 q 333 629 419 629 q 282 624 304 629 q 254 610 260 619 q 205 491 225 565 q 175 342 185 417 z "},"ẽ":{"ha":539,"x_min":56,"x_max":593,"o":"m 56 0 m 260 -12 q 103 35 151 -12 q 56 203 56 82 q 92 433 56 314 q 202 632 129 551 q 378 713 275 713 q 488 671 450 713 q 525 578 525 629 q 480 414 525 471 q 366 333 435 357 q 169 283 297 308 l 168 264 q 180 145 168 186 q 221 88 192 104 q 303 71 250 71 q 376 89 335 71 q 450 135 417 107 l 476 94 q 381 17 442 47 q 260 -12 319 -12 m 175 342 q 336 396 283 367 q 404 460 389 425 q 419 549 419 494 q 333 629 419 629 q 282 624 304 629 q 254 610 260 619 q 205 491 225 565 q 175 342 185 417 m 469 826 q 382 849 440 826 l 289 881 l 190 832 l 164 858 l 213 921 q 250 960 233 947 q 286 972 267 972 q 338 962 307 972 q 375 950 368 951 l 468 918 l 567 967 l 593 940 l 544 882 q 505 840 521 854 q 469 826 489 826 z "},"ə":{"ha":539,"x_min":14,"x_max":483,"o":"m 279 699 q 435 651 388 699 q 483 483 483 604 q 447 253 483 372 q 337 54 410 135 q 161 -26 264 -26 q 51 15 89 -26 q 14 108 14 57 q 59 272 14 215 q 173 353 104 329 q 369 403 242 378 l 371 422 q 359 541 371 500 q 318 599 347 582 q 236 615 289 615 q 163 597 204 615 q 89 551 122 579 l 63 592 q 158 669 97 639 q 279 699 219 699 m 364 344 q 203 290 256 319 q 135 226 150 261 q 119 138 119 192 q 206 57 119 57 q 257 62 235 57 q 285 76 279 67 q 334 195 314 121 q 364 344 354 269 z "},"f":{"ha":374,"x_min":47,"x_max":540,"o":"m 179 625 l 74 625 l 74 669 l 96 704 l 192 704 q 294 912 213 836 q 486 988 376 988 q 527 976 514 988 q 540 938 540 965 q 531 894 540 907 q 522 882 522 882 l 426 882 q 376 877 399 882 q 346 865 353 872 q 318 825 333 853 q 296 750 303 797 l 289 704 l 431 704 l 431 660 l 408 625 l 278 625 l 156 -229 l 47 -243 l 179 625 z "},"g":{"ha":660,"x_min":-12,"x_max":628,"o":"m 190 -231 q 40 -198 92 -231 q -12 -104 -12 -165 q 5 -39 -12 -71 q 50 8 22 -7 l 96 8 l 96 -122 q 148 -151 114 -140 q 217 -162 182 -162 q 343 -128 303 -162 q 403 0 383 -93 l 413 46 q 436 148 428 118 q 460 210 444 178 l 456 213 q 402 134 440 174 q 317 69 364 94 q 233 44 271 44 q 115 101 157 44 q 74 263 74 157 q 119 473 74 368 q 234 645 164 578 q 374 713 304 713 q 458 701 413 713 q 540 669 503 689 l 575 718 l 628 718 l 513 22 q 409 -165 493 -99 q 190 -231 325 -231 m 271 128 q 351 161 301 128 q 449 247 401 194 l 504 569 q 410 608 463 593 q 319 624 357 624 q 293 622 300 624 q 281 611 286 619 q 217 463 246 568 q 188 276 188 357 q 211 169 188 211 q 271 128 235 128 z "},"ǵ":{"ha":660,"x_min":-12,"x_max":628,"o":"m 0 0 m 190 -231 q 40 -198 92 -231 q -12 -104 -12 -165 q 5 -39 -12 -71 q 50 8 22 -7 l 96 8 l 96 -122 q 148 -151 114 -140 q 217 -162 182 -162 q 343 -128 303 -162 q 403 0 383 -93 l 413 46 q 436 148 428 118 q 460 210 444 178 l 456 213 q 402 134 440 174 q 317 69 364 94 q 233 44 271 44 q 115 101 157 44 q 74 263 74 157 q 119 473 74 368 q 234 645 164 578 q 374 713 304 713 q 458 701 413 713 q 540 669 503 689 l 575 718 l 628 718 l 513 22 q 409 -165 493 -99 q 190 -231 325 -231 m 271 128 q 351 161 301 128 q 449 247 401 194 l 504 569 q 410 608 463 593 q 319 624 357 624 q 293 622 300 624 q 281 611 286 619 q 217 463 246 568 q 188 276 188 357 q 211 169 188 211 q 271 128 235 128 m 339 821 l 532 1018 q 590 946 590 999 q 515 867 590 913 l 375 776 l 339 821 z "},"ğ":{"ha":660,"x_min":-12,"x_max":646,"o":"m 424 789 q 331 812 368 789 q 274 868 293 835 q 256 932 256 901 q 265 961 256 947 q 300 984 278 976 q 343 992 322 992 q 368 906 347 939 q 449 872 389 872 q 532 899 494 872 q 593 958 569 926 q 617 993 617 989 l 646 968 q 622 913 646 958 q 549 828 599 868 q 424 789 500 789 m 190 -231 q 40 -199 93 -231 q -12 -104 -12 -167 q 1 -46 -12 -71 q 33 -5 15 -21 q 50 8 50 11 l 96 8 l 96 -122 q 113 -135 99 -125 q 154 -153 128 -144 q 217 -162 181 -162 q 307 -150 272 -162 q 365 -103 342 -137 q 403 0 389 -68 l 413 46 q 436 148 428 118 q 460 210 444 178 l 456 213 q 413 146 446 186 q 331 75 379 106 q 233 44 283 44 q 118 96 163 44 q 74 263 74 147 q 107 438 74 331 q 208 629 140 546 q 374 713 275 713 q 462 700 418 713 q 540 669 506 688 l 575 718 l 628 718 l 513 22 q 411 -162 493 -94 q 190 -231 329 -231 m 271 128 q 342 154 303 128 q 411 209 382 181 q 449 247 440 238 l 504 569 q 469 587 497 574 q 399 612 440 600 q 319 624 358 624 q 294 622 301 624 q 281 611 286 619 q 242 535 264 590 q 203 410 219 481 q 188 276 188 340 q 215 158 188 189 q 271 128 242 128 z "},"ǧ":{"ha":660,"x_min":-12,"x_max":628,"o":"m 0 0 m 190 -231 q 40 -198 92 -231 q -12 -104 -12 -165 q 5 -39 -12 -71 q 50 8 22 -7 l 96 8 l 96 -122 q 148 -151 114 -140 q 217 -162 182 -162 q 343 -128 303 -162 q 403 0 383 -93 l 413 46 q 436 148 428 118 q 460 210 444 178 l 456 213 q 402 134 440 174 q 317 69 364 94 q 233 44 271 44 q 115 101 157 44 q 74 263 74 157 q 119 473 74 368 q 234 645 164 578 q 374 713 304 713 q 458 701 413 713 q 540 669 503 689 l 575 718 l 628 718 l 513 22 q 409 -165 493 -99 q 190 -231 325 -231 m 271 128 q 351 161 301 128 q 449 247 401 194 l 504 569 q 410 608 463 593 q 319 624 357 624 q 293 622 300 624 q 281 611 286 619 q 217 463 246 568 q 188 276 188 357 q 211 169 188 211 q 271 128 235 128 m 269 1015 l 403 901 l 558 1013 l 594 971 l 453 838 q 429 815 444 831 q 402 790 414 799 q 383 781 390 781 q 367 789 376 781 q 349 808 358 797 q 333 826 340 818 l 224 967 l 269 1015 z "},"ĝ":{"ha":660,"x_min":-12,"x_max":628,"o":"m 0 0 m 190 -231 q 40 -198 92 -231 q -12 -104 -12 -165 q 5 -39 -12 -71 q 50 8 22 -7 l 96 8 l 96 -122 q 148 -151 114 -140 q 217 -162 182 -162 q 343 -128 303 -162 q 403 0 383 -93 l 413 46 q 436 148 428 118 q 460 210 444 178 l 456 213 q 402 134 440 174 q 317 69 364 94 q 233 44 271 44 q 115 101 157 44 q 74 263 74 157 q 119 473 74 368 q 234 645 164 578 q 374 713 304 713 q 458 701 413 713 q 540 669 503 689 l 575 718 l 628 718 l 513 22 q 409 -165 493 -99 q 190 -231 325 -231 m 271 128 q 351 161 301 128 q 449 247 401 194 l 504 569 q 410 608 463 593 q 319 624 357 624 q 293 622 300 624 q 281 611 286 619 q 217 463 246 568 q 188 276 188 357 q 211 169 188 211 q 271 128 235 128 m 403 890 l 249 785 l 208 824 l 351 958 q 383 990 358 965 q 421 1015 408 1015 q 437 1007 428 1015 q 455 988 446 999 q 471 969 464 978 l 582 829 l 540 781 l 403 890 z "},"ģ":{"ha":660,"x_min":-12,"x_max":628,"o":"m 438 776 q 387 796 407 776 q 367 857 367 815 q 413 952 367 910 q 493 1010 458 994 l 515 986 q 485 949 506 979 q 465 888 465 919 q 499 808 465 839 q 438 776 479 776 m 190 -231 q 40 -199 93 -231 q -12 -104 -12 -167 q 1 -46 -12 -71 q 33 -5 15 -21 q 50 8 50 11 l 96 8 l 96 -122 q 113 -135 99 -125 q 154 -153 128 -144 q 217 -162 181 -162 q 307 -150 272 -162 q 365 -103 342 -137 q 403 0 389 -68 l 413 46 q 436 148 428 118 q 460 210 444 178 l 456 213 q 413 146 446 186 q 331 75 379 106 q 233 44 283 44 q 118 96 163 44 q 74 263 74 147 q 107 438 74 331 q 208 629 140 546 q 374 713 275 713 q 462 700 418 713 q 540 669 506 688 l 575 718 l 628 718 l 513 22 q 411 -162 493 -94 q 190 -231 329 -231 m 271 128 q 342 154 303 128 q 411 209 382 181 q 449 247 440 238 l 504 569 q 469 587 497 574 q 399 612 440 600 q 319 624 358 624 q 294 622 301 624 q 281 611 286 619 q 242 535 264 590 q 203 410 219 481 q 188 276 188 340 q 215 158 188 189 q 271 128 242 128 z "},"ġ":{"ha":660,"x_min":-12,"x_max":628,"o":"m 0 0 m 190 -231 q 40 -198 92 -231 q -12 -104 -12 -165 q 5 -39 -12 -71 q 50 8 22 -7 l 96 8 l 96 -122 q 148 -151 114 -140 q 217 -162 182 -162 q 343 -128 303 -162 q 403 0 383 -93 l 413 46 q 436 148 428 118 q 460 210 444 178 l 456 213 q 402 134 440 174 q 317 69 364 94 q 233 44 271 44 q 115 101 157 44 q 74 263 74 157 q 119 473 74 368 q 234 645 164 578 q 374 713 304 713 q 458 701 413 713 q 540 669 503 689 l 575 718 l 628 718 l 513 22 q 409 -165 493 -99 q 190 -231 325 -231 m 271 128 q 351 161 301 128 q 449 247 401 194 l 504 569 q 410 608 463 593 q 319 624 357 624 q 293 622 300 624 q 281 611 286 619 q 217 463 246 568 q 188 276 188 357 q 211 169 188 211 q 271 128 235 128 m 403 821 q 351 842 371 821 q 332 893 332 863 q 353 957 332 929 q 415 985 375 985 q 467 964 447 985 q 488 910 488 943 q 465 847 488 874 q 403 821 443 821 z "},"h":{"ha":725,"x_min":71,"x_max":656,"o":"m 110 893 l 110 944 l 315 971 l 315 871 l 275 611 q 383 680 322 647 q 497 713 443 713 q 594 678 564 713 q 624 586 624 643 q 618 519 624 556 q 611 476 613 483 l 551 92 l 656 92 l 656 38 q 631 24 650 35 q 583 4 613 14 q 525 -6 554 -6 q 462 10 481 -6 q 443 65 443 26 q 446 96 443 74 l 511 490 q 518 550 518 525 q 505 601 518 585 q 451 618 492 618 q 352 597 403 618 q 267 553 301 575 l 182 0 l 71 0 l 219 871 l 110 893 z "},"ħ":{"ha":725,"x_min":71,"x_max":656,"o":"m 525 -6 q 462 10 481 -6 q 443 65 443 26 q 446 96 443 74 l 511 490 q 518 550 518 525 q 505 601 518 585 q 451 618 492 618 q 352 597 403 618 q 267 553 301 575 l 182 0 l 71 0 l 206 785 l 111 785 l 111 851 l 215 851 l 219 871 l 146 915 l 146 949 l 315 971 l 315 871 l 313 851 l 522 851 l 522 785 l 301 785 l 275 611 q 383 680 322 647 q 497 713 443 713 q 594 678 564 713 q 624 586 624 643 q 618 519 624 556 q 611 476 613 483 l 551 92 l 656 92 l 656 38 q 631 24 650 35 q 583 4 613 14 q 525 -6 554 -6 z "},"ĥ":{"ha":725,"x_min":71,"x_max":656,"o":"m 71 0 m 110 893 l 110 944 l 315 971 l 315 871 l 275 611 q 383 680 322 647 q 497 713 443 713 q 594 678 564 713 q 624 586 624 643 q 618 519 624 556 q 611 476 613 483 l 551 92 l 656 92 l 656 38 q 631 24 650 35 q 583 4 613 14 q 525 -6 554 -6 q 462 10 481 -6 q 443 65 443 26 q 446 96 443 74 l 511 490 q 518 550 518 525 q 505 601 518 585 q 451 618 492 618 q 352 597 403 618 q 267 553 301 575 l 182 0 l 71 0 l 219 871 l 110 893 m 294 1104 l 140 999 l 100 1038 l 243 1172 q 275 1204 250 1179 q 313 1229 300 1229 q 328 1221 319 1229 q 347 1202 338 1213 q 363 1183 356 1192 l 474 1043 l 432 994 l 294 1104 z "},"ḥ":{"ha":725,"x_min":71,"x_max":656,"o":"m 71 0 m 110 893 l 110 944 l 315 971 l 315 871 l 275 611 q 383 680 322 647 q 497 713 443 713 q 594 678 564 713 q 624 586 624 643 q 618 519 624 556 q 611 476 613 483 l 551 92 l 656 92 l 656 38 q 631 24 650 35 q 583 4 613 14 q 525 -6 554 -6 q 462 10 481 -6 q 443 65 443 26 q 446 96 443 74 l 511 490 q 518 550 518 525 q 505 601 518 585 q 451 618 492 618 q 352 597 403 618 q 267 553 301 575 l 182 0 l 71 0 l 219 871 l 110 893 m 286 -231 q 235 -210 254 -231 q 215 -158 215 -189 q 237 -94 215 -122 q 299 -67 258 -67 q 351 -87 331 -67 q 371 -142 371 -108 q 349 -204 371 -178 q 286 -231 326 -231 z "},"i":{"ha":400,"x_min":79,"x_max":333,"o":"m 249 821 q 197 842 217 821 q 178 893 178 863 q 199 957 178 929 q 261 985 221 985 q 313 964 293 985 q 333 910 333 943 q 311 847 333 874 q 249 821 289 821 m 79 626 l 79 678 l 289 704 l 289 600 l 203 92 l 304 92 l 304 38 q 280 24 299 35 q 233 4 261 14 q 175 -6 204 -6 q 112 10 131 -6 q 93 65 93 26 q 97 99 93 82 l 189 603 l 79 626 z "},"ı":{"ha":400,"x_min":79,"x_max":304,"o":"m 79 626 l 79 678 l 289 704 l 289 600 l 203 92 l 304 92 l 304 38 q 280 24 299 35 q 233 4 261 14 q 175 -6 204 -6 q 112 10 131 -6 q 93 65 93 26 q 97 99 93 82 l 189 603 l 79 626 z "},"í":{"ha":400,"x_min":79,"x_max":371,"o":"m 119 821 l 313 1018 q 371 946 371 999 q 296 867 371 913 l 156 776 l 119 821 m 175 -6 q 112 10 131 -6 q 93 65 93 26 q 97 99 93 82 l 189 603 l 79 626 l 79 678 l 289 704 l 289 600 l 203 92 l 304 92 l 304 38 q 280 24 299 35 q 233 4 261 14 q 175 -6 204 -6 z "},"ĭ":{"ha":400,"x_min":79,"x_max":472,"o":"m 79 0 m 79 626 l 79 678 l 289 704 l 289 600 l 203 92 l 304 92 l 304 38 q 280 24 299 35 q 233 4 261 14 q 175 -6 204 -6 q 112 10 131 -6 q 93 65 93 26 q 97 99 93 82 l 189 603 l 79 626 m 250 789 q 157 812 194 789 q 101 868 119 835 q 82 932 82 901 q 93 963 82 949 q 127 984 106 976 q 169 992 149 992 q 194 906 174 939 q 275 872 215 872 q 358 899 321 872 q 419 958 396 926 q 443 993 443 989 l 472 968 q 449 913 472 958 q 376 828 425 868 q 250 789 326 789 z "},"ǐ":{"ha":400,"x_min":79,"x_max":464,"o":"m 79 0 m 79 626 l 79 678 l 289 704 l 289 600 l 203 92 l 304 92 l 304 38 q 280 24 299 35 q 233 4 261 14 q 175 -6 204 -6 q 112 10 131 -6 q 93 65 93 26 q 97 99 93 82 l 189 603 l 79 626 m 139 1015 l 272 901 l 428 1013 l 464 971 l 322 838 q 299 815 314 831 q 272 790 283 799 q 253 781 260 781 q 237 789 246 781 q 219 808 228 797 q 203 826 210 818 l 93 967 l 139 1015 z "},"î":{"ha":400,"x_min":46,"x_max":392,"o":"m 226 892 l 86 792 l 46 831 l 175 960 q 205 990 179 964 q 244 1017 231 1017 q 260 1008 251 1017 q 278 990 269 1000 q 294 971 288 979 l 392 836 l 350 788 l 226 892 m 175 -6 q 112 10 131 -6 q 93 65 93 26 q 97 99 93 82 l 189 603 l 79 626 l 79 678 l 289 704 l 289 600 l 203 92 l 304 92 l 304 38 q 280 24 299 35 q 233 4 261 14 q 175 -6 204 -6 z "},"ȉ":{"ha":400,"x_min":51,"x_max":425,"o":"m 51 0 m 79 626 l 79 678 l 289 704 l 289 600 l 203 92 l 304 92 l 304 38 q 280 24 299 35 q 233 4 261 14 q 175 -6 204 -6 q 112 10 131 -6 q 93 65 93 26 q 97 99 93 82 l 189 603 l 79 626 m 88 882 q 51 960 51 932 q 146 1035 51 1013 l 214 810 l 164 779 l 88 882 m 299 882 q 263 960 263 932 q 357 1035 263 1013 l 425 810 l 375 779 l 299 882 z "},"ï":{"ha":400,"x_min":35,"x_max":443,"o":"m 96 825 q 51 842 68 825 q 35 885 35 860 q 58 951 35 921 q 121 981 81 981 q 167 963 150 981 q 185 915 185 946 q 160 853 185 882 q 96 825 135 825 m 356 825 q 310 842 328 825 q 293 885 293 860 q 317 951 293 921 q 381 981 340 981 q 426 963 408 981 q 443 915 443 946 q 419 853 443 881 q 356 825 394 825 m 175 -6 q 112 10 131 -6 q 93 65 93 26 q 97 99 93 82 l 189 603 l 79 626 l 79 678 l 289 704 l 289 600 l 203 92 l 304 92 l 304 38 q 280 24 299 35 q 233 4 261 14 q 175 -6 204 -6 z "},"ị":{"ha":400,"x_min":61,"x_max":333,"o":"m 61 0 m 249 821 q 197 842 217 821 q 178 893 178 863 q 199 957 178 929 q 261 985 221 985 q 313 964 293 985 q 333 910 333 943 q 311 847 333 874 q 249 821 289 821 m 79 626 l 79 678 l 289 704 l 289 600 l 203 92 l 304 92 l 304 38 q 280 24 299 35 q 233 4 261 14 q 175 -6 204 -6 q 112 10 131 -6 q 93 65 93 26 q 97 99 93 82 l 189 603 l 79 626 m 132 -231 q 81 -210 100 -231 q 61 -158 61 -189 q 83 -94 61 -122 q 144 -67 104 -67 q 197 -87 176 -67 q 217 -142 217 -108 q 194 -204 217 -178 q 132 -231 172 -231 z "},"ì":{"ha":400,"x_min":79,"x_max":331,"o":"m 154 867 q 79 946 79 913 q 138 1018 79 999 l 331 821 l 294 776 l 154 867 m 79 626 l 79 678 l 289 704 l 289 600 l 203 92 l 304 92 l 304 38 q 280 24 299 35 q 233 4 261 14 q 175 -6 204 -6 q 112 10 131 -6 q 93 65 93 26 q 97 99 93 82 l 189 603 l 79 626 z "},"ỉ":{"ha":400,"x_min":79,"x_max":426,"o":"m 79 0 m 79 626 l 79 678 l 289 704 l 289 600 l 203 92 l 304 92 l 304 38 q 280 24 299 35 q 233 4 261 14 q 175 -6 204 -6 q 112 10 131 -6 q 93 65 93 26 q 97 99 93 82 l 189 603 l 79 626 m 221 744 q 214 782 214 769 q 228 817 214 803 q 275 844 242 831 q 319 871 307 860 q 331 899 331 882 q 316 923 331 915 q 268 931 301 931 q 178 919 226 931 q 171 951 171 935 q 190 994 171 982 q 261 1006 210 1006 q 383 980 340 1006 q 426 906 426 954 q 403 846 426 869 q 332 803 379 822 q 295 781 303 790 q 288 751 288 772 l 221 744 z "},"ȋ":{"ha":400,"x_min":79,"x_max":472,"o":"m 79 0 m 79 626 l 79 678 l 289 704 l 289 600 l 203 92 l 304 92 l 304 38 q 280 24 299 35 q 233 4 261 14 q 175 -6 204 -6 q 112 10 131 -6 q 93 65 93 26 q 97 99 93 82 l 189 603 l 79 626 m 82 814 q 106 869 82 824 q 178 953 129 914 q 304 993 228 993 q 397 970 360 993 q 453 914 435 947 q 472 850 472 881 q 464 822 472 835 q 429 798 453 806 q 385 790 406 790 q 360 876 381 843 q 279 910 339 910 q 196 883 233 910 q 135 824 158 856 q 111 789 111 793 l 82 814 z "},"ĳ":{"ha":743,"x_min":79,"x_max":703,"o":"m 79 0 m 249 821 q 197 842 217 821 q 178 893 178 863 q 199 957 178 929 q 261 985 221 985 q 313 964 293 985 q 333 910 333 943 q 311 847 333 874 q 249 821 289 821 m 79 626 l 79 678 l 289 704 l 289 600 l 203 92 l 304 92 l 304 38 q 280 24 299 35 q 233 4 261 14 q 175 -6 204 -6 q 112 10 131 -6 q 93 65 93 26 q 97 99 93 82 l 189 603 l 79 626 m 618 810 q 567 831 586 810 q 547 882 547 851 q 569 946 547 918 q 631 974 590 974 q 683 953 663 974 q 703 899 703 932 q 681 836 703 863 q 618 810 658 810 m 288 -232 q 247 -221 260 -232 q 233 -182 233 -210 q 242 -139 233 -151 q 251 -126 251 -126 l 347 -126 q 398 -122 375 -126 q 428 -110 421 -117 q 456 -69 440 -97 q 478 6 471 -42 l 572 611 l 463 635 l 463 686 l 672 713 l 672 613 l 589 51 q 484 -160 568 -87 q 288 -232 400 -232 z "},"ī":{"ha":400,"x_min":39,"x_max":397,"o":"m 53 935 l 397 935 l 383 847 l 39 847 l 53 935 m 79 626 l 79 678 l 289 704 l 289 600 l 203 92 l 304 92 l 304 38 q 280 24 299 35 q 233 4 261 14 q 175 -6 204 -6 q 112 10 131 -6 q 93 65 93 26 q 97 99 93 82 l 189 603 l 79 626 z "},"į":{"ha":400,"x_min":75,"x_max":333,"o":"m 249 821 q 197 842 217 821 q 178 893 178 863 q 199 957 178 929 q 261 985 221 985 q 313 964 293 985 q 333 910 333 943 q 311 847 333 874 q 249 821 289 821 m 224 -175 q 258 -169 240 -175 q 288 -156 275 -162 q 303 -147 300 -150 l 325 -181 q 303 -199 325 -182 q 249 -231 282 -217 q 179 -246 217 -246 q 75 -158 75 -246 q 100 -75 75 -114 q 169 -7 125 -36 q 111 12 129 -4 q 93 65 93 28 q 97 99 93 82 l 189 603 l 79 626 l 79 678 l 289 704 l 289 600 l 203 92 l 304 92 l 304 38 q 290 28 301 35 q 260 14 278 22 q 197 -40 226 -7 q 167 -119 167 -74 q 181 -160 167 -146 q 224 -175 196 -175 z "},"ĩ":{"ha":400,"x_min":64,"x_max":493,"o":"m 64 0 m 79 626 l 79 678 l 289 704 l 289 600 l 203 92 l 304 92 l 304 38 q 280 24 299 35 q 233 4 261 14 q 175 -6 204 -6 q 112 10 131 -6 q 93 65 93 26 q 97 99 93 82 l 189 603 l 79 626 m 369 826 q 282 849 340 826 l 189 881 l 90 832 l 64 858 l 113 921 q 150 960 133 947 q 186 972 167 972 q 238 962 207 972 q 275 950 268 951 l 368 918 l 467 967 l 493 940 l 444 882 q 405 840 421 854 q 369 826 389 826 z "},"j":{"ha":378,"x_min":-132,"x_max":338,"o":"m 253 810 q 201 831 221 810 q 182 882 182 851 q 203 946 182 918 q 265 974 225 974 q 317 953 297 974 q 338 899 338 932 q 315 836 338 863 q 253 810 293 810 m -78 -232 q -119 -221 -106 -232 q -132 -182 -132 -210 q -123 -139 -132 -151 q -114 -126 -114 -126 l -18 -126 q 33 -122 10 -126 q 63 -110 56 -117 q 90 -69 75 -97 q 113 6 106 -42 l 207 611 l 97 635 l 97 686 l 307 713 l 307 613 l 224 51 q 119 -160 203 -87 q -78 -232 35 -232 z "},"ȷ":{"ha":378,"x_min":-132,"x_max":307,"o":"m -18 -126 q 33 -122 10 -126 q 63 -110 56 -117 q 90 -69 75 -97 q 113 6 106 -42 l 207 611 l 97 635 l 97 686 l 307 713 l 307 613 l 224 51 q 119 -160 203 -87 q -78 -232 35 -232 q -119 -221 -106 -232 q -132 -182 -132 -210 q -123 -139 -132 -151 q -114 -126 -114 -126 l -18 -126 z "},"ĵ":{"ha":378,"x_min":-132,"x_max":451,"o":"m 0 0 m -18 -126 q 33 -122 10 -126 q 63 -110 56 -117 q 90 -69 75 -97 q 113 6 106 -42 l 207 611 l 97 635 l 97 686 l 307 713 l 307 613 l 224 51 q 119 -160 203 -87 q -78 -232 35 -232 q -119 -221 -106 -232 q -132 -182 -132 -210 q -123 -139 -132 -151 q -114 -126 -114 -126 l -18 -126 m 272 890 l 118 785 l 78 824 l 221 958 q 253 990 228 965 q 290 1015 278 1015 q 306 1007 297 1015 q 324 988 315 999 q 340 969 333 978 l 451 829 l 410 781 l 272 890 z "},"k":{"ha":657,"x_min":60,"x_max":622,"o":"m 99 893 l 99 944 l 304 971 l 304 871 l 264 613 q 482 713 399 713 q 585 677 549 713 q 622 581 622 642 q 588 468 622 519 q 509 381 554 417 q 399 303 464 344 l 500 92 l 618 92 l 618 38 q 599 24 614 35 q 555 4 583 14 q 489 -6 526 -6 q 431 9 451 -6 q 396 58 411 24 l 296 285 l 296 313 q 446 427 379 358 q 513 554 513 496 q 439 618 513 618 q 254 553 363 618 l 169 0 l 60 0 l 208 871 l 99 893 z "},"ķ":{"ha":660,"x_min":69,"x_max":632,"o":"m 108 893 l 108 944 l 314 971 l 314 871 l 274 613 q 492 713 408 713 q 595 677 558 713 q 632 581 632 642 q 598 468 632 519 q 519 381 564 417 q 408 303 474 344 l 510 92 l 628 92 l 628 38 q 608 24 624 35 q 565 4 593 14 q 499 -6 536 -6 q 441 9 461 -6 q 406 58 421 24 l 306 285 l 306 313 q 456 427 389 358 q 522 554 522 496 q 449 618 522 618 q 264 553 372 618 l 179 0 l 69 0 l 218 871 l 108 893 m 235 -256 q 251 -237 239 -251 q 275 -202 264 -224 q 286 -157 286 -181 q 253 -78 286 -108 q 314 -46 272 -46 q 365 -65 344 -46 q 385 -126 385 -85 q 339 -222 385 -179 q 258 -279 293 -264 l 235 -256 z "},"ĸ":{"ha":676,"x_min":79,"x_max":642,"o":"m 519 92 l 638 92 l 638 38 q 618 24 633 35 q 574 4 603 14 q 508 -6 546 -6 q 451 9 471 -6 q 415 58 431 24 l 315 285 l 315 313 q 465 428 399 360 q 532 556 532 496 q 513 602 532 586 q 458 618 494 618 q 279 549 386 618 l 189 0 l 79 0 l 189 603 l 79 626 l 79 678 l 289 704 l 289 611 q 513 713 421 713 q 606 676 571 713 q 642 579 642 640 q 608 468 642 519 q 528 381 574 417 q 418 303 482 344 l 519 92 z "},"l":{"ha":376,"x_min":83,"x_max":315,"o":"m 111 893 l 111 944 l 315 971 l 315 871 l 193 92 l 294 92 l 294 38 q 272 24 290 35 q 227 4 254 14 q 171 -6 200 -6 q 105 11 126 -6 q 83 65 83 28 q 86 96 83 74 l 221 871 l 111 893 z "},"ĺ":{"ha":376,"x_min":82,"x_max":418,"o":"m 107 1029 l 378 1174 q 407 1144 396 1163 q 418 1106 418 1125 q 402 1066 418 1078 q 346 1043 386 1054 l 129 978 l 107 1029 m 169 -6 q 103 11 125 -6 q 82 65 82 28 q 85 96 82 74 l 219 871 l 110 893 l 110 944 l 314 978 l 314 871 l 192 92 l 293 92 l 293 38 q 271 24 289 35 q 226 4 253 14 q 169 -6 199 -6 z "},"ľ":{"ha":376,"x_min":82,"x_max":481,"o":"m 347 800 q 358 819 350 804 q 374 860 367 835 q 382 918 382 886 q 363 979 382 951 q 422 1011 382 1011 q 465 994 450 1011 q 481 949 481 978 q 460 867 481 903 q 413 808 439 831 q 369 779 386 786 l 347 800 m 110 893 l 110 944 l 314 971 l 314 871 l 192 92 l 293 92 l 293 38 q 271 24 289 35 q 226 4 253 14 q 169 -6 199 -6 q 103 11 125 -6 q 82 65 82 28 q 85 96 82 74 l 219 871 l 110 893 z "},"ļ":{"ha":376,"x_min":60,"x_max":314,"o":"m 110 893 l 110 944 l 314 971 l 314 871 l 192 92 l 293 92 l 293 38 q 271 24 289 35 q 226 4 253 14 q 169 -6 199 -6 q 103 11 125 -6 q 82 65 82 28 q 85 96 82 74 l 219 871 l 110 893 m 60 -256 q 76 -237 64 -251 q 100 -202 89 -224 q 111 -157 111 -181 q 78 -78 111 -108 q 139 -46 97 -46 q 190 -65 169 -46 q 210 -126 210 -85 q 164 -222 210 -179 q 83 -279 118 -264 l 60 -256 z "},"ŀ":{"ha":376,"x_min":83,"x_max":467,"o":"m 83 0 m 111 893 l 111 944 l 315 971 l 315 871 l 193 92 l 294 92 l 294 38 q 272 24 290 35 q 227 4 254 14 q 171 -6 200 -6 q 105 11 126 -6 q 83 65 83 28 q 86 96 83 74 l 221 871 l 111 893 m 372 411 q 324 430 343 411 q 306 478 306 449 q 332 551 306 519 q 399 582 358 582 q 448 563 429 582 q 467 515 467 544 q 441 442 467 474 q 372 411 415 411 z "},"ǉ":{"ha":754,"x_min":83,"x_max":714,"o":"m 83 0 m 111 893 l 111 944 l 315 971 l 315 871 l 193 92 l 294 92 l 294 38 q 272 24 290 35 q 227 4 254 14 q 171 -6 200 -6 q 105 11 126 -6 q 83 65 83 28 q 86 96 83 74 l 221 871 l 111 893 m 629 810 q 578 831 597 810 q 558 882 558 851 q 580 946 558 918 q 642 974 601 974 q 694 953 674 974 q 714 899 714 932 q 692 836 714 863 q 629 810 669 810 m 299 -232 q 258 -221 271 -232 q 244 -182 244 -210 q 253 -139 244 -151 q 263 -126 263 -126 l 358 -126 q 409 -122 386 -126 q 439 -110 432 -117 q 467 -69 451 -97 q 489 6 482 -42 l 583 611 l 474 635 l 474 686 l 683 713 l 683 613 l 600 51 q 495 -160 579 -87 q 299 -232 411 -232 z "},"ł":{"ha":376,"x_min":-1,"x_max":390,"o":"m -1 343 l -1 414 l 150 474 l 219 871 l 110 893 l 110 944 l 314 971 l 314 871 l 258 517 l 390 569 l 390 494 l 246 439 l 192 92 l 293 92 l 293 38 q 271 24 289 35 q 226 4 253 14 q 169 -6 199 -6 q 103 11 125 -6 q 82 65 82 28 q 85 96 82 74 l 136 396 l -1 343 z "},"m":{"ha":1089,"x_min":79,"x_max":1015,"o":"m 86 626 l 86 678 l 294 704 l 294 610 q 335 639 294 611 q 427 690 376 667 q 522 713 478 713 q 611 682 583 713 q 640 606 639 651 q 875 713 783 713 q 967 681 938 713 q 996 604 996 650 q 990 550 996 588 q 982 501 983 513 l 914 92 l 1015 92 l 1015 38 q 991 24 1010 35 q 943 4 972 14 q 885 -6 914 -6 q 820 11 840 -6 q 800 65 800 28 q 803 96 800 74 l 874 478 q 882 558 882 526 q 822 618 882 618 q 724 597 775 618 q 636 551 674 575 l 629 501 l 549 0 l 436 0 l 519 478 q 526 558 526 518 q 469 618 526 618 q 391 603 432 618 q 322 573 350 589 q 285 551 293 557 l 199 0 l 79 0 l 194 603 l 86 626 z "},"n":{"ha":740,"x_min":79,"x_max":667,"o":"m 79 626 l 79 678 l 289 704 l 289 610 q 396 678 333 644 q 514 713 458 713 q 610 678 581 713 q 640 586 640 643 q 635 519 640 556 q 628 476 629 483 l 563 92 l 667 92 l 667 38 q 642 24 661 35 q 595 4 624 14 q 538 -6 567 -6 q 474 11 493 -6 q 454 65 454 28 q 457 96 454 74 l 528 490 q 535 554 535 525 q 520 603 535 588 q 465 618 506 618 q 279 550 385 618 l 193 0 l 79 0 l 189 603 l 79 626 z "},"ń":{"ha":740,"x_min":79,"x_max":667,"o":"m 358 821 l 551 1018 q 610 946 610 999 q 535 867 610 913 l 394 776 l 358 821 m 538 -6 q 474 11 493 -6 q 454 65 454 28 q 457 96 454 74 l 528 490 q 535 554 535 525 q 520 603 535 588 q 465 618 506 618 q 279 550 385 618 l 193 0 l 79 0 l 189 603 l 79 626 l 79 678 l 289 704 l 289 610 q 396 678 333 644 q 514 713 458 713 q 610 678 581 713 q 640 586 640 643 q 635 519 640 556 q 628 476 629 483 l 563 92 l 667 92 l 667 38 q 642 24 661 35 q 595 4 624 14 q 538 -6 567 -6 z "},"ŉ":{"ha":833,"x_min":79,"x_max":667,"o":"m 79 0 m 88 800 q 99 819 90 804 q 115 860 107 835 q 122 918 122 886 q 103 979 122 951 q 163 1011 122 1011 q 206 994 190 1011 q 221 949 221 978 q 200 867 221 903 q 153 808 179 831 q 110 779 126 786 l 88 800 m 79 626 l 79 678 l 289 704 l 289 610 q 396 678 333 644 q 514 713 458 713 q 610 678 581 713 q 640 586 640 643 q 635 519 640 556 q 628 476 629 483 l 563 92 l 667 92 l 667 38 q 642 24 661 35 q 595 4 624 14 q 538 -6 567 -6 q 474 11 493 -6 q 454 65 454 28 q 457 96 454 74 l 528 490 q 535 554 535 525 q 520 603 535 588 q 465 618 506 618 q 279 550 385 618 l 193 0 l 79 0 l 189 603 l 79 626 z "},"ň":{"ha":740,"x_min":79,"x_max":667,"o":"m 311 1015 l 444 901 l 600 1013 l 636 971 l 494 838 q 471 815 486 831 q 444 790 456 799 q 425 781 432 781 q 409 789 418 781 q 391 808 400 797 q 375 826 382 818 l 265 967 l 311 1015 m 79 626 l 79 678 l 289 704 l 289 610 q 396 678 333 644 q 514 713 458 713 q 610 678 581 713 q 640 586 640 643 q 635 519 640 556 q 628 476 629 483 l 563 92 l 667 92 l 667 38 q 642 24 661 35 q 595 4 624 14 q 538 -6 567 -6 q 474 11 493 -6 q 454 65 454 28 q 457 96 454 74 l 528 490 q 535 554 535 525 q 520 603 535 588 q 465 618 506 618 q 279 550 385 618 l 193 0 l 79 0 l 189 603 l 79 626 z "},"ņ":{"ha":740,"x_min":79,"x_max":667,"o":"m 79 626 l 79 678 l 289 704 l 289 610 q 396 678 333 644 q 514 713 458 713 q 610 678 581 713 q 640 586 640 643 q 635 519 640 556 q 628 476 629 483 l 563 92 l 667 92 l 667 38 q 642 24 661 35 q 595 4 624 14 q 538 -6 567 -6 q 474 11 493 -6 q 454 65 454 28 q 457 96 454 74 l 528 490 q 535 554 535 525 q 520 603 535 588 q 465 618 506 618 q 279 550 385 618 l 193 0 l 79 0 l 189 603 l 79 626 m 278 -256 q 294 -237 282 -251 q 318 -202 307 -224 q 329 -157 329 -181 q 296 -78 329 -108 q 357 -46 315 -46 q 408 -65 388 -46 q 428 -126 428 -85 q 382 -222 428 -179 q 301 -279 336 -264 l 278 -256 z "},"ṅ":{"ha":740,"x_min":79,"x_max":667,"o":"m 79 0 m 79 626 l 79 678 l 289 704 l 289 610 q 396 678 333 644 q 514 713 458 713 q 610 678 581 713 q 640 586 640 643 q 635 519 640 556 q 628 476 629 483 l 563 92 l 667 92 l 667 38 q 642 24 661 35 q 595 4 624 14 q 538 -6 567 -6 q 474 11 493 -6 q 454 65 454 28 q 457 96 454 74 l 528 490 q 535 554 535 525 q 520 603 535 588 q 465 618 506 618 q 279 550 385 618 l 193 0 l 79 0 l 189 603 l 79 626 m 443 821 q 392 842 411 821 q 372 893 372 863 q 394 957 372 929 q 456 985 415 985 q 508 964 488 985 q 528 910 528 943 q 506 847 528 874 q 443 821 483 821 z "},"ŋ":{"ha":718,"x_min":79,"x_max":640,"o":"m 263 -232 q 221 -220 233 -232 q 208 -182 208 -208 q 226 -126 208 -153 l 322 -126 q 373 -122 350 -126 q 403 -110 396 -117 q 433 -60 419 -93 q 453 6 447 -28 l 526 483 q 535 554 535 536 q 519 603 535 589 q 465 618 503 618 q 378 599 429 618 q 279 550 328 581 l 193 0 l 79 0 l 189 603 l 79 626 l 79 678 l 289 704 l 289 610 q 408 683 344 654 q 514 713 472 713 q 640 586 640 713 q 628 476 640 560 l 564 51 q 463 -156 544 -79 q 263 -232 382 -232 z "},"ɲ":{"ha":760,"x_min":-132,"x_max":686,"o":"m 686 92 l 686 38 q 662 24 681 35 q 615 4 643 14 q 557 -6 586 -6 q 493 11 513 -6 q 474 65 474 28 q 476 96 474 74 l 547 490 q 554 554 554 525 q 540 603 554 588 q 485 618 525 618 q 299 550 404 618 l 224 51 q 119 -160 203 -87 q -78 -232 35 -232 q -119 -221 -106 -232 q -132 -182 -132 -210 q -123 -139 -132 -151 q -114 -126 -114 -126 l -18 -126 q 33 -122 10 -126 q 63 -110 56 -117 q 90 -69 75 -97 q 113 6 106 -42 l 208 603 l 99 626 l 99 678 l 308 704 l 308 610 q 415 678 353 644 q 533 713 478 713 q 630 678 600 713 q 660 586 660 643 q 654 519 660 556 q 647 476 649 483 l 582 92 l 686 92 z "},"ǌ":{"ha":1118,"x_min":79,"x_max":1078,"o":"m 79 0 m 79 626 l 79 678 l 289 704 l 289 610 q 396 678 333 644 q 514 713 458 713 q 610 678 581 713 q 640 586 640 643 q 635 519 640 556 q 628 476 629 483 l 563 92 l 667 92 l 667 38 q 642 24 661 35 q 595 4 624 14 q 538 -6 567 -6 q 474 11 493 -6 q 454 65 454 28 q 457 96 454 74 l 528 490 q 535 554 535 525 q 520 603 535 588 q 465 618 506 618 q 279 550 385 618 l 193 0 l 79 0 l 189 603 l 79 626 m 993 810 q 942 831 961 810 q 922 882 922 851 q 944 946 922 918 q 1006 974 965 974 q 1058 953 1038 974 q 1078 899 1078 932 q 1056 836 1078 863 q 993 810 1033 810 m 663 -232 q 622 -221 635 -232 q 608 -182 608 -210 q 617 -139 608 -151 q 626 -126 626 -126 l 722 -126 q 773 -122 750 -126 q 803 -110 796 -117 q 831 -69 815 -97 q 853 6 846 -42 l 947 611 l 838 635 l 838 686 l 1047 713 l 1047 613 l 964 51 q 859 -160 943 -87 q 663 -232 775 -232 z "},"ñ":{"ha":740,"x_min":79,"x_max":667,"o":"m 529 826 q 442 849 500 826 l 349 881 l 250 832 l 224 858 l 272 921 q 310 960 293 947 q 346 972 326 972 q 397 962 367 972 q 435 950 428 951 l 528 918 l 626 967 l 653 940 l 604 882 q 565 840 581 854 q 529 826 549 826 m 538 -6 q 474 11 493 -6 q 454 65 454 28 q 457 96 454 74 l 528 490 q 535 554 535 525 q 520 603 535 588 q 465 618 506 618 q 279 550 385 618 l 193 0 l 79 0 l 189 603 l 79 626 l 79 678 l 289 704 l 289 610 q 396 678 333 644 q 514 713 458 713 q 610 678 581 713 q 640 586 640 643 q 635 519 640 556 q 628 476 629 483 l 563 92 l 667 92 l 667 38 q 642 24 661 35 q 595 4 624 14 q 538 -6 567 -6 z "},"o":{"ha":636,"x_min":56,"x_max":581,"o":"m 247 -12 q 104 47 153 -12 q 56 219 56 107 q 96 472 56 360 q 213 648 136 583 q 393 713 289 713 q 581 478 581 713 q 541 226 581 338 q 426 51 501 115 q 247 -12 351 -12 m 300 69 q 390 89 369 69 q 421 152 403 100 q 453 276 439 204 q 467 422 467 349 q 456 549 467 506 q 418 610 446 592 q 338 629 390 629 q 287 622 313 629 q 249 604 261 615 q 217 542 236 593 q 184 420 199 492 q 169 276 169 349 q 181 147 169 190 q 219 87 192 104 q 300 69 246 69 z "},"ó":{"ha":636,"x_min":56,"x_max":581,"o":"m 275 821 l 468 1018 q 526 946 526 999 q 451 867 526 913 l 311 776 l 275 821 m 247 -12 q 104 47 153 -12 q 56 219 56 107 q 96 472 56 360 q 213 648 136 583 q 393 713 289 713 q 581 478 581 713 q 541 226 581 338 q 426 51 501 115 q 247 -12 351 -12 m 300 69 q 390 89 369 69 q 421 152 403 100 q 453 276 439 204 q 467 422 467 349 q 456 549 467 506 q 418 610 446 592 q 338 629 390 629 q 287 622 313 629 q 249 604 261 615 q 217 542 236 593 q 184 420 199 492 q 169 276 169 349 q 181 147 169 190 q 219 87 192 104 q 300 69 246 69 z "}}}
